<svg width="138" height="126" viewBox="0 0 138 126" fill="none" xmlns="http://www.w3.org/2000/svg">
<ellipse opacity="0.08" cx="50.9767" cy="96.2723" rx="49.8349" ry="15.3188" fill="black"/>
<path d="M52.6741 58.9142L52.6741 53.1095L46.7082 53.1098V59.6781L52.6741 58.9142Z" fill="#FFBD13" stroke="#2B2B2E" stroke-width="0.849966"/>
<path d="M94.2554 20.9919L91.6455 26.4638" stroke="black" stroke-width="1.69993" stroke-linecap="round"/>
<path d="M117.812 82.7257C116.803 84.8406 114.677 86.3563 111.593 87.2421C108.509 88.1278 104.517 88.3673 99.877 87.9639C90.6003 87.1576 78.828 83.7901 66.7706 78.039C54.7131 72.2878 44.6875 65.2583 38.2229 58.5565C34.9894 55.2043 32.6632 51.9511 31.4108 48.9972C30.1581 46.0427 29.998 43.4366 31.0068 41.3216C32.0458 39.1433 34.6245 36.1931 38.3923 33.1933C42.1489 30.2024 47.0508 27.1914 52.6907 24.8765C63.972 20.2461 78.1642 18.4154 92.0504 25.0388C105.936 31.6621 113.445 43.8436 116.946 55.5248C118.697 61.3647 119.441 67.0691 119.481 71.8707C119.521 76.6867 118.851 80.5473 117.812 82.7257Z" fill="white" stroke="black" stroke-width="0.849966"/>
<mask id="mask0_679_3048" style="mask-type:alpha" maskUnits="userSpaceOnUse" x="29" y="20" width="90" height="69">
<path d="M116.748 82.4422C115.751 84.5319 113.65 86.03 110.601 86.9057C107.552 87.7813 103.605 88.0181 99.0174 87.6193C89.845 86.822 78.2046 83.4923 66.282 77.8055C54.3595 72.1187 44.4463 65.1679 38.0542 58.5414C34.857 55.2269 32.5572 52.0104 31.3191 49.0902C30.0807 46.1693 29.9228 43.5938 30.9195 41.5041C31.9464 39.3511 34.4958 36.4343 38.2213 33.4681C41.9356 30.5109 46.7825 27.5337 52.359 25.2448C63.5136 20.6664 77.5461 18.8565 91.2757 25.4052C105.005 31.9539 112.43 43.9982 115.891 55.5482C117.622 61.3225 118.359 66.9628 118.398 71.7104C118.437 76.4724 117.775 80.2891 116.748 82.4422Z" fill="white" stroke="black" stroke-width="0.849966"/>
</mask>
<g mask="url(#mask0_679_3048)">
<path opacity="0.4" d="M107.024 65.76C110.071 42.4983 97.1241 28.8562 92.2213 25.074L95.2574 22.4751L107.444 27.9383L116.269 38.0241L123.834 67.441L117.95 83.4101L107.024 65.76Z" fill="#D9D9D9"/>
</g>
<path d="M117.115 84.187C116.21 86.0852 114.193 87.4139 111.186 88.1293C108.185 88.8437 104.266 88.9278 99.6858 88.3927C90.5304 87.323 78.8319 83.7909 66.7711 78.0382C54.7104 72.2855 44.6033 65.4169 38.0103 58.975C34.7122 55.7525 32.3112 52.6538 30.9774 49.8716C29.6415 47.085 29.4046 44.6812 30.31 42.7829C31.2154 40.8847 33.2327 39.556 36.2389 38.8405C39.2405 38.1262 43.1597 38.0421 47.7396 38.5772C56.895 39.6469 68.5935 43.179 80.6542 48.9317C92.715 54.6844 102.822 61.553 109.415 67.9949C112.713 71.2174 115.114 74.3161 116.448 77.0983C117.784 79.8849 118.021 82.2887 117.115 84.187Z" fill="#5A5A5A" stroke="black" stroke-width="0.849966"/>
<path d="M76.1006 59.0543L55.7553 101.709C54.83 103.649 52.507 104.472 50.5669 103.546V103.546C48.6268 102.621 47.8042 100.298 48.7296 98.3578L49.5672 96.6017" stroke="black" stroke-width="1.69993" stroke-linecap="round"/>
<path d="M53.7927 90.7906L67.3818 83.6194C67.3818 83.6194 71.3426 84.2521 74.0447 85.8776C79.4488 89.1286 80.4663 93.4293 85.9994 97.0135C88.646 98.7279 94.4605 100.18 94.4605 100.18V101.451L81.5707 109.273C81.5707 109.273 76.5291 108.757 73.4936 106.64C68.1595 102.921 66.2261 98.3326 60.8883 95.0121C58.9293 93.7935 53.7927 92.0053 53.7927 92.0053L53.7927 90.7906Z" fill="#1DBD77"/>
<path d="M53.7926 92.0218V90.761C53.7926 90.761 58.8628 92.4566 61.7089 94.2208C66.8133 97.3848 68.5083 102.286 73.6127 105.45C77.604 107.924 81.5583 107.972 81.5583 107.972L94.4589 100.202V101.433L81.5583 109.291C81.5583 109.291 76.5308 108.651 73.6127 106.711C68.6284 103.398 66.0874 98.2685 60.9466 95.0711C58.2196 93.375 53.7926 92.0218 53.7926 92.0218Z" fill="#159463"/>
<path opacity="0.6" d="M90.603 100.678L80.6863 106.441C80.6863 106.441 76.4784 105.41 74.2484 103.949C69.5337 100.861 67.8298 96.4516 63.1896 93.5651C60.6794 92.0036 57.3227 90.7615 57.3227 90.7615L67.8624 85.1025C67.8624 85.1025 71.0689 86.1816 73.4178 87.5946C78.1156 90.4207 78.7839 94.2915 83.5939 97.4073C85.8946 98.8976 90.603 100.678 90.603 100.678Z" stroke="white" stroke-width="0.849966" stroke-linejoin="round"/>
<path d="M53.7927 90.7906L67.3818 83.6194C67.3818 83.6194 71.3426 84.2521 74.0447 85.8776C79.4488 89.1286 80.4663 93.4293 85.9994 97.0135C88.646 98.7279 94.4605 100.18 94.4605 100.18V101.451L81.5707 109.273C81.5707 109.273 76.5291 108.757 73.4936 106.64C68.1595 102.921 66.2261 98.3326 60.8883 95.0121C58.9293 93.7935 53.7927 92.0053 53.7927 92.0053L53.7927 90.7906Z" stroke="#2B2B2E" stroke-width="0.849966" stroke-linejoin="round"/>
<circle opacity="0.5" cx="2.80177" cy="2.80177" r="2.80177" transform="matrix(1 0 0.348081 0.937464 70.349 93.1451)" fill="white"/>
<path fill-rule="evenodd" clip-rule="evenodd" d="M92.1133 90.7324C99.13 84.1959 102.122 75.7919 98.7971 71.9616C98.7751 71.9362 98.7528 71.9111 98.7304 71.8863L98.739 71.8782L96.2709 69.1286L95.1745 70.15C91.0927 69.6122 85.2146 72.0702 80.0711 76.8617C74.9276 81.6533 71.9465 87.4482 72.0312 91.7096L70.8606 92.8001L73.2166 95.4248C73.2715 95.4955 73.3284 95.5647 73.3873 95.6326C76.7127 99.4629 85.0966 97.269 92.1133 90.7324Z" fill="#FFBD13"/>
<path d="M98.7971 71.9616L98.4815 72.246L98.4815 72.246L98.7971 71.9616ZM98.7304 71.8863L98.4465 71.57L98.1344 71.8608L98.4205 72.1772L98.7304 71.8863ZM98.739 71.8782L99.0229 72.1945L99.3339 71.9048L99.05 71.5886L98.739 71.8782ZM96.2709 69.1286L96.5819 68.8389L96.298 68.5227L95.987 68.8123L96.2709 69.1286ZM95.1745 70.15L95.1198 70.5753L95.3138 70.6009L95.4584 70.4662L95.1745 70.15ZM72.0312 91.7096L72.3151 92.0258L72.4561 91.8945L72.4522 91.7002L72.0312 91.7096ZM70.8606 92.8001L70.5767 92.4838L70.2657 92.7735L70.5496 93.0898L70.8606 92.8001ZM73.2166 95.4248L73.5468 95.1582L73.5376 95.1463L73.5275 95.1351L73.2166 95.4248ZM73.3873 95.6326L73.0717 95.917L73.3873 95.6326ZM98.4815 72.246C99.9915 73.9853 100.127 76.8454 98.9377 80.1865C97.7556 83.5064 95.2974 87.1855 91.8294 90.4162L92.3972 91.0487C95.946 87.7428 98.4924 83.9516 99.7293 80.4778C100.959 77.0252 100.928 73.7682 99.1127 71.6772L98.4815 72.246ZM98.4205 72.1772C98.441 72.1999 98.4613 72.2228 98.4815 72.246L99.1127 71.6772C99.0888 71.6496 99.0647 71.6224 99.0403 71.5954L98.4205 72.1772ZM98.4552 71.562L98.4465 71.57L99.0143 72.2026L99.0229 72.1945L98.4552 71.562ZM95.9599 69.4183L98.4281 72.1679L99.05 71.5886L96.5819 68.8389L95.9599 69.4183ZM95.4584 70.4662L96.5548 69.4449L95.987 68.8123L94.8906 69.8337L95.4584 70.4662ZM80.355 77.178C82.8954 74.8114 85.6115 73.0268 88.1864 71.9014C90.7668 70.7737 93.1782 70.3195 95.1198 70.5753L95.2292 69.7246C93.089 69.4427 90.5205 69.9485 87.8555 71.1133C85.185 72.2804 82.3902 74.1206 79.7872 76.5455L80.355 77.178ZM72.4522 91.7002C72.371 87.6147 75.2544 81.9296 80.355 77.178L79.7872 76.5455C74.6008 81.377 71.5221 87.2817 71.6103 91.7189L72.4522 91.7002ZM71.1445 93.1164L72.3151 92.0258L71.7473 91.3933L70.5767 92.4838L71.1445 93.1164ZM73.5275 95.1351L71.1715 92.5104L70.5496 93.0898L72.9056 95.7145L73.5275 95.1351ZM73.7029 95.3482C73.6491 95.2861 73.5971 95.2228 73.5468 95.1582L72.8863 95.6914C72.946 95.7681 73.0078 95.8433 73.0717 95.917L73.7029 95.3482ZM91.8294 90.4162C88.3613 93.647 84.5708 95.7888 81.2619 96.6547C77.933 97.5258 75.2098 97.0838 73.7029 95.3482L73.0717 95.917C74.8902 98.0116 78.0217 98.3878 81.4702 97.4855C84.9388 96.5778 88.8486 94.3544 92.3972 91.0487L91.8294 90.4162Z" fill="#2B2B2E"/>
<ellipse cx="17.3636" cy="9.18158" rx="17.3636" ry="9.18158" transform="matrix(0.731698 -0.681629 0.655784 0.755353 64.8175 85.854)" fill="#FFE091" stroke="#2B2B2E" stroke-width="0.849966"/>
<ellipse cx="14.503" cy="7.19851" rx="14.503" ry="7.19851" transform="matrix(0.731698 -0.681629 0.655771 0.755366 68.21 85.403)" fill="#FFBD13" stroke="#2B2B2E" stroke-width="0.849966"/>
<path fill-rule="evenodd" clip-rule="evenodd" d="M73.8257 91.5909C72.2835 88.2683 74.9476 82.1298 80.2884 77.1545C85.5685 72.2357 91.6634 70.1319 94.7257 71.9593C96.2679 75.282 93.6038 81.4205 88.263 86.3958C82.9829 91.3146 76.888 93.4183 73.8257 91.5909Z" fill="#FECD4D"/>
<path d="M73.8257 91.5909L73.445 91.7748L73.5005 91.8943L73.6125 91.9611L73.8257 91.5909ZM94.7257 71.9593L95.1064 71.7755L95.0509 71.656L94.939 71.5892L94.7257 71.9593ZM74.2064 91.4071C73.5143 89.9161 73.7371 87.6989 74.8596 85.1685C75.9732 82.658 77.9371 79.9256 80.5723 77.4707L80.0045 76.8382C77.299 79.3586 75.2604 82.1832 74.0923 84.8164C72.933 87.4298 72.5949 89.9432 73.445 91.7748L74.2064 91.4071ZM80.5723 77.4707C83.1776 75.0437 85.9731 73.3221 88.4769 72.432C91.0002 71.535 93.1401 71.5106 94.5124 72.3295L94.939 71.5892C93.2489 70.5807 90.8102 70.6945 88.2006 71.6222C85.5713 72.5569 82.6793 74.3465 80.0045 76.8382L80.5723 77.4707ZM94.345 72.1432C95.0371 73.6342 94.8143 75.8513 93.6918 78.3818C92.5782 80.8922 90.6143 83.6246 87.9791 86.0795L88.5469 86.7121C91.2524 84.1916 93.291 81.3671 94.4591 78.7339C95.6184 76.1205 95.9566 73.6071 95.1064 71.7755L94.345 72.1432ZM87.9791 86.0795C85.3738 88.5066 82.5783 90.2282 80.0745 91.1183C77.5512 92.0153 75.4113 92.0397 74.039 91.2208L73.6125 91.9611C75.3025 92.9696 77.7412 92.8558 80.3508 91.9281C82.9801 90.9934 85.8721 89.2038 88.5469 86.7121L87.9791 86.0795Z" fill="#2B2B2E"/>
<path d="M90.7288 82.0204C91.701 80.8265 90.955 79.6803 89.6529 78.595L91.1741 77.0581L90.0854 76.3002L88.6048 77.7961C88.319 77.5971 88.0216 77.3979 87.7259 77.201L89.2163 75.6951L88.1277 74.9372L86.607 76.4723C86.3673 76.3121 86.1314 76.1547 85.9057 75.9975L85.9103 75.9929L84.4093 74.9468L83.4205 75.9458C83.4205 75.9458 84.2379 76.4926 84.2116 76.4955C84.6531 76.8028 84.579 77.1223 84.4327 77.3411L82.6999 79.0917C82.7308 79.1132 82.7687 79.1419 82.8082 79.1783L82.6934 79.0984L80.2651 81.5504C80.128 81.6561 79.8583 81.7891 79.5495 81.5752C79.5529 81.5955 78.7582 81.0244 78.7582 81.0244L77.4363 81.9905L78.854 82.9774C79.1175 83.1609 79.3732 83.3456 79.6262 83.5239L78.0887 85.0786L79.1766 85.836L80.6985 84.2984C80.9914 84.5112 81.2784 84.7144 81.5612 84.9112L80.0457 86.441L81.1344 87.1989L82.6694 85.6481C84.5891 86.8325 86.2642 87.3293 87.8845 85.9631C89.19 84.8637 89.0648 83.8792 88.2375 82.9413C89.1425 83.1064 90.0191 82.8953 90.7288 82.0204ZM85.9162 84.2821C84.7669 85.4432 82.5819 83.6998 81.8431 83.1854L83.8816 81.1258C84.6192 81.6415 87.1145 83.0714 85.9162 84.2821ZM88.2846 81.024C87.2388 82.0806 85.4289 80.6117 84.8134 80.1843L86.6614 78.3172C87.277 78.7458 89.3757 79.923 88.2846 81.024Z" fill="white"/>
<path fill-rule="evenodd" clip-rule="evenodd" d="M48.6616 85.6738C54.5112 81.8817 57.7262 76.2667 55.8425 73.1322C55.8298 73.1111 55.8169 73.0901 55.8038 73.0693L55.8105 73.065L54.4004 70.8049L53.486 71.3977C50.6397 70.5151 46.1273 71.5437 41.8401 74.3229C37.553 77.102 34.681 80.8604 34.1941 83.9037L33.2166 84.5374L34.5684 86.7041C34.5972 86.7582 34.6275 86.8117 34.6592 86.8644C36.5429 89.9989 42.8119 89.4658 48.6616 85.6738Z" fill="#889EE0"/>
<path d="M55.8425 73.1322L55.4822 73.3574L55.4822 73.3574L55.8425 73.1322ZM55.8038 73.0693L55.5789 72.7087L55.2208 72.9409L55.4482 73.302L55.8038 73.0693ZM55.8105 73.065L56.0354 73.4256L56.392 73.1944L56.1671 72.8338L55.8105 73.065ZM54.4004 70.8049L54.757 70.5737L54.5321 70.2132L54.1755 70.4444L54.4004 70.8049ZM53.486 71.3977L53.3602 71.8074L53.5461 71.8651L53.7109 71.7583L53.486 71.3977ZM34.1941 83.9037L34.4191 84.2643L34.5798 84.1601L34.6103 83.9694L34.1941 83.9037ZM33.2166 84.5374L32.9916 84.1769L32.635 84.408L32.86 84.7686L33.2166 84.5374ZM34.5684 86.7041L34.9396 86.4982L34.9327 86.4853L34.925 86.4729L34.5684 86.7041ZM34.6592 86.8644L35.0195 86.6393L34.6592 86.8644ZM55.4822 73.3574C56.3032 74.7234 56.0588 76.7237 54.788 78.9431C53.5288 81.1422 51.3155 83.4469 48.4366 85.3132L48.8865 86.0343C51.8572 84.1086 54.1763 81.7097 55.5161 79.3697C56.8443 77.05 57.2656 74.6755 56.2029 72.9071L55.4822 73.3574ZM55.4482 73.302C55.4597 73.3203 55.471 73.3387 55.4822 73.3574L56.2029 72.9071C56.1886 72.8834 56.1742 72.8599 56.1595 72.8366L55.4482 73.302ZM55.5855 72.7044L55.5789 72.7087L56.0288 73.4299L56.0354 73.4256L55.5855 72.7044ZM54.0438 71.0361L55.4539 73.2962L56.1671 72.8338L54.757 70.5737L54.0438 71.0361ZM53.7109 71.7583L54.6254 71.1655L54.1755 70.4444L53.261 71.0372L53.7109 71.7583ZM42.0651 74.6835C44.1731 73.3169 46.3298 72.3854 48.2993 71.9035C50.2746 71.4201 52.0327 71.3958 53.3602 71.8074L53.6118 70.988C52.093 70.517 50.1717 70.5657 48.1075 71.0708C46.0374 71.5773 43.7943 72.5497 41.6152 73.9623L42.0651 74.6835ZM34.6103 83.9694C35.0695 81.0991 37.8264 77.4312 42.0651 74.6835L41.6152 73.9623C37.2797 76.7728 34.2925 80.6216 33.7779 83.8381L34.6103 83.9694ZM33.4416 84.898L34.4191 84.2643L33.9692 83.5432L32.9916 84.1769L33.4416 84.898ZM34.925 86.4729L33.5732 84.3062L32.86 84.7686L34.2118 86.9353L34.925 86.4729ZM35.0195 86.6393C34.9916 86.5929 34.965 86.5458 34.9396 86.4982L34.1972 86.91C34.2295 86.9706 34.2634 87.0305 34.2989 87.0896L35.0195 86.6393ZM48.4366 85.3132C45.5575 87.1796 42.5931 88.2312 40.141 88.4397C37.6673 88.6501 35.8379 88.0012 35.0195 86.6393L34.2989 87.0896C35.3641 88.8622 37.6111 89.5139 40.2052 89.2934C42.821 89.0709 45.916 87.96 48.8865 86.0343L48.4366 85.3132Z" fill="#2B2B2E"/>
<ellipse cx="12.6225" cy="6.61954" rx="12.6225" ry="6.61954" transform="matrix(0.839113 -0.543958 0.515242 0.857383 29.7917 78.8542)" fill="#D6DFFF" stroke="#2B2B2E" stroke-width="0.849966"/>
<ellipse cx="10.543" cy="5.18983" rx="10.543" ry="5.18983" transform="matrix(0.839113 -0.543958 0.515236 0.857386 32.2734 78.9488)" fill="#A5B7F2" stroke="#2B2B2E" stroke-width="0.849966"/>
<path fill-rule="evenodd" clip-rule="evenodd" d="M35.49 84.041C34.8153 81.4868 37.505 77.4448 41.957 74.5588C46.359 71.7052 50.982 70.9553 52.9349 72.6319C53.6094 75.1863 50.9194 79.2284 46.4675 82.1144C42.0655 84.968 37.4426 85.7177 35.49 84.041Z" fill="#B8C9FF"/>
<path d="M35.49 84.041L35.0827 84.1549L35.1167 84.2833L35.2165 84.369L35.49 84.041ZM52.9349 72.6319L53.3422 72.5181L53.3082 72.3896L53.2084 72.3039L52.9349 72.6319ZM35.8973 83.9272C35.6081 82.8322 36.0281 81.3191 37.1478 79.6653C38.255 78.03 39.9959 76.3364 42.1819 74.9193L41.732 74.1982C39.4661 75.6671 37.6361 77.4376 36.4541 79.1834C35.2847 80.9106 34.6972 82.6956 35.0827 84.1549L35.8973 83.9272ZM42.1819 74.9193C44.3435 73.5181 46.5467 72.6422 48.4316 72.3188C50.3376 71.9918 51.8259 72.2426 52.6613 72.9599L53.2084 72.3039C52.091 71.3446 50.2914 71.132 48.2971 71.4742C46.2818 71.82 43.9725 72.7458 41.732 74.1982L42.1819 74.9193ZM52.5276 72.7457C52.8167 73.8407 52.3966 75.3539 51.2768 77.0078C50.1695 78.6432 48.4285 80.3367 46.2425 81.7538L46.6924 82.4749C48.9584 81.006 50.7884 79.2355 51.9704 77.4897C53.1399 75.7625 53.7275 73.9774 53.3422 72.5181L52.5276 72.7457ZM46.2425 81.7538C44.081 83.155 41.8778 84.0309 39.993 84.3542C38.0871 84.6812 36.5989 84.4303 35.7636 83.7131L35.2165 84.369C36.3338 85.3284 38.1332 85.541 40.1275 85.1989C42.1427 84.8531 44.4519 83.9273 46.6924 82.4749L46.2425 81.7538Z" fill="#2B2B2E"/>
<path fill-rule="evenodd" clip-rule="evenodd" d="M42.6949 79.3103L45.1749 77.4553L42.2058 75.6022L42.6949 79.3103Z" fill="#666D96"/>
<path fill-rule="evenodd" clip-rule="evenodd" d="M45.654 77.0961L48.5658 74.918L42.7385 75.3342L45.654 77.0961Z" fill="#8A93B6"/>
<path fill-rule="evenodd" clip-rule="evenodd" d="M48.6929 75.0857L45.7798 77.2647L46.6537 80.6092L48.6929 75.0857Z" fill="#565B82"/>
<path fill-rule="evenodd" clip-rule="evenodd" d="M45.3009 77.6233L42.8209 79.4783L46.223 80.9827L45.3009 77.6233Z" fill="#3C3F69"/>
<path fill-rule="evenodd" clip-rule="evenodd" d="M40.1557 81.2095L42.1503 79.7175L41.6206 76.0671L40.1557 81.2095Z" fill="#8A93B6"/>
<path fill-rule="evenodd" clip-rule="evenodd" d="M40.2807 81.3784L45.6225 81.4294L42.2754 79.8864L40.2807 81.3784Z" fill="#565B82"/>
<path fill-rule="evenodd" clip-rule="evenodd" d="M9.25805 76.0467C4.23386 73.8601 1.08762 69.757 2.23071 66.8821C2.2385 66.8625 2.24647 66.8431 2.25462 66.8237L2.248 66.8208L3.11306 64.7397L3.89985 65.0821C6.04725 63.9051 9.7158 64.0337 13.3976 65.6361C17.0793 67.2385 19.7526 69.87 20.4685 72.2932L21.3076 72.6584L20.4838 74.6404C20.4656 74.6942 20.446 74.7477 20.4249 74.8007C19.2818 77.6755 14.2822 78.2334 9.25805 76.0467Z" fill="#F4F4F4"/>
<path d="M2.23071 66.8821L1.83856 66.7186L1.83856 66.7186L2.23071 66.8821ZM2.25462 66.8237L2.41774 66.4313L2.80901 66.6016L2.64363 66.9949L2.25462 66.8237ZM2.248 66.8208L2.08488 67.2132L1.6952 67.0436L1.85832 66.6512L2.248 66.8208ZM3.11306 64.7397L2.72339 64.5701L2.88651 64.1777L3.27619 64.3473L3.11306 64.7397ZM3.89985 65.0821L4.10432 65.4586L3.92537 65.5567L3.73673 65.4746L3.89985 65.0821ZM20.4685 72.2932L20.3054 72.6856L20.1212 72.6055L20.0639 72.4113L20.4685 72.2932ZM21.3076 72.6584L21.4708 72.266L21.8604 72.4356L21.6973 72.828L21.3076 72.6584ZM20.4838 74.6404L20.0839 74.498L20.0885 74.4842L20.0941 74.4708L20.4838 74.6404ZM20.4249 74.8007L20.0327 74.6372L20.4249 74.8007ZM2.62287 67.0456C2.13226 68.2795 2.53491 69.8596 3.76428 71.4628C4.98404 73.0536 6.96365 74.5847 9.42117 75.6543L9.09492 76.4391C6.52826 75.3221 4.42266 73.7083 3.09903 71.9822C1.785 70.2685 1.18607 68.3596 1.83856 66.7186L2.62287 67.0456ZM2.64363 66.9949C2.63656 67.0117 2.62964 67.0286 2.62287 67.0456L1.83856 66.7186C1.84737 66.6965 1.85639 66.6744 1.86561 66.6525L2.64363 66.9949ZM2.41112 66.4284L2.41774 66.4313L2.09149 67.2161L2.08488 67.2132L2.41112 66.4284ZM3.50274 64.9093L2.63768 66.9904L1.85832 66.6512L2.72339 64.5701L3.50274 64.9093ZM3.73673 65.4746L2.94994 65.1321L3.27619 64.3473L4.06298 64.6897L3.73673 65.4746ZM13.2344 66.0285C9.61229 64.4521 6.09224 64.369 4.10432 65.4586L3.69539 64.7057C6.00227 63.4413 9.8193 63.6153 13.5607 65.2437L13.2344 66.0285ZM20.0639 72.4113C19.3986 70.1596 16.8551 67.6044 13.2344 66.0285L13.5607 65.2437C17.3035 66.8726 20.1066 69.5805 20.8731 72.1751L20.0639 72.4113ZM21.1445 73.0509L20.3054 72.6856L20.6316 71.9008L21.4708 72.266L21.1445 73.0509ZM20.0941 74.4708L20.918 72.4888L21.6973 72.828L20.8735 74.81L20.0941 74.4708ZM20.0327 74.6372C20.051 74.5911 20.0681 74.5447 20.0839 74.498L20.8837 74.7827C20.8631 74.8437 20.8409 74.9042 20.817 74.9642L20.0327 74.6372ZM9.42117 75.6543C11.8789 76.724 14.3108 77.1127 16.2458 76.8968C18.1948 76.6793 19.5436 75.8674 20.0327 74.6372L20.817 74.9642C20.1631 76.6088 18.4405 77.5132 16.3479 77.7467C14.2413 77.9818 11.6614 77.5561 9.09492 76.4391L9.42117 75.6543Z" fill="#2B2B2E"/>
<ellipse cx="9.92133" cy="5.60027" rx="9.92133" ry="5.60027" transform="matrix(-0.916922 -0.399066 -0.369582 0.929474 23.3876 67.4423)" fill="#F9F9F9" stroke="#2B2B2E" stroke-width="0.849966"/>
<ellipse cx="8.28685" cy="4.39071" rx="8.28685" ry="4.39071" transform="matrix(-0.916922 -0.399066 -0.369558 0.929484 21.4422 67.9159)" fill="#DDDDDD" stroke="#2B2B2E" stroke-width="0.849966"/>
<path fill-rule="evenodd" clip-rule="evenodd" d="M19.4628 72.6058C19.7145 70.4 17.1539 67.5069 13.3311 65.8431C9.5487 64.1969 5.82167 64.316 4.46679 66.0059C4.21502 68.2118 6.77562 71.1049 10.5984 72.7687C14.3808 74.4149 18.1079 74.2957 19.4628 72.6058Z" fill="white"/>
<path d="M19.4628 72.6058L19.8824 72.6597L19.8685 72.7822L19.792 72.8775L19.4628 72.6058ZM4.46679 66.0059L4.04713 65.9521L4.06111 65.8296L4.13753 65.7343L4.46679 66.0059ZM19.0431 72.552C19.1485 71.6287 18.665 70.4745 17.6141 69.3071C16.5747 68.1525 15.032 67.0468 13.168 66.2355L13.4942 65.4506C15.4529 66.3031 17.102 67.4759 18.2357 68.7353C19.3579 69.9818 20.0288 71.3771 19.8824 72.6597L19.0431 72.552ZM13.168 66.2355C11.3236 65.4328 9.50666 65.0672 8.00281 65.1009C6.48256 65.1349 5.36159 65.5722 4.79604 66.2776L4.13753 65.7343C4.92686 64.7498 6.34686 64.2825 7.97443 64.2461C9.61841 64.2092 11.5562 64.6072 13.4942 65.4506L13.168 66.2355ZM4.88645 66.0598C4.78107 66.9831 5.26455 68.1373 6.31544 69.3047C7.35479 70.4592 8.89749 71.565 10.7616 72.3762L10.4353 73.1611C8.47657 72.3086 6.82756 71.1359 5.69385 69.8765C4.57167 68.6299 3.90074 67.2347 4.04713 65.9521L4.88645 66.0598ZM10.7616 72.3762C12.606 73.179 14.4229 73.5446 15.9267 73.5109C17.447 73.4768 18.568 73.0396 19.1335 72.3342L19.792 72.8775C19.0027 73.862 17.5827 74.3292 15.9551 74.3657C14.3111 74.4025 12.3733 74.0046 10.4353 73.1611L10.7616 72.3762Z" fill="#2B2B2E"/>
<path fill-rule="evenodd" clip-rule="evenodd" d="M7.94976 69.9896C7.92369 69.98 7.9011 69.9496 7.89932 69.9217L7.61518 65.4681C7.6134 65.4402 7.6331 65.4253 7.65917 65.4349L8.01831 65.5664C8.04439 65.576 8.06697 65.6064 8.06876 65.6343L8.35289 70.0878C8.35467 70.1158 8.33498 70.1307 8.3089 70.1211L7.94976 69.9896ZM8.43624 68.6196C8.43802 68.6476 8.46061 68.6779 8.48669 68.6875L8.77984 68.7949C8.74031 68.6195 8.70894 68.4413 8.68555 68.2605L8.45403 68.1757C8.42795 68.1661 8.40826 68.181 8.41004 68.2089L8.43624 68.6196ZM8.93693 68.3525C8.96131 68.5353 8.99423 68.714 9.03571 68.8886L10.1073 69.2811C10.0995 69.2641 10.0918 69.2469 10.0843 69.2294C10.0195 69.0764 9.97066 68.9064 9.93794 68.7192L8.93693 68.3525ZM9.89925 68.0546L8.88911 67.6846C8.88877 67.5095 8.89966 67.3469 8.92179 67.1967L10.0438 67.6076C10.018 67.6451 9.99496 67.6873 9.97479 67.7342C9.93584 67.8225 9.91066 67.9293 9.89925 68.0546ZM10.1911 68.8119C10.2189 68.957 10.2568 69.0819 10.3019 69.1886C10.3346 69.2646 10.3693 69.3315 10.4058 69.3904L11.21 69.685C11.263 69.6222 11.3149 69.5334 11.3633 69.4127C11.3818 69.3658 11.3998 69.3153 11.4174 69.2611L10.1911 68.8119ZM11.565 68.6647L10.1542 68.1479C10.1649 68.065 10.1832 67.9966 10.2077 67.9411L10.208 67.9403L10.2084 67.9395C10.2516 67.8391 10.3087 67.7713 10.3787 67.7303L11.6682 68.2026C11.6309 68.3461 11.5969 68.4985 11.566 68.6598C11.5657 68.6614 11.5654 68.6631 11.565 68.6647ZM11.6853 69.3592C11.6578 69.4519 11.6291 69.5366 11.599 69.6132C11.5718 69.6809 11.5428 69.7417 11.512 69.7956L12.7345 70.2434C12.7779 70.0988 12.8171 69.9466 12.8523 69.7867L11.6853 69.3592ZM12.9898 69.1865L11.8248 68.7598C11.8575 68.5958 11.8935 68.4424 11.9329 68.2996L13.1465 68.7441C13.1416 68.7543 13.1366 68.7648 13.1318 68.7755C13.0831 68.8823 13.0358 69.0193 12.9898 69.1865ZM13.1133 69.8823C13.0798 70.042 13.0424 70.1949 13.001 70.341L14.4746 70.8807C14.5349 70.7899 14.5773 70.671 14.5987 70.5193C14.6028 70.4904 14.6062 70.4606 14.609 70.4301L13.1133 69.8823ZM14.5822 69.7698L13.2558 69.284C13.2918 69.1627 13.3279 69.0631 13.3638 68.9844C13.3883 68.9305 13.413 68.8864 13.4372 68.8506L14.4126 69.2078C14.4305 69.2428 14.448 69.2805 14.465 69.3211C14.514 69.441 14.5547 69.5894 14.5822 69.7698ZM14.8627 70.523C14.8591 70.5735 14.854 70.6223 14.8473 70.6696C14.8304 70.7892 14.8021 70.8947 14.7623 70.9861L15.8231 71.3747C15.8452 71.2166 15.858 71.0547 15.8614 70.8888L14.8627 70.523ZM15.828 70.2261L14.834 69.8621C14.8046 69.656 14.7583 69.4724 14.6951 69.3113L15.7451 69.6959C15.7799 69.8672 15.8075 70.0439 15.828 70.2261ZM16.113 70.981C16.1105 71.1472 16.0993 71.3097 16.0792 71.4685L16.7381 71.7098C16.7642 71.7194 16.7839 71.7045 16.7821 71.6765L16.7559 71.2658C16.7541 71.2379 16.7315 71.2075 16.7054 71.198L16.113 70.981ZM16.0789 70.318C16.0592 70.1379 16.0326 69.9615 15.999 69.7889L16.6307 70.0203C16.6568 70.0298 16.6794 70.0602 16.6812 70.0881L16.7074 70.4988C16.7091 70.5268 16.6894 70.5417 16.6634 70.5321L16.0789 70.318ZM8.66545 67.1028L8.37929 66.998C8.35322 66.9884 8.33352 67.0033 8.3353 67.0312L8.3615 67.4419C8.36329 67.4699 8.38587 67.5002 8.41195 67.5098L8.63797 67.5926C8.63688 67.4194 8.64593 67.256 8.66545 67.1028Z" fill="#2B2B2E"/>
<path d="M13.8814 68.4521C13.7082 68.3941 13.562 68.3862 13.4427 68.4285C13.3231 68.4672 13.2193 68.5831 13.1314 68.7762C13.0434 68.9693 12.9597 69.2614 12.8802 69.6526C12.7927 70.0889 12.6765 70.4711 12.5314 70.7992C12.3863 71.1273 12.1941 71.3625 11.9546 71.5049C11.7117 71.6428 11.4017 71.6485 11.0245 71.5223C10.6565 71.3991 10.3215 71.1723 10.0192 70.8417C9.71667 70.5076 9.46801 70.1042 9.27325 69.6316C9.07818 69.1554 8.95649 68.6439 8.9082 68.097C8.85773 67.5255 8.90532 67.0621 9.05097 66.7068C9.19632 66.348 9.41501 66.1062 9.70704 65.9814C9.99907 65.8566 10.2421 65.8413 10.6317 65.9717L10.8575 67.4399C10.6473 67.3695 10.4663 67.3586 10.3145 67.4071C10.1625 67.452 10.0491 67.5613 9.97441 67.7349C9.89941 67.905 9.87546 68.1435 9.90257 68.4504C9.92874 68.7468 9.9892 69.0067 10.0839 69.2302C10.1784 69.4501 10.2964 69.6317 10.4381 69.775C10.5795 69.9147 10.7321 70.0121 10.896 70.0669C11.0567 70.1207 11.1938 70.1101 11.3072 70.0351C11.4203 69.9565 11.5174 69.8161 11.5986 69.6139C11.6794 69.4081 11.7506 69.1444 11.8122 68.8226C11.9108 68.3078 12.0408 67.8942 12.2023 67.5819C12.3634 67.266 12.5701 67.0579 12.8222 66.9574C13.0713 66.8559 13.3783 66.8662 13.7431 66.9883C14.1296 67.1176 14.4721 67.3436 14.7706 67.666C15.0692 67.9885 15.311 68.3828 15.4962 68.8488C15.678 69.3102 15.7936 69.8214 15.8432 70.3824C15.8762 70.7564 15.8656 71.1124 15.8114 71.4503C15.7539 71.7837 15.65 72.0691 15.5 72.3065C15.3468 72.5428 15.142 72.7036 14.8855 72.789C14.6259 72.8733 14.4099 72.872 14.0419 72.7488L13.8152 71.27C14.0285 71.3414 14.2075 71.3637 14.3522 71.3368C14.4934 71.3053 14.6056 71.2333 14.6886 71.1207C14.7683 71.0036 14.8211 70.8535 14.8469 70.6704C14.8727 70.4873 14.8755 70.2811 14.8553 70.0517C14.8291 69.7554 14.7721 69.5 14.6841 69.2857C14.5928 69.0668 14.478 68.888 14.3397 68.7493C14.2011 68.607 14.0483 68.5079 13.8814 68.4521Z" fill="#2B2B2E"/>
<path d="M113.539 40.426L115.433 34.6204L116.184 40.6807C116.249 41.1999 116.547 41.6613 116.993 41.9337L121.136 44.4602L116.587 46.1498C116.097 46.332 115.716 46.7281 115.554 47.2254L113.66 53.031L112.909 46.9707C112.844 46.4515 112.546 45.9901 112.1 45.7177L107.957 43.1912L112.506 41.5016C112.996 41.3194 113.377 40.9233 113.539 40.426Z" fill="#F1F395" stroke="#2B2B2E" stroke-width="0.849966"/>
</svg>
