<svg width="24" height="24" viewBox="0 0 24 24" fill="none" xmlns="http://www.w3.org/2000/svg">
<path d="M12 24C18.6274 24 24 18.6274 24 12C24 5.37258 18.6274 0 12 0C5.37258 0 0 5.37258 0 12C0 18.6274 5.37258 24 12 24Z" fill="#F2F2F2"/>
<g opacity="0.5">
<path d="M17.6075 8.9997V11.9998L14.9561 10.499L12.3037 8.99863L14.9561 7.49842L17.6075 6V8.9997Z" fill="#CCCCCC"/>
<path d="M12.3038 11.9996V14.9993L9.65236 13.5L7 11.9996L9.65236 10.4994L12.3038 8.99902V11.9996Z" fill="#E3E3E3"/>
<path d="M7 8.9997V6L9.65236 7.50039L12.3038 9.0006L9.65236 10.499L7 11.9998V8.9997Z" fill="#B8B8B8"/>
<path d="M7 14.9992V12L9.65236 13.5004L12.3038 15.0006L9.65236 16.499L7 17.9994V14.9992Z" fill="#CCCCCC"/>
<path d="M14.9561 10.4994L12.3037 8.99902V14.9993L14.9561 16.4995L17.6075 17.9999V12.0002L14.9561 10.4994Z" fill="#B8B8B8"/>
</g>
</svg>
