<svg width="78" height="36" viewBox="0 0 78 36" fill="none" xmlns="http://www.w3.org/2000/svg">
<path d="M16 7H67C73.0751 7 78 11.9249 78 18C78 24.0751 73.0751 29 67 29H16V7Z" fill="#062F38"/>
<path d="M37.9896 23L37.1757 13.2029H39.7078L39.8887 17.7849C39.9088 18.2974 39.9239 18.8149 39.9339 19.3374C39.944 19.8499 39.949 20.3673 39.949 20.8899H40.0093C40.2303 20.3673 40.4464 19.8499 40.6574 19.3374C40.8684 18.8249 41.0844 18.3074 41.3055 17.7849L43.2951 13.2029H45.9478L40.9136 23H37.9896ZM45.0762 23L47.0356 13.2029H49.4472L47.4878 23H45.0762ZM49.7716 23L51.7311 13.2029H54.9566C55.6097 13.2029 56.1975 13.2933 56.72 13.4742C57.2426 13.645 57.6545 13.9264 57.956 14.3183C58.2675 14.7101 58.4232 15.2327 58.4232 15.8858C58.4232 16.5992 58.2976 17.2071 58.0464 17.7096C57.8053 18.212 57.4686 18.6189 57.0366 18.9304C56.6045 19.2319 56.1121 19.4529 55.5595 19.5936C55.0068 19.7343 54.424 19.8046 53.8111 19.8046H52.8163L52.1832 23H49.7716ZM53.2082 17.9055H54.0974C54.7204 17.9055 55.1977 17.7648 55.5293 17.4835C55.871 17.2021 56.0418 16.7901 56.0418 16.2475C56.0418 15.8557 55.9162 15.5693 55.665 15.3884C55.4138 15.1975 55.0671 15.102 54.625 15.102H53.7508L53.2082 17.9055ZM65.2345 23.1809C64.6014 23.1809 64.0538 23.0352 63.5916 22.7438C63.1293 22.4524 62.7676 22.0454 62.5063 21.5229C62.2551 21.0004 62.1295 20.3975 62.1295 19.7142C62.1295 18.7697 62.2551 17.9055 62.5063 17.1217C62.7676 16.338 63.1193 15.6597 63.5614 15.087C64.0136 14.5042 64.5361 14.057 65.1289 13.7455C65.7318 13.424 66.3699 13.2632 67.0432 13.2632C67.636 13.2632 68.1183 13.4039 68.4901 13.6852C68.8719 13.9565 69.1834 14.268 69.4246 14.6197L68.0681 15.8557C67.9375 15.6748 67.7767 15.519 67.5858 15.3884C67.3948 15.2578 67.1637 15.1925 66.8924 15.1925C66.591 15.1925 66.2895 15.2929 65.9881 15.4939C65.6967 15.6949 65.4254 15.9963 65.1742 16.3983C64.933 16.7901 64.7371 17.2875 64.5863 17.8904C64.4356 18.4833 64.3603 19.1766 64.3603 19.9704C64.3603 20.2819 64.4004 20.5482 64.4808 20.7693C64.5713 20.9803 64.6918 21.1411 64.8426 21.2516C64.9933 21.3521 65.1641 21.4023 65.355 21.4023C65.6263 21.4023 65.8474 21.3069 66.0182 21.1159C66.189 20.925 66.3096 20.6939 66.38 20.4226C66.4604 20.1513 66.5005 19.9001 66.5005 19.669C66.5005 19.3273 66.4252 19.0661 66.2745 18.8852C66.1338 18.6943 65.9278 18.5988 65.6565 18.5988C65.5259 18.5988 65.3852 18.629 65.2345 18.6893C65.0938 18.7496 64.9431 18.85 64.7823 18.9907C64.6215 19.1314 64.4507 19.3223 64.2698 19.5635L64.4959 17.8754C64.7572 17.584 65.0636 17.3629 65.4153 17.2122C65.767 17.0514 66.0685 16.971 66.3197 16.971C66.7618 16.971 67.1637 17.0564 67.5255 17.2272C67.8872 17.3981 68.1736 17.6694 68.3846 18.0412C68.5956 18.4029 68.7011 18.8802 68.7011 19.473C68.7011 19.9353 68.6157 20.3874 68.4449 20.8296C68.2841 21.2717 68.048 21.6686 67.7365 22.0203C67.425 22.372 67.0582 22.6533 66.6362 22.8643C66.2142 23.0754 65.7469 23.1809 65.2345 23.1809Z" fill="#B1FFF1"/>
<path d="M7.87524 9.75C7.87524 9.65054 7.91475 9.55516 7.98508 9.48484L14.7351 2.73484C14.8054 2.66451 14.9008 2.625 15.0002 2.625L21.0002 2.625C21.0997 2.625 21.1951 2.66451 21.2654 2.73484L28.0154 9.48484C28.0857 9.55516 28.1252 9.65054 28.1252 9.75L28.1252 26.25C28.1252 26.3495 28.0857 26.4448 28.0154 26.5152L21.2654 33.2652C21.1951 33.3355 21.0997 33.375 21.0002 33.375L15.0002 33.375C14.9008 33.375 14.8054 33.3355 14.7351 33.2652L7.98508 26.5152C7.91475 26.4448 7.87524 26.3495 7.87524 26.25L7.87524 9.75Z" fill="#4DCDB6" stroke="#02476F" stroke-width="0.75" stroke-linejoin="round"/>
<path d="M8.25024 26.25L8.25024 9.75L13.8752 11.625L13.8752 24.375L8.25024 26.25Z" fill="#61E9C0"/>
<path d="M15.0002 3L8.25024 9.75001L13.8752 11.625L18.0002 6.75L21.0002 3L15.0002 3Z" fill="#B1FFF1"/>
<path d="M22.1252 24.375L18.0002 29.25L15.0002 33L21.0002 33L27.7502 26.25L27.7502 9.75L21.0002 3L18.0002 6.75L22.1252 11.625L22.1252 24.375Z" fill="#1EB5AC"/>
<path d="M27.75 9.75L27.75 26.25L22.125 24.375L22.125 11.625L27.75 9.75Z" fill="#2E90A6"/>
<circle cx="26.2499" cy="13.5004" r="0.75" fill="#3AA2B9"/>
<circle cx="25.3125" cy="16.6879" r="0.5625" fill="#3AA2B9"/>
<circle cx="26.6251" cy="15.7501" r="0.375" fill="#3AA2B9"/>
<circle cx="24.7499" cy="14.6251" r="0.375" fill="#3AA2B9"/>
<circle cx="26.6251" cy="11.2501" r="0.375" fill="#3AA2B9"/>
<circle cx="26.6251" cy="20.2501" r="0.375" fill="#3AA2B9"/>
<circle cx="26.6251" cy="18.3752" r="0.375" fill="#3AA2B9"/>
<path d="M13.8752 11.6251L13.8752 24.3751L18.0002 29.2501L22.1252 24.3927L22.1252 11.6251L18.0002 6.75012L13.8752 11.6251Z" fill="#63EAD1"/>
<path d="M13.8752 24.3751L13.8752 11.6251L18.0002 6.75012L22.1252 11.6251L13.8752 24.3751Z" fill="#84F8E3"/>
<path d="M18.0001 7.87512L14.6251 12.0001V19.8751" stroke="#DFFFF9" stroke-width="0.75" stroke-linecap="round" stroke-linejoin="round"/>
<path d="M9.00012 10.875V25.125" stroke="#70FFE5" stroke-width="0.75" stroke-linecap="round" stroke-linejoin="round"/>
<circle cx="24.9376" cy="27.1876" r="0.5625" fill="#0FA299"/>
<circle cx="21.1879" cy="30.9377" r="0.5625" fill="#0FA299"/>
<circle cx="22.6876" cy="29.4376" r="0.5625" fill="#0FA299"/>
<circle cx="21.0004" cy="28.5002" r="0.375" fill="#0FA299"/>
<circle cx="23.6251" cy="28.5002" r="0.375" fill="#0FA299"/>
<circle cx="22.5004" cy="27.0004" r="0.75" fill="#0FA299"/>
<path d="M9.75 9.37524L15.375 3.75024" stroke="#E6FFFA" stroke-width="0.75" stroke-linecap="round" stroke-linejoin="round"/>
<path d="M21.895 14.7955H18.6401C18.6401 14.1886 18.6321 13.8073 18.616 13.6515C18.6052 13.4904 18.5408 13.3561 18.4226 13.2487C18.3098 13.1412 18.1541 13.0875 17.9553 13.0875C17.7888 13.0875 17.6519 13.1385 17.5444 13.2406C17.437 13.3427 17.3752 13.4742 17.3591 13.6354C17.343 13.7965 17.335 14.1215 17.335 14.6102V16.6888C17.5015 16.3397 17.7458 16.0792 18.0681 15.9073C18.3904 15.7301 18.7878 15.6415 19.2605 15.6415C19.8567 15.6415 20.3831 15.8026 20.8396 16.1249C21.2961 16.4471 21.5862 16.8339 21.7097 17.285C21.8333 17.7362 21.895 18.3458 21.895 19.1139V20.1532C21.895 21.0663 21.8601 21.7457 21.7903 22.1915C21.7205 22.6373 21.5325 23.0509 21.2263 23.4323C20.9255 23.8082 20.5093 24.101 19.9775 24.3104C19.4512 24.5199 18.8362 24.6246 18.1326 24.6246C17.2571 24.6246 16.54 24.5038 15.9814 24.2621C15.4229 24.0204 14.9905 23.674 14.6843 23.2228C14.3835 22.7662 14.2063 22.2882 14.1526 21.7887C14.1042 21.2892 14.0801 20.3197 14.0801 18.8802V17.0756C14.0801 15.5233 14.1016 14.4867 14.1445 13.9657C14.1929 13.4393 14.3809 12.9425 14.7085 12.4752C15.0361 12.0079 15.4819 11.6588 16.0459 11.4279C16.6152 11.1915 17.2705 11.0734 18.0117 11.0734C18.9248 11.0734 19.6741 11.2211 20.2595 11.5165C20.845 11.8119 21.2639 12.2281 21.5164 12.7653C21.7688 13.3024 21.895 13.9791 21.895 14.7955ZM18.6401 18.8641C18.6401 18.4022 18.5891 18.0853 18.4871 17.9135C18.385 17.7416 18.2185 17.6556 17.9875 17.6556C17.762 17.6556 17.5955 17.7389 17.488 17.9054C17.386 18.0665 17.335 18.3861 17.335 18.8641V21.2247C17.335 21.7994 17.3833 22.1754 17.48 22.3527C17.582 22.5299 17.7485 22.6185 17.9795 22.6185C18.1191 22.6185 18.2642 22.5514 18.4146 22.4171C18.5649 22.2775 18.6401 21.9069 18.6401 21.3053V18.8641Z" fill="#0B4654"/>
</svg>
