<svg width="78" height="36" viewBox="0 0 78 36" fill="none" xmlns="http://www.w3.org/2000/svg">
<path d="M16 7H67C73.0751 7 78 11.9249 78 18C78 24.0751 73.0751 29 67 29H16V7Z" fill="#190043"/>
<path d="M37.9896 23L37.1757 13.2029H39.7078L39.8887 17.7849C39.9088 18.2974 39.9239 18.8149 39.9339 19.3374C39.944 19.8499 39.949 20.3673 39.949 20.8899H40.0093C40.2303 20.3673 40.4464 19.8499 40.6574 19.3374C40.8684 18.8249 41.0844 18.3074 41.3055 17.7849L43.2951 13.2029H45.9478L40.9136 23H37.9896ZM45.0762 23L47.0356 13.2029H49.4472L47.4878 23H45.0762ZM49.7716 23L51.7311 13.2029H54.9566C55.6097 13.2029 56.1975 13.2933 56.72 13.4742C57.2426 13.645 57.6545 13.9264 57.956 14.3183C58.2675 14.7101 58.4232 15.2327 58.4232 15.8858C58.4232 16.5992 58.2976 17.2071 58.0464 17.7096C57.8053 18.212 57.4686 18.6189 57.0366 18.9304C56.6045 19.2319 56.1121 19.4529 55.5595 19.5936C55.0068 19.7343 54.424 19.8046 53.8111 19.8046H52.8163L52.1832 23H49.7716ZM53.2082 17.9055H54.0974C54.7204 17.9055 55.1977 17.7648 55.5293 17.4835C55.871 17.2021 56.0418 16.7901 56.0418 16.2475C56.0418 15.8557 55.9162 15.5693 55.665 15.3884C55.4138 15.1975 55.0671 15.102 54.625 15.102H53.7508L53.2082 17.9055ZM62.7626 23C63.064 21.9751 63.4006 21.0205 63.7724 20.1362C64.1442 19.252 64.5713 18.423 65.0536 17.6493C65.5359 16.8756 66.0986 16.1471 66.7417 15.4638H62.7324L63.1243 13.4441H69.8165L69.515 14.9513C68.7815 15.6446 68.1686 16.338 67.6762 17.0313C67.1939 17.7246 66.797 18.4129 66.4855 19.0962C66.184 19.7695 65.9328 20.4327 65.7318 21.0858C65.5409 21.7389 65.3751 22.377 65.2345 23H62.7626Z" fill="#EC8BEE"/>
<path d="M8.25 9.75L8.25 26.25L15 33L21 33L27.75 26.25L27.75 9.75L21 3L15 3L8.25 9.75Z" fill="#BE62E9"/>
<path fill-rule="evenodd" clip-rule="evenodd" d="M7.71967 9.21967C7.57902 9.36032 7.5 9.55109 7.5 9.75L7.5 26.25C7.5 26.4489 7.57902 26.6397 7.71967 26.7803L14.4697 33.5303C14.6103 33.671 14.8011 33.75 15 33.75L21 33.75C21.1989 33.75 21.3897 33.671 21.5303 33.5303L28.2803 26.7803C28.421 26.6397 28.5 26.4489 28.5 26.25L28.5 9.75C28.5 9.55109 28.421 9.36032 28.2803 9.21967L21.5303 2.46967C21.3897 2.32902 21.1989 2.25 21 2.25L15 2.25C14.8011 2.25 14.6103 2.32902 14.4697 2.46967L7.71967 9.21967ZM15 3L8.25 9.75L8.25 26.25L15 33L21 33L27.75 26.25L27.75 9.75L21 3L15 3Z" fill="#1D0576"/>
<path d="M8.25 26.25L8.25 9.75L13.875 11.625L13.875 24.375L8.25 26.25Z" fill="#EC8BEE"/>
<path d="M15 3L8.25 9.75001L13.875 11.625L18 6.75L21 3L15 3Z" fill="#E7C1FF"/>
<path d="M22.125 24.375L18 29.25L15 33L21 33L27.75 26.25L27.75 9.75L21 3L18 6.75L22.125 11.625L22.125 24.375Z" fill="#A653F9"/>
<path d="M27.75 9.75L27.75 26.25L22.125 24.375L22.125 11.625L27.75 9.75Z" fill="#7233DA"/>
<path d="M27 13.5C27 13.9142 26.6642 14.25 26.25 14.25C25.8358 14.25 25.5 13.9142 25.5 13.5C25.5 13.0858 25.8358 12.75 26.25 12.75C26.6642 12.75 27 13.0858 27 13.5Z" fill="#8949F2"/>
<path d="M25.875 16.6875C25.875 16.9982 25.6232 17.25 25.3125 17.25C25.0018 17.25 24.75 16.9982 24.75 16.6875C24.75 16.3768 25.0018 16.125 25.3125 16.125C25.6232 16.125 25.875 16.3768 25.875 16.6875Z" fill="#8949F2"/>
<path d="M27 15.75C27 15.9571 26.8321 16.125 26.625 16.125C26.4179 16.125 26.25 15.9571 26.25 15.75C26.25 15.5429 26.4179 15.375 26.625 15.375C26.8321 15.375 27 15.5429 27 15.75Z" fill="#8949F2"/>
<path d="M25.125 14.625C25.125 14.8321 24.9571 15 24.75 15C24.5429 15 24.375 14.8321 24.375 14.625C24.375 14.4179 24.5429 14.25 24.75 14.25C24.9571 14.25 25.125 14.4179 25.125 14.625Z" fill="#8949F2"/>
<path d="M27 11.25C27 11.4571 26.8321 11.625 26.625 11.625C26.4179 11.625 26.25 11.4571 26.25 11.25C26.25 11.0429 26.4179 10.875 26.625 10.875C26.8321 10.875 27 11.0429 27 11.25Z" fill="#8949F2"/>
<path d="M27 20.25C27 20.4571 26.8321 20.625 26.625 20.625C26.4179 20.625 26.25 20.4571 26.25 20.25C26.25 20.0429 26.4179 19.875 26.625 19.875C26.8321 19.875 27 20.0429 27 20.25Z" fill="#8949F2"/>
<path d="M27 18.375C27 18.5821 26.8321 18.75 26.625 18.75C26.4179 18.75 26.25 18.5821 26.25 18.375C26.25 18.1679 26.4179 18 26.625 18C26.8321 18 27 18.1679 27 18.375Z" fill="#8949F2"/>
<path d="M13.875 11.625L13.875 24.375L18 29.25L22.125 24.3926L22.125 11.625L18 6.75L13.875 11.625Z" fill="#C86DFF"/>
<path d="M13.875 24.375L13.875 11.625L18 6.75L22.125 11.625L13.875 24.375Z" fill="#DA9DFF"/>
<path fill-rule="evenodd" clip-rule="evenodd" d="M18.2375 7.58478C18.3978 7.71593 18.4214 7.95218 18.2902 8.11248L15 12.1339V19.875C15 20.0821 14.8321 20.25 14.625 20.25C14.4179 20.25 14.25 20.0821 14.25 19.875V12C14.25 11.9134 14.2799 11.8295 14.3348 11.7625L17.7098 7.63755C17.8409 7.47726 18.0772 7.45363 18.2375 7.58478Z" fill="#EAC8FF"/>
<path fill-rule="evenodd" clip-rule="evenodd" d="M9 10.5C9.20711 10.5 9.375 10.6679 9.375 10.875V25.125C9.375 25.3321 9.20711 25.5 9 25.5C8.79289 25.5 8.625 25.3321 8.625 25.125V10.875C8.625 10.6679 8.79289 10.5 9 10.5Z" fill="#F3A7FF"/>
<path fill-rule="evenodd" clip-rule="evenodd" d="M15.6402 3.48483C15.7866 3.63128 15.7866 3.86872 15.6402 4.01517L10.0152 9.64017C9.86872 9.78661 9.63128 9.78661 9.48483 9.64017C9.33839 9.49372 9.33839 9.25628 9.48483 9.10984L15.1098 3.48483C15.2563 3.33839 15.4937 3.33839 15.6402 3.48483Z" fill="#F4E2FF"/>
<path d="M25.5 27.1875C25.5 27.4982 25.2482 27.75 24.9375 27.75C24.6268 27.75 24.375 27.4982 24.375 27.1875C24.375 26.8768 24.6268 26.625 24.9375 26.625C25.2482 26.625 25.5 26.8768 25.5 27.1875Z" fill="#933FE7"/>
<path d="M21.75 30.9375C21.75 31.2482 21.4982 31.5 21.1875 31.5C20.8768 31.5 20.625 31.2482 20.625 30.9375C20.625 30.6268 20.8768 30.375 21.1875 30.375C21.4982 30.375 21.75 30.6268 21.75 30.9375Z" fill="#933FE7"/>
<path d="M23.25 29.4375C23.25 29.7482 22.9982 30 22.6875 30C22.3768 30 22.125 29.7482 22.125 29.4375C22.125 29.1268 22.3768 28.875 22.6875 28.875C22.9982 28.875 23.25 29.1268 23.25 29.4375Z" fill="#933FE7"/>
<path d="M21.375 28.5C21.375 28.7071 21.2071 28.875 21 28.875C20.7929 28.875 20.625 28.7071 20.625 28.5C20.625 28.2929 20.7929 28.125 21 28.125C21.2071 28.125 21.375 28.2929 21.375 28.5Z" fill="#933FE7"/>
<path d="M24 28.5C24 28.7071 23.8321 28.875 23.625 28.875C23.4179 28.875 23.25 28.7071 23.25 28.5C23.25 28.2929 23.4179 28.125 23.625 28.125C23.8321 28.125 24 28.2929 24 28.5Z" fill="#933FE7"/>
<path d="M23.25 27C23.25 27.4142 22.9142 27.75 22.5 27.75C22.0858 27.75 21.75 27.4142 21.75 27C21.75 26.5858 22.0858 26.25 22.5 26.25C22.9142 26.25 23.25 26.5858 23.25 27Z" fill="#933FE7"/>
<path d="M21.3164 11.3313V14.1753L19.2378 24.375H15.999L18.3113 13.6758H15.0967V11.3313H21.3164Z" fill="#24005F"/>
</svg>
