<svg width="78" height="36" viewBox="0 0 78 36" fill="none" xmlns="http://www.w3.org/2000/svg">
<path d="M16 7H67C73.0751 7 78 11.9249 78 18C78 24.0751 73.0751 29 67 29H16V7Z" fill="#463004"/>
<path d="M37.9896 23L37.1757 13.2029H39.7078L39.8887 17.7849C39.9088 18.2974 39.9239 18.8149 39.9339 19.3374C39.944 19.8499 39.949 20.3673 39.949 20.8899H40.0093C40.2303 20.3673 40.4464 19.8499 40.6574 19.3374C40.8684 18.8249 41.0844 18.3074 41.3055 17.7849L43.2951 13.2029H45.9478L40.9136 23H37.9896ZM45.0762 23L47.0356 13.2029H49.4472L47.4878 23H45.0762ZM49.7716 23L51.7311 13.2029H54.9566C55.6097 13.2029 56.1975 13.2933 56.72 13.4742C57.2426 13.645 57.6545 13.9264 57.956 14.3183C58.2675 14.7101 58.4232 15.2327 58.4232 15.8858C58.4232 16.5992 58.2976 17.2071 58.0464 17.7096C57.8053 18.212 57.4686 18.6189 57.0366 18.9304C56.6045 19.2319 56.1121 19.4529 55.5595 19.5936C55.0068 19.7343 54.424 19.8046 53.8111 19.8046H52.8163L52.1832 23H49.7716ZM53.2082 17.9055H54.0974C54.7204 17.9055 55.1977 17.7648 55.5293 17.4835C55.871 17.2021 56.0418 16.7901 56.0418 16.2475C56.0418 15.8557 55.9162 15.5693 55.665 15.3884C55.4138 15.1975 55.0671 15.102 54.625 15.102H53.7508L53.2082 17.9055ZM64.5713 23.1809C64.1894 23.1809 63.8076 23.1256 63.4258 23.0151C63.0439 22.9045 62.6721 22.7237 62.3104 22.4725C61.9587 22.2112 61.6271 21.8645 61.3156 21.4325L62.8229 20.1965C62.9937 20.4276 63.1746 20.6236 63.3655 20.7843C63.5564 20.9351 63.7523 21.0506 63.9533 21.131C64.1643 21.2114 64.3804 21.2516 64.6014 21.2516C64.8627 21.2516 65.1038 21.1963 65.3249 21.0858C65.556 20.9652 65.7369 20.7944 65.8675 20.5733C66.0082 20.3422 66.0785 20.0659 66.0785 19.7443C66.0785 19.3625 65.978 19.0761 65.7771 18.8852C65.5761 18.6943 65.2947 18.5988 64.933 18.5988C64.7119 18.5988 64.516 18.624 64.3452 18.6742C64.1844 18.7244 63.9382 18.84 63.6066 19.0209L62.7324 18.2974L63.9081 13.4441H69.304L68.9121 15.4638H65.5962L65.1742 16.971C65.3148 16.9107 65.4455 16.8705 65.5661 16.8504C65.6967 16.8303 65.8273 16.8203 65.9579 16.8203C66.6814 16.8203 67.2893 17.0363 67.7817 17.4684C68.2741 17.8904 68.5203 18.5185 68.5203 19.3525C68.5203 19.9453 68.4097 20.4779 68.1887 20.9501C67.9676 21.4224 67.6661 21.8243 67.2843 22.1559C66.9125 22.4875 66.4905 22.7438 66.0182 22.9246C65.556 23.0955 65.0737 23.1809 64.5713 23.1809Z" fill="#F0A347"/>
<path d="M32.625 13.875L18 31.875L3.375 13.875L11.25 4.875H24.75L32.625 13.875Z" fill="#FFB547"/>
<path fill-rule="evenodd" clip-rule="evenodd" d="M18 32.625C17.7742 32.625 17.5603 32.5232 17.4179 32.3479L2.79291 14.3479C2.56253 14.0644 2.56998 13.6561 2.81057 13.3811L10.6856 4.38112C10.828 4.21836 11.0337 4.125 11.25 4.125H24.75C24.9663 4.125 25.172 4.21836 25.3144 4.38112L33.1894 13.3811C33.43 13.6561 33.4375 14.0644 33.2071 14.3479L18.5821 32.3479C18.4397 32.5232 18.2258 32.625 18 32.625ZM11.25 4.875H24.75L32.625 13.875L18 31.875L3.375 13.875L11.25 4.875Z" fill="#604104"/>
<path d="M24.75 4.875L32.625 13.875H3.375L11.25 4.875H24.75Z" fill="#FFC368"/>
<path d="M32.625 13.875L18 31.875V4.875H24.75L32.625 13.875Z" fill="#E39130"/>
<path d="M32.625 13.875H18V4.875H24.75L32.625 13.875Z" fill="#FAA847"/>
<path d="M3.375 13.875L18 31.875L10.5 13.875L18 4.875H11.25L3.375 13.875Z" fill="#FFCB7C"/>
<path d="M11.625 4.875L3.375 13.875H10.5L18 4.875H11.625Z" fill="#FFDBA5"/>
<path d="M3.375 13.875L18 31.875L6 13.875L13.875 4.875H11.25L3.375 13.875Z" fill="#FFEEC1"/>
<path d="M11.25 4.875L3.375 13.875H6L13.875 4.875H11.25Z" fill="#FFF1CB"/>
<path d="M32.625 13.875L18 31.875L25.5 13.875L18 4.875H24.75L32.625 13.875Z" fill="#CA693F"/>
<path d="M24.75 4.875L32.625 13.875H25.5L18 4.875H24.75Z" fill="#DC794F"/>
<path d="M32.625 13.875L18 31.875L30 13.875L22.125 4.875H24.75L32.625 13.875Z" fill="#E39130"/>
<path d="M24.75 4.875L32.625 13.875H30L22.125 4.875H24.75Z" fill="#F0A347"/>
<path fill-rule="evenodd" clip-rule="evenodd" d="M9.9956 7.21662C10.1521 7.35226 10.169 7.5891 10.0334 7.7456L5.15839 13.3706C5.02275 13.5271 4.78592 13.544 4.62941 13.4084C4.4729 13.2727 4.45598 13.0359 4.59162 12.8794L9.46662 7.25441C9.60226 7.0979 9.8391 7.08098 9.9956 7.21662Z" fill="white"/>
<path fill-rule="evenodd" clip-rule="evenodd" d="M17.1206 7.21662C17.2771 7.35226 17.294 7.5891 17.1584 7.7456L12.2834 13.3706C12.1477 13.5271 11.9109 13.544 11.7544 13.4084C11.5979 13.2727 11.581 13.0359 11.7166 12.8794L16.5916 7.25441C16.7273 7.0979 16.9641 7.08098 17.1206 7.21662Z" fill="#FFD596"/>
<path d="M21.375 18.75C21.375 18.9571 21.2071 19.125 21 19.125C20.7929 19.125 20.625 18.9571 20.625 18.75C20.625 18.5429 20.7929 18.375 21 18.375C21.2071 18.375 21.375 18.5429 21.375 18.75Z" fill="#CA8028"/>
<path d="M22.5 20.25C22.5 20.4571 22.3321 20.625 22.125 20.625C21.9179 20.625 21.75 20.4571 21.75 20.25C21.75 20.0429 21.9179 19.875 22.125 19.875C22.3321 19.875 22.5 20.0429 22.5 20.25Z" fill="#CA8028"/>
<path d="M21 22.125C21 22.3321 20.8321 22.5 20.625 22.5C20.4179 22.5 20.25 22.3321 20.25 22.125C20.25 21.9179 20.4179 21.75 20.625 21.75C20.8321 21.75 21 21.9179 21 22.125Z" fill="#CA8028"/>
<path d="M19.875 22.875C19.875 23.0821 19.7071 23.25 19.5 23.25C19.2929 23.25 19.125 23.0821 19.125 22.875C19.125 22.6679 19.2929 22.5 19.5 22.5C19.7071 22.5 19.875 22.6679 19.875 22.875Z" fill="#CA8028"/>
<path d="M19.875 25.125C19.875 25.3321 19.7071 25.5 19.5 25.5C19.2929 25.5 19.125 25.3321 19.125 25.125C19.125 24.9179 19.2929 24.75 19.5 24.75C19.7071 24.75 19.875 24.9179 19.875 25.125Z" fill="#CA8028"/>
<path d="M20.25 17.625C20.25 17.8321 20.0821 18 19.875 18C19.6679 18 19.5 17.8321 19.5 17.625C19.5 17.4179 19.6679 17.25 19.875 17.25C20.0821 17.25 20.25 17.4179 20.25 17.625Z" fill="#CA8028"/>
<path d="M23.25 16.875C23.25 17.0821 23.0821 17.25 22.875 17.25C22.6679 17.25 22.5 17.0821 22.5 16.875C22.5 16.6679 22.6679 16.5 22.875 16.5C23.0821 16.5 23.25 16.6679 23.25 16.875Z" fill="#CA8028"/>
<path d="M21.75 16.6875C21.75 16.9982 21.4982 17.25 21.1875 17.25C20.8768 17.25 20.625 16.9982 20.625 16.6875C20.625 16.3768 20.8768 16.125 21.1875 16.125C21.4982 16.125 21.75 16.3768 21.75 16.6875Z" fill="#CA8028"/>
<path d="M21 20.4375C21 20.7482 20.7482 21 20.4375 21C20.1268 21 19.875 20.7482 19.875 20.4375C19.875 20.1268 20.1268 19.875 20.4375 19.875C20.7482 19.875 21 20.1268 21 20.4375Z" fill="#CA8028"/>
<path d="M21.561 9.8313V11.918H17.5247V14.1335C18.0295 13.5374 18.6794 13.2393 19.4744 13.2393C20.3713 13.2393 21.0481 13.4917 21.5046 13.9966C21.9666 14.4961 22.1975 15.4602 22.1975 16.8889V18.75C22.1975 19.6738 22.1519 20.3533 22.0605 20.7883C21.9746 21.218 21.7866 21.6182 21.4966 21.9888C21.2065 22.354 20.801 22.636 20.28 22.8347C19.7644 23.0281 19.1333 23.1248 18.3867 23.1248C17.5488 23.1248 16.8103 22.9797 16.1711 22.6897C15.532 22.3943 15.0781 21.9565 14.8096 21.3765C14.541 20.7964 14.4067 19.8994 14.4067 18.6855V17.9766H17.6616V18.7903C17.6616 19.6335 17.6912 20.2324 17.7502 20.5869C17.8093 20.9414 18.0134 21.1187 18.3625 21.1187C18.5237 21.1187 18.6526 21.0676 18.7493 20.9656C18.8513 20.8635 18.905 20.7534 18.9104 20.6353C18.9211 20.5171 18.9319 20.0042 18.9426 19.0964V16.5103C18.9426 16.0215 18.8916 15.6885 18.7896 15.5112C18.6875 15.334 18.5183 15.2454 18.282 15.2454C18.1316 15.2454 18.0054 15.291 17.9033 15.3823C17.8013 15.4736 17.7341 15.573 17.7019 15.6804C17.675 15.7825 17.6616 16.0242 17.6616 16.4055H14.439L14.5759 9.8313H21.561Z" fill="#604104"/>
</svg>
