<svg width="76" height="36" viewBox="0 0 76 36" fill="none" xmlns="http://www.w3.org/2000/svg">
<path d="M14 7H65C71.0751 7 76 11.9249 76 18C76 24.0751 71.0751 29 65 29H14V7Z" fill="#503500"/>
<path d="M35.9896 23L35.1757 13.2029H37.7078L37.8887 17.7849C37.9088 18.2974 37.9239 18.8149 37.9339 19.3374C37.944 19.8499 37.949 20.3673 37.949 20.8899H38.0093C38.2303 20.3673 38.4464 19.8499 38.6574 19.3374C38.8684 18.8249 39.0844 18.3074 39.3055 17.7849L41.2951 13.2029H43.9478L38.9136 23H35.9896ZM43.0762 23L45.0356 13.2029H47.4472L45.4878 23H43.0762ZM47.7716 23L49.7311 13.2029H52.9566C53.6097 13.2029 54.1975 13.2933 54.72 13.4742C55.2426 13.645 55.6545 13.9264 55.956 14.3183C56.2675 14.7101 56.4232 15.2327 56.4232 15.8858C56.4232 16.5992 56.2976 17.2071 56.0464 17.7096C55.8053 18.212 55.4686 18.6189 55.0366 18.9304C54.6045 19.2319 54.1121 19.4529 53.5595 19.5936C53.0068 19.7343 52.424 19.8046 51.8111 19.8046H50.8163L50.1832 23H47.7716ZM51.2082 17.9055H52.0974C52.7204 17.9055 53.1977 17.7648 53.5293 17.4835C53.871 17.2021 54.0418 16.7901 54.0418 16.2475C54.0418 15.8557 53.9162 15.5693 53.665 15.3884C53.4138 15.1975 53.0671 15.102 52.625 15.102H51.7508L51.2082 17.9055ZM59.1649 23L59.4663 21.4928C60.1697 20.9602 60.8178 20.4578 61.4107 19.9855C62.0136 19.5032 62.5361 19.046 62.9782 18.6139C63.4304 18.1718 63.7821 17.7498 64.0333 17.3478C64.2845 16.9358 64.4101 16.5389 64.4101 16.1571C64.4101 15.8557 64.3247 15.6145 64.1539 15.4336C63.9831 15.2528 63.7369 15.1623 63.4153 15.1623C63.1641 15.1623 62.928 15.2276 62.7069 15.3583C62.4959 15.4889 62.2598 15.6547 61.9985 15.8557L60.9133 14.4991C61.3856 14.0871 61.8528 13.7807 62.315 13.5797C62.7873 13.3687 63.2546 13.2632 63.7168 13.2632C64.6513 13.2632 65.3898 13.5043 65.9324 13.9867C66.4851 14.469 66.7614 15.1121 66.7614 15.9159C66.7614 16.3983 66.6609 16.8605 66.46 17.3026C66.269 17.7347 65.9977 18.1567 65.6461 18.5687C65.2944 18.9807 64.8874 19.3977 64.4252 19.8197C63.973 20.2317 63.4857 20.6587 62.9632 21.1009C63.2043 21.0707 63.4756 21.0456 63.7771 21.0255C64.0886 20.9954 64.3498 20.9803 64.5608 20.9803H66.1585L65.7666 23H59.1649Z" fill="#FFCB7C"/>
<path d="M4.5 18L18 31.5L31.5 18L18 4.5L4.5 18Z" fill="#FFB547"/>
<path fill-rule="evenodd" clip-rule="evenodd" d="M3.96967 17.4697C3.67678 17.7626 3.67678 18.2374 3.96967 18.5303L17.4697 32.0303C17.7626 32.3232 18.2374 32.3232 18.5303 32.0303L32.0303 18.5303C32.171 18.3897 32.25 18.1989 32.25 18C32.25 17.8011 32.171 17.6103 32.0303 17.4697L18.5303 3.96967C18.3897 3.82902 18.1989 3.75 18 3.75C17.8011 3.75 17.6103 3.82902 17.4697 3.96967L3.96967 17.4697ZM4.5 18L18 31.5L31.5 18L18 4.5L4.5 18Z" fill="#604104"/>
<path d="M22.125 21.375C22.125 21.5821 21.9571 21.75 21.75 21.75C21.5429 21.75 21.375 21.5821 21.375 21.375C21.375 21.1679 21.5429 21 21.75 21C21.9571 21 22.125 21.1679 22.125 21.375Z" fill="#E6A13B"/>
<path d="M22.125 22.875C22.125 23.0821 21.9571 23.25 21.75 23.25C21.5429 23.25 21.375 23.0821 21.375 22.875C21.375 22.6679 21.5429 22.5 21.75 22.5C21.9571 22.5 22.125 22.6679 22.125 22.875Z" fill="#E6A13B"/>
<path d="M20.625 24.375C20.625 24.5821 20.4571 24.75 20.25 24.75C20.0429 24.75 19.875 24.5821 19.875 24.375C19.875 24.1679 20.0429 24 20.25 24C20.4571 24 20.625 24.1679 20.625 24.375Z" fill="#E6A13B"/>
<path d="M19.5 25.875C19.5 26.0821 19.3321 26.25 19.125 26.25C18.9179 26.25 18.75 26.0821 18.75 25.875C18.75 25.6679 18.9179 25.5 19.125 25.5C19.3321 25.5 19.5 25.6679 19.5 25.875Z" fill="#E6A13B"/>
<path d="M20.25 20.25C20.25 20.4571 20.0821 20.625 19.875 20.625C19.6679 20.625 19.5 20.4571 19.5 20.25C19.5 20.0429 19.6679 19.875 19.875 19.875C20.0821 19.875 20.25 20.0429 20.25 20.25Z" fill="#E6A13B"/>
<path d="M24 19.125C24 19.3321 23.8321 19.5 23.625 19.5C23.4179 19.5 23.25 19.3321 23.25 19.125C23.25 18.9179 23.4179 18.75 23.625 18.75C23.8321 18.75 24 18.9179 24 19.125Z" fill="#E6A13B"/>
<path d="M22.125 19.3125C22.125 19.6232 21.8732 19.875 21.5625 19.875C21.2518 19.875 21 19.6232 21 19.3125C21 19.0018 21.2518 18.75 21.5625 18.75C21.8732 18.75 22.125 19.0018 22.125 19.3125Z" fill="#E6A13B"/>
<path d="M20.625 22.6875C20.625 22.9982 20.3732 23.25 20.0625 23.25C19.7518 23.25 19.5 22.9982 19.5 22.6875C19.5 22.3768 19.7518 22.125 20.0625 22.125C20.3732 22.125 20.625 22.3768 20.625 22.6875Z" fill="#E6A13B"/>
<path d="M4.5 18L18 4.5L31.5 18L4.5 18Z" fill="#FFC368"/>
<path fill-rule="evenodd" clip-rule="evenodd" d="M17.9708 6.035C18.1585 6.1224 18.2399 6.34547 18.1525 6.53323L13.09 17.4082C13.0026 17.596 12.7795 17.6773 12.5918 17.5899C12.404 17.5025 12.3227 17.2795 12.4101 17.0917L17.4726 6.21671C17.56 6.02895 17.783 5.94759 17.9708 6.035Z" fill="#FFD596"/>
<path d="M11.25 18L18 31.5L4.5 18L18 4.5L11.25 18Z" fill="#FFCB7C"/>
<path d="M7.5 18L18 31.5L4.5 18L18 4.5L7.5 18Z" fill="#FFEEC1"/>
<path d="M11.25 18L18 4.5L4.5 18L11.25 18Z" fill="#FFDBA5"/>
<path d="M7.5 18L18 4.5L4.5 18L7.5 18Z" fill="#FFF1CB"/>
<path d="M24.75 18L18 31.5L31.5 18L18 4.5L24.75 18Z" fill="#CA693F"/>
<path d="M24.75 18L18 4.5L31.5 18L24.75 18Z" fill="#DC794F"/>
<path d="M28.5 18L18 31.5L31.5 18L18 4.5L28.5 18Z" fill="#E39130"/>
<path d="M28.5 18L18 4.5L31.5 18L28.5 18Z" fill="#F0A347"/>
<path fill-rule="evenodd" clip-rule="evenodd" d="M11.8809 11.3509C12.0323 11.4922 12.0405 11.7295 11.8991 11.8809L6.64915 17.5059C6.50783 17.6573 6.27054 17.6655 6.11913 17.5241C5.96773 17.3828 5.95954 17.1455 6.10086 16.9941L11.3509 11.3691C11.4922 11.2177 11.7295 11.2095 11.8809 11.3509Z" fill="white"/>
<path d="M21.4724 21.7764V24H14.3101V22.1389C16.4316 18.6692 17.6912 16.5234 18.0886 15.7017C18.4915 14.8745 18.6929 14.23 18.6929 13.7681C18.6929 13.4136 18.6311 13.1504 18.5076 12.9785C18.3894 12.8013 18.2068 12.7126 17.9597 12.7126C17.7126 12.7126 17.5273 12.8093 17.4038 13.0027C17.2856 13.196 17.2266 13.5801 17.2266 14.1548V15.3955H14.3101V14.9202C14.3101 14.1897 14.3477 13.615 14.4229 13.196C14.498 12.7717 14.6833 12.3555 14.9788 11.9473C15.2742 11.5391 15.6582 11.2302 16.1309 11.0208C16.6035 10.8113 17.1702 10.7065 17.8308 10.7065C19.1252 10.7065 20.1028 11.0288 20.7634 11.6733C21.4294 12.3125 21.7625 13.1235 21.7625 14.1064C21.7625 14.853 21.5745 15.6426 21.1985 16.4751C20.8279 17.3076 19.7295 19.0747 17.9033 21.7764H21.4724Z" fill="#604104"/>
</svg>
