<svg width="78" height="36" viewBox="0 0 78 36" fill="none" xmlns="http://www.w3.org/2000/svg">
<path d="M16 7H67C73.0751 7 78 11.9249 78 18C78 24.0751 73.0751 29 67 29H16V7Z" fill="#2B2B2E"/>
<path d="M37.9896 23L37.1757 13.2029H39.7078L39.8887 17.7849C39.9088 18.2974 39.9239 18.8149 39.9339 19.3374C39.944 19.8499 39.949 20.3673 39.949 20.8899H40.0093C40.2303 20.3673 40.4464 19.8499 40.6574 19.3374C40.8684 18.8249 41.0844 18.3074 41.3055 17.7849L43.2951 13.2029H45.9478L40.9136 23H37.9896ZM45.0762 23L47.0356 13.2029H49.4472L47.4878 23H45.0762ZM49.7716 23L51.7311 13.2029H54.9566C55.6097 13.2029 56.1975 13.2933 56.72 13.4742C57.2426 13.645 57.6545 13.9264 57.956 14.3183C58.2675 14.7101 58.4232 15.2327 58.4232 15.8858C58.4232 16.5992 58.2976 17.2071 58.0464 17.7096C57.8053 18.212 57.4686 18.6189 57.0366 18.9304C56.6045 19.2319 56.1121 19.4529 55.5595 19.5936C55.0068 19.7343 54.424 19.8046 53.8111 19.8046H52.8163L52.1832 23H49.7716ZM53.2082 17.9055H54.0974C54.7204 17.9055 55.1977 17.7648 55.5293 17.4835C55.871 17.2021 56.0418 16.7901 56.0418 16.2475C56.0418 15.8557 55.9162 15.5693 55.665 15.3884C55.4138 15.1975 55.0671 15.102 54.625 15.102H53.7508L53.2082 17.9055ZM61.6171 23L62.0089 21.0707H63.9382L64.9933 15.8557H63.2449L63.5463 14.3484C64.109 14.258 64.5813 14.1424 64.9632 14.0017C65.355 13.851 65.7369 13.6651 66.1087 13.4441H67.8872L66.3498 21.0707H68.0379L67.6461 23H61.6171Z" fill="#E1FF6B"/>
<path d="M4.5 18L18 31.5L31.5 18L18 4.5L4.5 18Z" fill="#D1FA2D"/>
<path fill-rule="evenodd" clip-rule="evenodd" d="M3.96967 17.4697C3.67678 17.7626 3.67678 18.2374 3.96967 18.5303L17.4697 32.0303C17.7626 32.3232 18.2374 32.3232 18.5303 32.0303L32.0303 18.5303C32.171 18.3897 32.25 18.1989 32.25 18C32.25 17.8011 32.171 17.6103 32.0303 17.4697L18.5303 3.96967C18.3897 3.82902 18.1989 3.75 18 3.75C17.8011 3.75 17.6103 3.82902 17.4697 3.96967L3.96967 17.4697ZM4.5 18L18 31.5L31.5 18L18 4.5L4.5 18Z" fill="#384B00"/>
<path d="M22.125 21.375C22.125 21.5821 21.9571 21.75 21.75 21.75C21.5429 21.75 21.375 21.5821 21.375 21.375C21.375 21.1679 21.5429 21 21.75 21C21.9571 21 22.125 21.1679 22.125 21.375Z" fill="#B7DD21"/>
<path d="M22.125 22.875C22.125 23.0821 21.9571 23.25 21.75 23.25C21.5429 23.25 21.375 23.0821 21.375 22.875C21.375 22.6679 21.5429 22.5 21.75 22.5C21.9571 22.5 22.125 22.6679 22.125 22.875Z" fill="#B7DD21"/>
<path d="M20.625 24.375C20.625 24.5821 20.4571 24.75 20.25 24.75C20.0429 24.75 19.875 24.5821 19.875 24.375C19.875 24.1679 20.0429 24 20.25 24C20.4571 24 20.625 24.1679 20.625 24.375Z" fill="#B7DD21"/>
<path d="M19.5 25.875C19.5 26.0821 19.3321 26.25 19.125 26.25C18.9179 26.25 18.75 26.0821 18.75 25.875C18.75 25.6679 18.9179 25.5 19.125 25.5C19.3321 25.5 19.5 25.6679 19.5 25.875Z" fill="#B7DD21"/>
<path d="M20.25 20.25C20.25 20.4571 20.0821 20.625 19.875 20.625C19.6679 20.625 19.5 20.4571 19.5 20.25C19.5 20.0429 19.6679 19.875 19.875 19.875C20.0821 19.875 20.25 20.0429 20.25 20.25Z" fill="#B7DD21"/>
<path d="M24 19.125C24 19.3321 23.8321 19.5 23.625 19.5C23.4179 19.5 23.25 19.3321 23.25 19.125C23.25 18.9179 23.4179 18.75 23.625 18.75C23.8321 18.75 24 18.9179 24 19.125Z" fill="#B7DD21"/>
<path d="M22.125 19.3125C22.125 19.6232 21.8732 19.875 21.5625 19.875C21.2518 19.875 21 19.6232 21 19.3125C21 19.0018 21.2518 18.75 21.5625 18.75C21.8732 18.75 22.125 19.0018 22.125 19.3125Z" fill="#B7DD21"/>
<path d="M20.625 22.6875C20.625 22.9982 20.3732 23.25 20.0625 23.25C19.7518 23.25 19.5 22.9982 19.5 22.6875C19.5 22.3768 19.7518 22.125 20.0625 22.125C20.3732 22.125 20.625 22.3768 20.625 22.6875Z" fill="#B7DD21"/>
<path d="M4.5 18L18 4.5L31.5 18L4.5 18Z" fill="#E1FF6B"/>
<path fill-rule="evenodd" clip-rule="evenodd" d="M17.9708 6.035C18.1585 6.1224 18.2399 6.34547 18.1525 6.53323L13.09 17.4082C13.0026 17.596 12.7795 17.6773 12.5918 17.5899C12.404 17.5025 12.3227 17.2795 12.4101 17.0917L17.4726 6.21671C17.56 6.02895 17.783 5.94759 17.9708 6.035Z" fill="#F8FFDA"/>
<path d="M11.25 18L18 31.5L4.5 18L18 4.5L11.25 18Z" fill="#E3E73C"/>
<path d="M7.5 18L18 31.5L4.5 18L18 4.5L7.5 18Z" fill="#FFF9C1"/>
<path d="M11.25 18L18 4.5L4.5 18L11.25 18Z" fill="#F0F36F"/>
<path d="M7.5 18L18 4.5L4.5 18L7.5 18Z" fill="#FEF9CF"/>
<path d="M24.75 18L18 31.5L31.5 18L18 4.5L24.75 18Z" fill="#63C038"/>
<path d="M24.75 18L18 4.5L31.5 18L24.75 18Z" fill="#75D04A"/>
<path d="M28.5 18L18 31.5L31.5 18L18 4.5L28.5 18Z" fill="#AFD02A"/>
<path d="M28.5 18L18 4.5L31.5 18L28.5 18Z" fill="#C5E447"/>
<path fill-rule="evenodd" clip-rule="evenodd" d="M11.8809 11.3509C12.0323 11.4922 12.0405 11.7295 11.8991 11.8809L6.64915 17.5059C6.50783 17.6573 6.27054 17.6655 6.11913 17.5241C5.96773 17.3828 5.95954 17.1455 6.10086 16.9941L11.3509 11.3691C11.4922 11.2177 11.7295 11.2095 11.8809 11.3509Z" fill="#FFFEF9"/>
<path d="M19.8494 11.3311V24.3748H16.5945V17.3816C16.5945 16.3718 16.5703 15.7649 16.522 15.5608C16.4736 15.3567 16.3394 15.2036 16.1191 15.1016C15.9043 14.9941 15.4209 14.9404 14.6689 14.9404H14.3467V13.4177C15.9204 13.0793 17.1155 12.3838 17.9319 11.3311H19.8494Z" fill="#384B00"/>
</svg>
