<svg width="78" height="36" viewBox="0 0 78 36" fill="none" xmlns="http://www.w3.org/2000/svg">
<path d="M16 7H67C73.0751 7 78 11.9249 78 18C78 24.0751 73.0751 29 67 29H16V7Z" fill="#382500"/>
<path d="M37.9896 23L37.1757 13.2029H39.7078L39.8887 17.7849C39.9088 18.2974 39.9239 18.8149 39.9339 19.3374C39.944 19.8498 39.949 20.3673 39.949 20.8898H40.0093C40.2303 20.3673 40.4464 19.8498 40.6574 19.3374C40.8684 18.8249 41.0845 18.3074 41.3055 17.7849L43.2951 13.2029H45.9478L40.9136 23H37.9896Z" fill="url(#paint0_linear_669_2930)"/>
<path d="M45.0762 23L47.0356 13.2029H49.4472L47.4878 23H45.0762Z" fill="url(#paint1_linear_669_2930)"/>
<path d="M49.7716 23L51.7311 13.2029H54.9566C55.6097 13.2029 56.1975 13.2933 56.7201 13.4742C57.2426 13.645 57.6545 13.9264 57.956 14.3182C58.2675 14.7101 58.4232 15.2326 58.4232 15.8858C58.4232 16.5992 58.2976 17.2071 58.0464 17.7095C57.8053 18.212 57.4687 18.6189 57.0366 18.9304C56.6045 19.2319 56.1121 19.4529 55.5595 19.5936C55.0068 19.7343 54.424 19.8046 53.8111 19.8046H52.8163L52.1832 23H49.7716ZM53.2082 17.9055H54.0974C54.7204 17.9055 55.1977 17.7648 55.5293 17.4835C55.871 17.2021 56.0418 16.7901 56.0418 16.2475C56.0418 15.8556 55.9162 15.5693 55.665 15.3884C55.4138 15.1975 55.0671 15.102 54.625 15.102H53.7508L53.2082 17.9055Z" fill="url(#paint2_linear_669_2930)"/>
<path d="M64.8124 23.1809C64.4808 23.1809 64.1392 23.1356 63.7875 23.0452C63.4459 22.9548 63.1293 22.8091 62.8379 22.6081C62.5465 22.4071 62.3104 22.1509 62.1295 21.8394C61.9487 21.5279 61.8582 21.1511 61.8582 20.709C61.8582 20.2769 61.9537 19.8951 62.1446 19.5635C62.3355 19.2218 62.5867 18.9304 62.8982 18.6893C63.2198 18.438 63.5765 18.2371 63.9684 18.0864V18.0261C63.687 17.7045 63.4609 17.393 63.2901 17.0916C63.1193 16.7801 63.0339 16.4384 63.0339 16.0666C63.0339 15.4838 63.1896 14.9865 63.5011 14.5745C63.8126 14.1524 64.2246 13.8309 64.7371 13.6098C65.2495 13.3787 65.8072 13.2632 66.4101 13.2632C66.8522 13.2632 67.2793 13.3385 67.6913 13.4893C68.1133 13.64 68.455 13.8811 68.7162 14.2127C68.9875 14.5343 69.1232 14.9613 69.1232 15.4939C69.1232 16.0666 68.9624 16.564 68.6408 16.9861C68.3193 17.4081 67.8872 17.7648 67.3446 18.0562V18.1165C67.6059 18.2873 67.832 18.4833 68.0229 18.7043C68.2138 18.9254 68.3595 19.1716 68.46 19.4429C68.5605 19.7041 68.6107 19.9955 68.6107 20.3171C68.6107 20.8999 68.4349 21.4073 68.0832 21.8394C67.7315 22.2614 67.2642 22.593 66.6814 22.8342C66.1087 23.0653 65.4857 23.1809 64.8124 23.1809ZM66.2895 17.3629C66.4302 17.2323 66.5558 17.0966 66.6663 16.9559C66.7869 16.8152 66.8824 16.6595 66.9527 16.4887C67.0331 16.3179 67.0733 16.1269 67.0733 15.9159C67.0733 15.6446 66.9979 15.4185 66.8472 15.2377C66.7065 15.0467 66.5006 14.9513 66.2292 14.9513C66.0283 14.9513 65.8424 14.9915 65.6716 15.0719C65.5108 15.1422 65.3802 15.2527 65.2797 15.4035C65.1892 15.5441 65.144 15.715 65.144 15.9159C65.144 16.2274 65.2345 16.4937 65.4153 16.7148C65.6063 16.9258 65.8977 17.1418 66.2895 17.3629ZM65.0837 21.5229C65.3149 21.5229 65.5309 21.4827 65.7319 21.4023C65.9328 21.3219 66.0936 21.1963 66.2142 21.0255C66.3448 20.8547 66.4101 20.6386 66.4101 20.3774C66.4101 20.1664 66.3498 19.9805 66.2292 19.8197C66.1187 19.6489 65.9529 19.4831 65.7319 19.3223C65.5108 19.1615 65.2445 18.9907 64.933 18.8098C64.6818 19.0008 64.4607 19.2268 64.2698 19.4881C64.089 19.7393 63.9985 20.0357 63.9985 20.3774C63.9985 20.6085 64.0437 20.8095 64.1342 20.9803C64.2246 21.1511 64.3502 21.2867 64.511 21.3872C64.6718 21.4777 64.8627 21.5229 65.0837 21.5229Z" fill="url(#paint3_linear_669_2930)"/>
<path d="M8.25 9.75L8.25 26.25L15 33L21 33L27.75 26.25L27.75 9.75L21 3L15 3L8.25 9.75Z" fill="#E9B465"/>
<path fill-rule="evenodd" clip-rule="evenodd" d="M7.71967 9.21967C7.57902 9.36032 7.5 9.55109 7.5 9.75L7.5 26.25C7.5 26.4489 7.57902 26.6397 7.71967 26.7803L14.4697 33.5303C14.6103 33.671 14.8011 33.75 15 33.75L21 33.75C21.1989 33.75 21.3897 33.671 21.5303 33.5303L28.2803 26.7803C28.421 26.6397 28.5 26.4489 28.5 26.25L28.5 9.75C28.5 9.55109 28.421 9.36032 28.2803 9.21967L21.5303 2.46967C21.3897 2.32902 21.1989 2.25 21 2.25L15 2.25C14.8011 2.25 14.6103 2.32902 14.4697 2.46967L7.71967 9.21967ZM15 3L8.25 9.75L8.25 26.25L15 33L21 33L27.75 26.25L27.75 9.75L21 3L15 3Z" fill="#604105"/>
<path d="M8.25 26.25L8.25 9.75L13.875 11.625L13.875 24.375L8.25 26.25Z" fill="#EEC18B"/>
<path d="M15 3L8.25 9.75001L13.875 11.625L18 6.75L21 3L15 3Z" fill="#FFEEC1"/>
<path d="M22.125 24.375L18 29.25L15 33L21 33L27.75 26.25L27.75 9.75L21 3L18 6.75L22.125 11.625L22.125 24.375Z" fill="#E39130"/>
<path d="M27.75 9.75L27.75 26.25L22.125 24.375L22.125 11.625L27.75 9.75Z" fill="#CA693F"/>
<path d="M27 13.5C27 13.9142 26.6642 14.25 26.25 14.25C25.8358 14.25 25.5 13.9142 25.5 13.5C25.5 13.0858 25.8358 12.75 26.25 12.75C26.6642 12.75 27 13.0858 27 13.5Z" fill="#DE7A50"/>
<path d="M25.875 16.6875C25.875 16.9982 25.6232 17.25 25.3125 17.25C25.0018 17.25 24.75 16.9982 24.75 16.6875C24.75 16.3768 25.0018 16.125 25.3125 16.125C25.6232 16.125 25.875 16.3768 25.875 16.6875Z" fill="#DE7A50"/>
<path d="M27 15.75C27 15.9571 26.8321 16.125 26.625 16.125C26.4179 16.125 26.25 15.9571 26.25 15.75C26.25 15.5429 26.4179 15.375 26.625 15.375C26.8321 15.375 27 15.5429 27 15.75Z" fill="#DE7A50"/>
<path d="M25.125 14.625C25.125 14.8321 24.9571 15 24.75 15C24.5429 15 24.375 14.8321 24.375 14.625C24.375 14.4179 24.5429 14.25 24.75 14.25C24.9571 14.25 25.125 14.4179 25.125 14.625Z" fill="#DE7A50"/>
<path d="M27 11.25C27 11.4571 26.8321 11.625 26.625 11.625C26.4179 11.625 26.25 11.4571 26.25 11.25C26.25 11.0429 26.4179 10.875 26.625 10.875C26.8321 10.875 27 11.0429 27 11.25Z" fill="#DE7A50"/>
<path d="M27 20.25C27 20.4571 26.8321 20.625 26.625 20.625C26.4179 20.625 26.25 20.4571 26.25 20.25C26.25 20.0429 26.4179 19.875 26.625 19.875C26.8321 19.875 27 20.0429 27 20.25Z" fill="#DE7A50"/>
<path d="M27 18.375C27 18.5821 26.8321 18.75 26.625 18.75C26.4179 18.75 26.25 18.5821 26.25 18.375C26.25 18.1679 26.4179 18 26.625 18C26.8321 18 27 18.1679 27 18.375Z" fill="#DE7A50"/>
<path d="M13.875 11.625L13.875 24.375L18 29.25L22.125 24.3926L22.125 11.625L18 6.75L13.875 11.625Z" fill="#FFB547"/>
<path d="M13.875 24.375L13.875 11.625L18 6.75L22.125 11.625L13.875 24.375Z" fill="#FFCB7C"/>
<path fill-rule="evenodd" clip-rule="evenodd" d="M18.2375 7.58478C18.3978 7.71593 18.4214 7.95218 18.2902 8.11248L15 12.1339V19.875C15 20.0821 14.8321 20.25 14.625 20.25C14.4179 20.25 14.25 20.0821 14.25 19.875V12C14.25 11.9134 14.2799 11.8295 14.3348 11.7625L17.7098 7.63755C17.8409 7.47726 18.0772 7.45363 18.2375 7.58478Z" fill="#FFEAC2"/>
<path fill-rule="evenodd" clip-rule="evenodd" d="M9 10.5C9.20711 10.5 9.375 10.6679 9.375 10.875V25.125C9.375 25.3321 9.20711 25.5 9 25.5C8.79289 25.5 8.625 25.3321 8.625 25.125V10.875C8.625 10.6679 8.79289 10.5 9 10.5Z" fill="#FFD5A3"/>
<path fill-rule="evenodd" clip-rule="evenodd" d="M15.6402 3.48483C15.7866 3.63128 15.7866 3.86872 15.6402 4.01517L10.0152 9.64017C9.86872 9.78661 9.63128 9.78661 9.48483 9.64017C9.33839 9.49372 9.33839 9.25628 9.48483 9.10984L15.1098 3.48483C15.2563 3.33839 15.4937 3.33839 15.6402 3.48483Z" fill="#FFFEFD"/>
<path d="M25.5 27.1875C25.5 27.4982 25.2482 27.75 24.9375 27.75C24.6268 27.75 24.375 27.4982 24.375 27.1875C24.375 26.8768 24.6268 26.625 24.9375 26.625C25.2482 26.625 25.5 26.8768 25.5 27.1875Z" fill="#CA8028"/>
<path d="M21.75 30.9375C21.75 31.2482 21.4982 31.5 21.1875 31.5C20.8768 31.5 20.625 31.2482 20.625 30.9375C20.625 30.6268 20.8768 30.375 21.1875 30.375C21.4982 30.375 21.75 30.6268 21.75 30.9375Z" fill="#CA8028"/>
<path d="M23.25 29.4375C23.25 29.7482 22.9982 30 22.6875 30C22.3768 30 22.125 29.7482 22.125 29.4375C22.125 29.1268 22.3768 28.875 22.6875 28.875C22.9982 28.875 23.25 29.1268 23.25 29.4375Z" fill="#CA8028"/>
<path d="M21.375 28.5C21.375 28.7071 21.2071 28.875 21 28.875C20.7929 28.875 20.625 28.7071 20.625 28.5C20.625 28.2929 20.7929 28.125 21 28.125C21.2071 28.125 21.375 28.2929 21.375 28.5Z" fill="#CA8028"/>
<path d="M24 28.5C24 28.7071 23.8321 28.875 23.625 28.875C23.4179 28.875 23.25 28.7071 23.25 28.5C23.25 28.2929 23.4179 28.125 23.625 28.125C23.8321 28.125 24 28.2929 24 28.5Z" fill="#CA8028"/>
<path d="M23.25 27C23.25 27.4142 22.9142 27.75 22.5 27.75C22.0858 27.75 21.75 27.4142 21.75 27C21.75 26.5858 22.0858 26.25 22.5 26.25C22.9142 26.25 23.25 26.5858 23.25 27Z" fill="#CA8028"/>
<path d="M20.6667 16.604C21.1448 16.7974 21.5127 17.0874 21.7705 17.4741C22.0283 17.8555 22.1572 18.7686 22.1572 20.2134C22.1572 21.2661 22.0552 22.0422 21.8511 22.5417C21.647 23.0413 21.2495 23.4521 20.6587 23.7744C20.0679 24.0913 19.2756 24.2498 18.282 24.2498C17.3152 24.2498 16.5498 24.0967 15.9858 23.7905C15.4219 23.4844 15.0164 23.0789 14.7693 22.574C14.5276 22.0691 14.4067 21.2285 14.4067 20.0522C14.4067 19.2627 14.4658 18.5779 14.584 17.9978C14.7075 17.4177 15.0889 16.9531 15.728 16.604C15.3252 16.4106 15.0217 16.1045 14.8176 15.6855C14.6189 15.2612 14.5195 14.7241 14.5195 14.0742C14.5195 12.9517 14.8311 12.1111 15.4541 11.5525C16.0771 10.9885 17.009 10.7065 18.2498 10.7065C19.6838 10.7065 20.6748 11.0046 21.2227 11.6008C21.7705 12.197 22.0444 13.0483 22.0444 14.1548C22.0444 14.8584 21.9531 15.366 21.7705 15.6775C21.5933 15.989 21.2253 16.2979 20.6667 16.604ZM18.8379 13.8003C18.8379 13.3599 18.7976 13.0698 18.717 12.9302C18.6418 12.7852 18.4941 12.7126 18.2739 12.7126C18.0591 12.7126 17.9141 12.7905 17.8389 12.9463C17.7637 13.0967 17.7261 13.3813 17.7261 13.8003V14.7913C17.7261 15.1833 17.769 15.4546 17.855 15.605C17.9409 15.7554 18.0859 15.8306 18.29 15.8306C18.5049 15.8306 18.6499 15.7581 18.7251 15.613C18.8003 15.4626 18.8379 15.1565 18.8379 14.6946V13.8003ZM18.9023 19.2224C18.9023 18.7229 18.8513 18.3926 18.7493 18.2314C18.6472 18.0649 18.4861 17.9817 18.2659 17.9817C18.051 17.9817 17.8953 18.0623 17.7986 18.2234C17.7073 18.3792 17.6616 18.7122 17.6616 19.2224V20.9143C17.6616 21.4783 17.7126 21.8408 17.8147 22.002C17.9221 22.1631 18.0886 22.2437 18.3142 22.2437C18.5452 22.2437 18.7009 22.1631 18.7815 22.002C18.8621 21.8354 18.9023 21.4648 18.9023 20.8901V19.2224Z" fill="#352300"/>
<defs>
<linearGradient id="paint0_linear_669_2930" x1="53.1494" y1="13.2029" x2="53.1494" y2="23.1809" gradientUnits="userSpaceOnUse">
<stop stop-color="#FFDA92"/>
<stop offset="1" stop-color="#E39130"/>
</linearGradient>
<linearGradient id="paint1_linear_669_2930" x1="53.1494" y1="13.2029" x2="53.1494" y2="23.1809" gradientUnits="userSpaceOnUse">
<stop stop-color="#FFDA92"/>
<stop offset="1" stop-color="#E39130"/>
</linearGradient>
<linearGradient id="paint2_linear_669_2930" x1="53.1494" y1="13.2029" x2="53.1494" y2="23.1809" gradientUnits="userSpaceOnUse">
<stop stop-color="#FFDA92"/>
<stop offset="1" stop-color="#E39130"/>
</linearGradient>
<linearGradient id="paint3_linear_669_2930" x1="53.1494" y1="13.2029" x2="53.1494" y2="23.1809" gradientUnits="userSpaceOnUse">
<stop stop-color="#FFDA92"/>
<stop offset="1" stop-color="#E39130"/>
</linearGradient>
</defs>
</svg>
