<svg width="78" height="36" viewBox="0 0 78 36" fill="none" xmlns="http://www.w3.org/2000/svg">
<path d="M16 7H67C73.0751 7 78 11.9249 78 18C78 24.0751 73.0751 29 67 29H16V7Z" fill="#382500"/>
<path d="M8.25 9.75L8.25 26.25L15 33L21 33L27.75 26.25L27.75 9.75L21 3L15 3L8.25 9.75Z" fill="#E9B465"/>
<path fill-rule="evenodd" clip-rule="evenodd" d="M7.71967 9.21967C7.57902 9.36032 7.5 9.55109 7.5 9.75L7.5 26.25C7.5 26.4489 7.57902 26.6397 7.71967 26.7803L14.4697 33.5303C14.6103 33.671 14.8011 33.75 15 33.75L21 33.75C21.1989 33.75 21.3897 33.671 21.5303 33.5303L28.2803 26.7803C28.421 26.6397 28.5 26.4489 28.5 26.25L28.5 9.75C28.5 9.55109 28.421 9.36032 28.2803 9.21967L21.5303 2.46967C21.3897 2.32902 21.1989 2.25 21 2.25L15 2.25C14.8011 2.25 14.6103 2.32902 14.4697 2.46967L7.71967 9.21967ZM15 3L8.25 9.75L8.25 26.25L15 33L21 33L27.75 26.25L27.75 9.75L21 3L15 3Z" fill="#604105"/>
<path d="M8.25 26.25L8.25 9.75L13.875 11.625L13.875 24.375L8.25 26.25Z" fill="#EEC18B"/>
<path d="M15 3L8.25 9.75001L13.875 11.625L18 6.75L21 3L15 3Z" fill="#FFEEC1"/>
<path d="M22.125 24.375L18 29.25L15 33L21 33L27.75 26.25L27.75 9.75L21 3L18 6.75L22.125 11.625L22.125 24.375Z" fill="#E39130"/>
<path d="M27.75 9.75L27.75 26.25L22.125 24.375L22.125 11.625L27.75 9.75Z" fill="#CA693F"/>
<path d="M27 13.5C27 13.9142 26.6642 14.25 26.25 14.25C25.8358 14.25 25.5 13.9142 25.5 13.5C25.5 13.0858 25.8358 12.75 26.25 12.75C26.6642 12.75 27 13.0858 27 13.5Z" fill="#DE7A50"/>
<path d="M25.875 16.6875C25.875 16.9982 25.6232 17.25 25.3125 17.25C25.0018 17.25 24.75 16.9982 24.75 16.6875C24.75 16.3768 25.0018 16.125 25.3125 16.125C25.6232 16.125 25.875 16.3768 25.875 16.6875Z" fill="#DE7A50"/>
<path d="M27 15.75C27 15.9571 26.8321 16.125 26.625 16.125C26.4179 16.125 26.25 15.9571 26.25 15.75C26.25 15.5429 26.4179 15.375 26.625 15.375C26.8321 15.375 27 15.5429 27 15.75Z" fill="#DE7A50"/>
<path d="M25.125 14.625C25.125 14.8321 24.9571 15 24.75 15C24.5429 15 24.375 14.8321 24.375 14.625C24.375 14.4179 24.5429 14.25 24.75 14.25C24.9571 14.25 25.125 14.4179 25.125 14.625Z" fill="#DE7A50"/>
<path d="M27 11.25C27 11.4571 26.8321 11.625 26.625 11.625C26.4179 11.625 26.25 11.4571 26.25 11.25C26.25 11.0429 26.4179 10.875 26.625 10.875C26.8321 10.875 27 11.0429 27 11.25Z" fill="#DE7A50"/>
<path d="M27 20.25C27 20.4571 26.8321 20.625 26.625 20.625C26.4179 20.625 26.25 20.4571 26.25 20.25C26.25 20.0429 26.4179 19.875 26.625 19.875C26.8321 19.875 27 20.0429 27 20.25Z" fill="#DE7A50"/>
<path d="M27 18.375C27 18.5821 26.8321 18.75 26.625 18.75C26.4179 18.75 26.25 18.5821 26.25 18.375C26.25 18.1679 26.4179 18 26.625 18C26.8321 18 27 18.1679 27 18.375Z" fill="#DE7A50"/>
<path d="M13.875 11.625L13.875 24.375L18 29.25L22.125 24.3926L22.125 11.625L18 6.75L13.875 11.625Z" fill="#FFB547"/>
<path d="M13.875 24.375L13.875 11.625L18 6.75L22.125 11.625L13.875 24.375Z" fill="#FFCB7C"/>
<path fill-rule="evenodd" clip-rule="evenodd" d="M18.2375 7.58478C18.3978 7.71593 18.4214 7.95218 18.2902 8.11248L15 12.1339V19.875C15 20.0821 14.8321 20.25 14.625 20.25C14.4179 20.25 14.25 20.0821 14.25 19.875V12C14.25 11.9134 14.2799 11.8295 14.3348 11.7625L17.7098 7.63755C17.8409 7.47726 18.0772 7.45363 18.2375 7.58478Z" fill="#FFEAC2"/>
<path fill-rule="evenodd" clip-rule="evenodd" d="M9 10.5C9.20711 10.5 9.375 10.6679 9.375 10.875V25.125C9.375 25.3321 9.20711 25.5 9 25.5C8.79289 25.5 8.625 25.3321 8.625 25.125V10.875C8.625 10.6679 8.79289 10.5 9 10.5Z" fill="#FFD5A3"/>
<path fill-rule="evenodd" clip-rule="evenodd" d="M15.6402 3.48483C15.7866 3.63128 15.7866 3.86872 15.6402 4.01517L10.0152 9.64017C9.86872 9.78661 9.63128 9.78661 9.48483 9.64017C9.33839 9.49372 9.33839 9.25628 9.48483 9.10984L15.1098 3.48483C15.2563 3.33839 15.4937 3.33839 15.6402 3.48483Z" fill="#FFFEFD"/>
<path d="M25.5 27.1875C25.5 27.4982 25.2482 27.75 24.9375 27.75C24.6268 27.75 24.375 27.4982 24.375 27.1875C24.375 26.8768 24.6268 26.625 24.9375 26.625C25.2482 26.625 25.5 26.8768 25.5 27.1875Z" fill="#CA8028"/>
<path d="M21.75 30.9375C21.75 31.2482 21.4982 31.5 21.1875 31.5C20.8768 31.5 20.625 31.2482 20.625 30.9375C20.625 30.6268 20.8768 30.375 21.1875 30.375C21.4982 30.375 21.75 30.6268 21.75 30.9375Z" fill="#CA8028"/>
<path d="M23.25 29.4375C23.25 29.7482 22.9982 30 22.6875 30C22.3768 30 22.125 29.7482 22.125 29.4375C22.125 29.1268 22.3768 28.875 22.6875 28.875C22.9982 28.875 23.25 29.1268 23.25 29.4375Z" fill="#CA8028"/>
<path d="M21.375 28.5C21.375 28.7071 21.2071 28.875 21 28.875C20.7929 28.875 20.625 28.7071 20.625 28.5C20.625 28.2929 20.7929 28.125 21 28.125C21.2071 28.125 21.375 28.2929 21.375 28.5Z" fill="#CA8028"/>
<path d="M24 28.5C24 28.7071 23.8321 28.875 23.625 28.875C23.4179 28.875 23.25 28.7071 23.25 28.5C23.25 28.2929 23.4179 28.125 23.625 28.125C23.8321 28.125 24 28.2929 24 28.5Z" fill="#CA8028"/>
<path d="M23.25 27C23.25 27.4142 22.9142 27.75 22.5 27.75C22.0858 27.75 21.75 27.4142 21.75 27C21.75 26.5858 22.0858 26.25 22.5 26.25C22.9142 26.25 23.25 26.5858 23.25 27Z" fill="#CA8028"/>
<path d="M14 21.1546H17.332C17.332 21.7816 17.3402 22.1784 17.3567 22.3448C17.3732 22.5057 17.4392 22.6417 17.5546 22.7527C17.6756 22.8637 17.8378 22.9191 18.0412 22.9191C18.2117 22.9191 18.3519 22.8664 18.4619 22.761C18.5718 22.6556 18.6323 22.5196 18.6433 22.3532C18.6598 22.1867 18.668 21.851 18.668 21.346V19.1986C18.5031 19.5593 18.2557 19.8312 17.9258 20.0143C17.5959 20.1918 17.1863 20.2806 16.6969 20.2806C16.0866 20.2806 15.5478 20.1142 15.0804 19.7812C14.6131 19.4483 14.3162 19.0488 14.1897 18.5826C14.0632 18.1165 14 17.4867 14 16.6932V15.6195C14 14.6762 14.0357 13.9742 14.1072 13.5137C14.1842 13.0531 14.3766 12.6286 14.6845 12.2402C14.9924 11.8462 15.4186 11.541 15.9629 11.3246C16.5072 11.1082 17.1395 11 17.8598 11C18.7505 11 19.4818 11.1249 20.0536 11.3746C20.6254 11.6243 21.068 11.9849 21.3814 12.4566C21.6948 12.9227 21.8763 13.4138 21.9258 13.9298C21.9753 14.4459 22 15.4447 22 16.9263V18.799C22 20.4027 21.978 21.4764 21.934 22.0202C21.89 22.5585 21.6976 23.069 21.3567 23.5517C21.0213 24.0345 20.5649 24.3979 19.9876 24.6421C19.4103 24.8807 18.7423 25 17.9835 25C17.0433 25 16.2735 24.8474 15.6742 24.5422C15.0804 24.237 14.6515 23.807 14.3876 23.2521C14.1292 22.6972 14 21.998 14 21.1546ZM17.332 16.9512C17.332 17.5172 17.4034 17.8668 17.5464 18C17.6948 18.1332 17.846 18.1998 18 18.1998C18.2309 18.1998 18.3986 18.1165 18.5031 17.9501C18.6131 17.778 18.668 17.4451 18.668 16.9512V14.5125C18.668 13.9187 18.6158 13.5303 18.5113 13.3472C18.4124 13.1641 18.2447 13.0725 18.0082 13.0725C17.8653 13.0725 17.7168 13.1447 17.5629 13.2889C17.4089 13.4277 17.332 13.8078 17.332 14.4293V16.9512Z" fill="#352300"/>
<path d="M37.9896 23L37.1757 13.2029H39.7078L39.8887 17.7849C39.9088 18.2974 39.9239 18.8149 39.9339 19.3374C39.944 19.8499 39.949 20.3673 39.949 20.8899H40.0093C40.2303 20.3673 40.4464 19.8499 40.6574 19.3374C40.8684 18.8249 41.0844 18.3074 41.3055 17.7849L43.2951 13.2029H45.9478L40.9136 23H37.9896ZM45.0762 23L47.0356 13.2029H49.4472L47.4878 23H45.0762ZM49.7716 23L51.7311 13.2029H54.9566C55.6097 13.2029 56.1975 13.2933 56.72 13.4742C57.2426 13.645 57.6545 13.9264 57.956 14.3183C58.2675 14.7101 58.4232 15.2327 58.4232 15.8858C58.4232 16.5992 58.2976 17.2071 58.0464 17.7096C57.8053 18.212 57.4686 18.6189 57.0366 18.9304C56.6045 19.2319 56.1121 19.4529 55.5595 19.5936C55.0068 19.7343 54.424 19.8046 53.8111 19.8046H52.8163L52.1832 23H49.7716ZM53.2082 17.9055H54.0974C54.7204 17.9055 55.1977 17.7648 55.5293 17.4835C55.871 17.2021 56.0418 16.7901 56.0418 16.2475C56.0418 15.8557 55.9162 15.5693 55.665 15.3884C55.4138 15.1975 55.0671 15.102 54.625 15.102H53.7508L53.2082 17.9055ZM63.9684 23.1809C63.5463 23.1809 63.1746 23.1105 62.853 22.9699C62.5415 22.8191 62.2702 22.6383 62.0391 22.4272C61.818 22.2162 61.6372 22.0153 61.4965 21.8243L63.0037 20.5583C63.1444 20.7492 63.3002 20.915 63.471 21.0557C63.6518 21.1863 63.8679 21.2516 64.1191 21.2516C64.4607 21.2516 64.7823 21.1612 65.0837 20.9803C65.3852 20.7894 65.6515 20.503 65.8826 20.1212C66.1237 19.7293 66.3096 19.2319 66.4403 18.629C66.5809 18.0261 66.6513 17.3076 66.6513 16.4736C66.6513 16.1521 66.6061 15.8858 66.5156 15.6748C66.4352 15.4638 66.3197 15.308 66.1689 15.2075C66.0182 15.097 65.8474 15.0417 65.6565 15.0417C65.3852 15.0417 65.1641 15.1372 64.9933 15.3281C64.8325 15.519 64.7119 15.7501 64.6316 16.0214C64.5512 16.2827 64.511 16.5339 64.511 16.7751C64.511 17.1167 64.5813 17.383 64.722 17.5739C64.8727 17.7548 65.0837 17.8452 65.355 17.8452C65.4857 17.8452 65.6213 17.8151 65.762 17.7548C65.9127 17.6945 66.0685 17.594 66.2292 17.4533C66.39 17.3127 66.5608 17.1217 66.7417 16.8806L66.5156 18.5687C66.2644 18.85 65.9579 19.0711 65.5962 19.2319C65.2445 19.3927 64.9431 19.473 64.6918 19.473C64.2497 19.473 63.8478 19.3876 63.4861 19.2168C63.1243 19.046 62.8379 18.7747 62.6269 18.4029C62.4159 18.0311 62.3104 17.5538 62.3104 16.971C62.3104 16.5088 62.3908 16.0566 62.5516 15.6145C62.7224 15.1724 62.9635 14.7755 63.275 14.4238C63.5865 14.0721 63.9533 13.7907 64.3753 13.5797C64.7974 13.3687 65.2646 13.2632 65.7771 13.2632C66.4101 13.2632 66.9577 13.4089 67.42 13.7003C67.8922 13.9917 68.254 14.3986 68.5052 14.9212C68.7564 15.4336 68.882 16.0365 68.882 16.7299C68.882 17.7045 68.7614 18.5888 68.5203 19.3826C68.2791 20.1764 67.9375 20.8597 67.4953 21.4325C67.0632 21.9952 66.5458 22.4272 65.9429 22.7287C65.34 23.0301 64.6818 23.1809 63.9684 23.1809Z" fill="url(#paint0_linear_669_2950)"/>
<defs>
<linearGradient id="paint0_linear_669_2950" x1="53" y1="8" x2="53" y2="29" gradientUnits="userSpaceOnUse">
<stop stop-color="#FFDA92"/>
<stop offset="1" stop-color="#E39130"/>
</linearGradient>
</defs>
</svg>
