<svg width="76" height="36" viewBox="0 0 76 36" fill="none" xmlns="http://www.w3.org/2000/svg">
<path d="M14 7H65C71.0751 7 76 11.9249 76 18C76 24.0751 71.0751 29 65 29H14V7Z" fill="#00304B"/>
<path d="M35.9896 23L35.1757 13.2029H37.7078L37.8887 17.7849C37.9088 18.2974 37.9239 18.8149 37.9339 19.3374C37.944 19.8499 37.949 20.3673 37.949 20.8899H38.0093C38.2303 20.3673 38.4464 19.8499 38.6574 19.3374C38.8684 18.8249 39.0844 18.3074 39.3055 17.7849L41.2951 13.2029H43.9478L38.9136 23H35.9896ZM43.0762 23L45.0356 13.2029H47.4472L45.4878 23H43.0762ZM47.7716 23L49.7311 13.2029H52.9566C53.6097 13.2029 54.1975 13.2933 54.72 13.4742C55.2426 13.645 55.6545 13.9264 55.956 14.3183C56.2675 14.7101 56.4232 15.2327 56.4232 15.8858C56.4232 16.5992 56.2976 17.2071 56.0464 17.7096C55.8053 18.212 55.4686 18.6189 55.0366 18.9304C54.6045 19.2319 54.1121 19.4529 53.5595 19.5936C53.0068 19.7343 52.424 19.8046 51.8111 19.8046H50.8163L50.1832 23H47.7716ZM51.2082 17.9055H52.0974C52.7204 17.9055 53.1977 17.7648 53.5293 17.4835C53.871 17.2021 54.0418 16.7901 54.0418 16.2475C54.0418 15.8557 53.9162 15.5693 53.665 15.3884C53.4138 15.1975 53.0671 15.102 52.625 15.102H51.7508L51.2082 17.9055ZM62.511 23.1809C62.1291 23.1809 61.7322 23.1256 61.3203 23.0151C60.9183 22.9045 60.5264 22.7237 60.1446 22.4725C59.7628 22.2112 59.4161 21.8645 59.1046 21.4325L60.6118 20.1965C60.7827 20.4276 60.9736 20.6236 61.1846 20.7843C61.3956 20.9351 61.6117 21.0506 61.8327 21.131C62.0538 21.2114 62.2598 21.2516 62.4507 21.2516C62.7521 21.2516 63.0084 21.2114 63.2194 21.131C63.4404 21.0406 63.6062 20.915 63.7168 20.7542C63.8374 20.5934 63.8976 20.3975 63.8976 20.1664C63.8976 19.9152 63.8374 19.7042 63.7168 19.5333C63.5962 19.3525 63.3751 19.2168 63.0536 19.1264C62.7421 19.0359 62.2899 18.9907 61.6971 18.9907L62.0287 17.3026C62.5009 17.3026 62.8878 17.2725 63.1892 17.2122C63.4907 17.1418 63.7268 17.0514 63.8976 16.9409C64.0785 16.8203 64.2041 16.6846 64.2745 16.5339C64.3448 16.3731 64.38 16.1973 64.38 16.0064C64.38 15.7451 64.2895 15.5391 64.1087 15.3884C63.9278 15.2377 63.6766 15.1623 63.355 15.1623C63.144 15.1623 62.933 15.2075 62.722 15.298C62.521 15.3884 62.2698 15.5241 61.9684 15.7049L60.8229 14.1675C61.3353 13.8158 61.8327 13.5797 62.315 13.4591C62.7974 13.3285 63.2947 13.2632 63.8072 13.2632C64.4001 13.2632 64.9226 13.3637 65.3747 13.5646C65.837 13.7556 66.1987 14.0269 66.46 14.3786C66.7212 14.7302 66.8518 15.1422 66.8518 15.6145C66.8518 16.2174 66.7061 16.7248 66.4147 17.1368C66.1334 17.5488 65.6159 17.8854 64.8623 18.1467V18.207C65.3747 18.418 65.7415 18.6993 65.9626 19.051C66.1937 19.4027 66.3092 19.7845 66.3092 20.1965C66.3092 20.8497 66.1384 21.3973 65.7968 21.8394C65.4652 22.2815 65.013 22.6182 64.4403 22.8493C63.8675 23.0703 63.2244 23.1809 62.511 23.1809Z" fill="#7AEED9"/>
<path d="M4.5 18L18 31.5L31.5 18L18 4.5L4.5 18Z" fill="#63EAD1"/>
<path fill-rule="evenodd" clip-rule="evenodd" d="M3.96967 17.4697C3.67678 17.7626 3.67678 18.2374 3.96967 18.5303L17.4697 32.0303C17.7626 32.3232 18.2374 32.3232 18.5303 32.0303L32.0303 18.5303C32.171 18.3897 32.25 18.1989 32.25 18C32.25 17.8011 32.171 17.6103 32.0303 17.4697L18.5303 3.96967C18.3897 3.82902 18.1989 3.75 18 3.75C17.8011 3.75 17.6103 3.82902 17.4697 3.96967L3.96967 17.4697ZM4.5 18L18 31.5L31.5 18L18 4.5L4.5 18Z" fill="#02476F"/>
<path d="M22.125 21.375C22.125 21.5821 21.9571 21.75 21.75 21.75C21.5429 21.75 21.375 21.5821 21.375 21.375C21.375 21.1679 21.5429 21 21.75 21C21.9571 21 22.125 21.1679 22.125 21.375Z" fill="#50D5BC"/>
<path d="M22.125 22.875C22.125 23.0821 21.9571 23.25 21.75 23.25C21.5429 23.25 21.375 23.0821 21.375 22.875C21.375 22.6679 21.5429 22.5 21.75 22.5C21.9571 22.5 22.125 22.6679 22.125 22.875Z" fill="#50D5BC"/>
<path d="M20.625 24.375C20.625 24.5821 20.4571 24.75 20.25 24.75C20.0429 24.75 19.875 24.5821 19.875 24.375C19.875 24.1679 20.0429 24 20.25 24C20.4571 24 20.625 24.1679 20.625 24.375Z" fill="#50D5BC"/>
<path d="M19.5 25.875C19.5 26.0821 19.3321 26.25 19.125 26.25C18.9179 26.25 18.75 26.0821 18.75 25.875C18.75 25.6679 18.9179 25.5 19.125 25.5C19.3321 25.5 19.5 25.6679 19.5 25.875Z" fill="#50D5BC"/>
<path d="M20.25 20.25C20.25 20.4571 20.0821 20.625 19.875 20.625C19.6679 20.625 19.5 20.4571 19.5 20.25C19.5 20.0429 19.6679 19.875 19.875 19.875C20.0821 19.875 20.25 20.0429 20.25 20.25Z" fill="#50D5BC"/>
<path d="M24 19.125C24 19.3321 23.8321 19.5 23.625 19.5C23.4179 19.5 23.25 19.3321 23.25 19.125C23.25 18.9179 23.4179 18.75 23.625 18.75C23.8321 18.75 24 18.9179 24 19.125Z" fill="#50D5BC"/>
<path d="M22.125 19.3125C22.125 19.6232 21.8732 19.875 21.5625 19.875C21.2518 19.875 21 19.6232 21 19.3125C21 19.0018 21.2518 18.75 21.5625 18.75C21.8732 18.75 22.125 19.0018 22.125 19.3125Z" fill="#50D5BC"/>
<path d="M20.625 22.6875C20.625 22.9982 20.3732 23.25 20.0625 23.25C19.7518 23.25 19.5 22.9982 19.5 22.6875C19.5 22.3768 19.7518 22.125 20.0625 22.125C20.3732 22.125 20.625 22.3768 20.625 22.6875Z" fill="#50D5BC"/>
<path d="M4.5 18L18 4.5L31.5 18L4.5 18Z" fill="#77F9E1"/>
<path fill-rule="evenodd" clip-rule="evenodd" d="M17.9708 6.035C18.1585 6.1224 18.2399 6.34547 18.1525 6.53323L13.09 17.4082C13.0026 17.596 12.7795 17.6773 12.5918 17.5899C12.404 17.5025 12.3227 17.2795 12.4101 17.0917L17.4726 6.21671C17.56 6.02895 17.783 5.94759 17.9708 6.035Z" fill="#DFFFF9"/>
<path d="M11.25 18L18 31.5L4.5 18L18 4.5L11.25 18Z" fill="#5AD9C2"/>
<path d="M7.5 18L18 31.5L4.5 18L18 4.5L7.5 18Z" fill="#84F8E3"/>
<path d="M11.25 18L18 4.5L4.5 18L11.25 18Z" fill="#7AEED9"/>
<path d="M7.5 18L18 4.5L4.5 18L7.5 18Z" fill="#B1FFF1"/>
<path d="M24.75 18L18 31.5L31.5 18L18 4.5L24.75 18Z" fill="#2E90A6"/>
<path d="M24.75 18L18 4.5L31.5 18L24.75 18Z" fill="#4AACC2"/>
<path d="M28.5 18L18 31.5L31.5 18L18 4.5L28.5 18Z" fill="#1EB5AC"/>
<path d="M28.5 18L18 4.5L31.5 18L28.5 18Z" fill="#30CFC6"/>
<path fill-rule="evenodd" clip-rule="evenodd" d="M11.8809 11.3509C12.0323 11.4922 12.0405 11.7295 11.8991 11.8809L6.64915 17.5059C6.50783 17.6573 6.27054 17.6655 6.11913 17.5241C5.96773 17.3828 5.95954 17.1455 6.10086 16.9941L11.3509 11.3691C11.4922 11.2177 11.7295 11.2095 11.8809 11.3509Z" fill="white"/>
<path d="M20.5701 16.9871C21.0642 17.1536 21.4321 17.4275 21.6738 17.8088C21.9155 18.1848 22.0364 19.071 22.0364 20.4675C22.0364 21.5042 21.9182 22.3098 21.6819 22.8845C21.4456 23.4539 21.0374 23.8889 20.4573 24.1897C19.8772 24.4851 19.1333 24.6328 18.2256 24.6328C17.1943 24.6328 16.3833 24.4609 15.7925 24.1172C15.207 23.7681 14.8203 23.3438 14.6323 22.8442C14.4497 22.3394 14.3584 21.4666 14.3584 20.2258V19.1946H17.6133V21.3135C17.6133 21.8774 17.6455 22.2373 17.71 22.3931C17.7798 22.5435 17.9302 22.6187 18.1611 22.6187C18.4136 22.6187 18.5801 22.522 18.6606 22.3286C18.7412 22.1353 18.7815 21.6304 18.7815 20.814V19.9116C18.7815 19.4121 18.7251 19.0469 18.6123 18.8159C18.4995 18.585 18.333 18.4346 18.1128 18.3647C17.8926 18.2896 17.4656 18.2466 16.8318 18.2358V16.3425C17.6052 16.3425 18.0833 16.313 18.2659 16.2539C18.4485 16.1948 18.5801 16.0659 18.6606 15.8672C18.7412 15.6685 18.7815 15.3569 18.7815 14.9326V14.2075C18.7815 13.751 18.7332 13.4502 18.6365 13.3052C18.5452 13.1602 18.4001 13.0876 18.2014 13.0876C17.9758 13.0876 17.8201 13.1655 17.7341 13.3213C17.6536 13.4717 17.6133 13.7966 17.6133 14.2961V15.3677H14.3584V14.2559C14.3584 13.0098 14.6431 12.1692 15.2124 11.7341C15.7817 11.2937 16.6868 11.0735 17.9275 11.0735C19.4797 11.0735 20.5325 11.377 21.0857 11.9839C21.6389 12.5908 21.9155 13.4341 21.9155 14.5137C21.9155 15.2441 21.8162 15.7732 21.6174 16.1008C21.4187 16.4231 21.0696 16.7185 20.5701 16.9871Z" fill="#02476F"/>
</svg>
