<svg width="78" height="36" viewBox="0 0 78 36" fill="none" xmlns="http://www.w3.org/2000/svg">
<path d="M16 7H67C73.0751 7 78 11.9249 78 18C78 24.0751 73.0751 29 67 29H16V7Z" fill="#2B2B2E"/>
<path d="M37.9896 23L37.1757 13.2029H39.7078L39.8887 17.7849C39.9088 18.2974 39.9239 18.8149 39.9339 19.3374C39.944 19.8499 39.949 20.3673 39.949 20.8899H40.0093C40.2303 20.3673 40.4464 19.8499 40.6574 19.3374C40.8684 18.8249 41.0844 18.3074 41.3055 17.7849L43.2951 13.2029H45.9478L40.9136 23H37.9896ZM45.0762 23L47.0356 13.2029H49.4472L47.4878 23H45.0762ZM49.7716 23L51.7311 13.2029H54.9566C55.6097 13.2029 56.1975 13.2933 56.72 13.4742C57.2426 13.645 57.6545 13.9264 57.956 14.3183C58.2675 14.7101 58.4232 15.2327 58.4232 15.8858C58.4232 16.5992 58.2976 17.2071 58.0464 17.7096C57.8053 18.212 57.4686 18.6189 57.0366 18.9304C56.6045 19.2319 56.1121 19.4529 55.5595 19.5936C55.0068 19.7343 54.424 19.8046 53.8111 19.8046H52.8163L52.1832 23H49.7716ZM53.2082 17.9055H54.0974C54.7204 17.9055 55.1977 17.7648 55.5293 17.4835C55.871 17.2021 56.0418 16.7901 56.0418 16.2475C56.0418 15.8557 55.9162 15.5693 55.665 15.3884C55.4138 15.1975 55.0671 15.102 54.625 15.102H53.7508L53.2082 17.9055ZM67.2542 23H65.0536L65.4907 20.7994H61.4663L61.7979 19.1113L66.2292 13.4441H69.1533L68.053 18.9606H69.093L68.7313 20.7994H67.6913L67.2542 23ZM64.1492 18.9606H65.8524L66.1087 17.6643C66.189 17.3026 66.2745 16.9358 66.3649 16.5641C66.4654 16.1923 66.5508 15.8255 66.6211 15.4638H66.5608C66.38 15.7652 66.1941 16.0667 66.0032 16.3681C65.8122 16.6696 65.6062 16.971 65.3852 17.2725L64.1492 18.9606Z" fill="#E1FF6B"/>
<path d="M32.625 13.875L18 31.875L3.375 13.875L11.25 4.875H24.75L32.625 13.875Z" fill="#D1FA2D"/>
<path fill-rule="evenodd" clip-rule="evenodd" d="M18 32.625C17.7742 32.625 17.5603 32.5232 17.4179 32.3479L2.79291 14.3479C2.56253 14.0644 2.56998 13.6561 2.81057 13.3811L10.6856 4.38112C10.828 4.21836 11.0337 4.125 11.25 4.125H24.75C24.9663 4.125 25.172 4.21836 25.3144 4.38112L33.1894 13.3811C33.43 13.6561 33.4375 14.0644 33.2071 14.3479L18.5821 32.3479C18.4397 32.5232 18.2258 32.625 18 32.625ZM11.25 4.875H24.75L32.625 13.875L18 31.875L3.375 13.875L11.25 4.875Z" fill="#384B00"/>
<path d="M24.75 4.875L32.625 13.875H3.375L11.25 4.875H24.75Z" fill="#E1FF6B"/>
<path d="M32.625 13.875L18 31.875V4.875H24.75L32.625 13.875Z" fill="#AFD02A"/>
<path d="M32.625 13.875H18V4.875H24.75L32.625 13.875Z" fill="#C3E43B"/>
<path d="M3.375 13.875L18 31.875L10.5 13.875L18 4.875H11.25L3.375 13.875Z" fill="#E3E73C"/>
<path d="M11.625 4.875L3.375 13.875H10.5L18 4.875H11.625Z" fill="#F0F36F"/>
<path d="M3.375 13.875L18 31.875L6 13.875L13.875 4.875H11.25L3.375 13.875Z" fill="#FFF9C1"/>
<path d="M11.25 4.875L3.375 13.875H6L13.875 4.875H11.25Z" fill="#FEF9CF"/>
<path d="M32.625 13.875L18 31.875L25.5 13.875L18 4.875H24.75L32.625 13.875Z" fill="#63C038"/>
<path d="M24.75 4.875L32.625 13.875H25.5L18 4.875H24.75Z" fill="#75D04A"/>
<path d="M32.625 13.875L18 31.875L30 13.875L22.125 4.875H24.75L32.625 13.875Z" fill="#AFD02A"/>
<path d="M24.75 4.875L32.625 13.875H30L22.125 4.875H24.75Z" fill="#C5E447"/>
<path fill-rule="evenodd" clip-rule="evenodd" d="M9.9956 7.21662C10.1521 7.35226 10.169 7.5891 10.0334 7.7456L5.15839 13.3706C5.02275 13.5271 4.78592 13.544 4.62941 13.4084C4.4729 13.2727 4.45598 13.0359 4.59162 12.8794L9.46662 7.25441C9.60226 7.0979 9.8391 7.08098 9.9956 7.21662Z" fill="white"/>
<path fill-rule="evenodd" clip-rule="evenodd" d="M17.1206 7.21662C17.2771 7.35226 17.294 7.5891 17.1584 7.7456L12.2834 13.3706C12.1477 13.5271 11.9109 13.544 11.7544 13.4084C11.5979 13.2727 11.581 13.0359 11.7166 12.8794L16.5916 7.25441C16.7273 7.0979 16.9641 7.08098 17.1206 7.21662Z" fill="#F8FFDA"/>
<path d="M21.375 18.75C21.375 18.9571 21.2071 19.125 21 19.125C20.7929 19.125 20.625 18.9571 20.625 18.75C20.625 18.5429 20.7929 18.375 21 18.375C21.2071 18.375 21.375 18.5429 21.375 18.75Z" fill="#99BC0D"/>
<path d="M22.5 20.25C22.5 20.4571 22.3321 20.625 22.125 20.625C21.9179 20.625 21.75 20.4571 21.75 20.25C21.75 20.0429 21.9179 19.875 22.125 19.875C22.3321 19.875 22.5 20.0429 22.5 20.25Z" fill="#99BC0D"/>
<path d="M21 22.125C21 22.3321 20.8321 22.5 20.625 22.5C20.4179 22.5 20.25 22.3321 20.25 22.125C20.25 21.9179 20.4179 21.75 20.625 21.75C20.8321 21.75 21 21.9179 21 22.125Z" fill="#99BC0D"/>
<path d="M19.875 22.875C19.875 23.0821 19.7071 23.25 19.5 23.25C19.2929 23.25 19.125 23.0821 19.125 22.875C19.125 22.6679 19.2929 22.5 19.5 22.5C19.7071 22.5 19.875 22.6679 19.875 22.875Z" fill="#99BC0D"/>
<path d="M19.875 25.125C19.875 25.3321 19.7071 25.5 19.5 25.5C19.2929 25.5 19.125 25.3321 19.125 25.125C19.125 24.9179 19.2929 24.75 19.5 24.75C19.7071 24.75 19.875 24.9179 19.875 25.125Z" fill="#99BC0D"/>
<path d="M20.25 17.625C20.25 17.8321 20.0821 18 19.875 18C19.6679 18 19.5 17.8321 19.5 17.625C19.5 17.4179 19.6679 17.25 19.875 17.25C20.0821 17.25 20.25 17.4179 20.25 17.625Z" fill="#99BC0D"/>
<path d="M23.25 16.875C23.25 17.0821 23.0821 17.25 22.875 17.25C22.6679 17.25 22.5 17.0821 22.5 16.875C22.5 16.6679 22.6679 16.5 22.875 16.5C23.0821 16.5 23.25 16.6679 23.25 16.875Z" fill="#99BC0D"/>
<path d="M21.75 16.6875C21.75 16.9982 21.4982 17.25 21.1875 17.25C20.8768 17.25 20.625 16.9982 20.625 16.6875C20.625 16.3768 20.8768 16.125 21.1875 16.125C21.4982 16.125 21.75 16.3768 21.75 16.6875Z" fill="#99BC0D"/>
<path d="M21 20.4375C21 20.7482 20.7482 21 20.4375 21C20.1268 21 19.875 20.7482 19.875 20.4375C19.875 20.1268 20.1268 19.875 20.4375 19.875C20.7482 19.875 21 20.1268 21 20.4375Z" fill="#99BC0D"/>
<path d="M20.7188 9.0813V17.6052H21.6453V19.8289H20.7188V22.125H17.4639V19.8289H13.5967V17.6052L16.4084 9.0813H20.7188ZM17.4639 17.6052V12.0542L16.0298 17.6052H17.4639Z" fill="#384B00"/>
</svg>
