<svg width="78" height="36" viewBox="0 0 78 36" fill="none" xmlns="http://www.w3.org/2000/svg">
<path d="M16 7H67C73.0751 7 78 11.9249 78 18C78 24.0751 73.0751 29 67 29H16V7Z" fill="#A9A9A9"/>
<path d="M37.9896 23L37.1757 13.2029H39.7078L39.8887 17.7849C39.9088 18.2974 39.9239 18.8149 39.9339 19.3374C39.944 19.8499 39.949 20.3673 39.949 20.8899H40.0093C40.2303 20.3673 40.4464 19.8499 40.6574 19.3374C40.8684 18.8249 41.0844 18.3074 41.3055 17.7849L43.2951 13.2029H45.9478L40.9136 23H37.9896ZM45.0762 23L47.0356 13.2029H49.4472L47.4878 23H45.0762ZM49.7716 23L51.7311 13.2029H54.9566C55.6097 13.2029 56.1975 13.2933 56.72 13.4742C57.2426 13.645 57.6545 13.9264 57.956 14.3183C58.2675 14.7101 58.4232 15.2327 58.4232 15.8858C58.4232 16.5992 58.2976 17.2071 58.0464 17.7096C57.8053 18.212 57.4686 18.6189 57.0366 18.9304C56.6045 19.2319 56.1121 19.4529 55.5595 19.5936C55.0068 19.7343 54.424 19.8046 53.8111 19.8046H52.8163L52.1832 23H49.7716ZM53.2082 17.9055H54.0974C54.7204 17.9055 55.1977 17.7648 55.5293 17.4835C55.871 17.2021 56.0418 16.7901 56.0418 16.2475C56.0418 15.8557 55.9162 15.5693 55.665 15.3884C55.4138 15.1975 55.0671 15.102 54.625 15.102H53.7508L53.2082 17.9055ZM64.7521 23.1809C64.2296 23.1809 63.7523 23.0603 63.3203 22.8191C62.8982 22.5679 62.5566 22.1861 62.2953 21.6736C62.0441 21.1511 61.9185 20.4879 61.9185 19.6841C61.9185 18.7898 61.9989 17.9959 62.1597 17.3026C62.3305 16.5992 62.5616 15.9963 62.853 15.4939C63.1444 14.9814 63.471 14.5644 63.8327 14.2429C64.2045 13.9113 64.5964 13.6651 65.0084 13.5043C65.4204 13.3436 65.8273 13.2632 66.2292 13.2632C66.7518 13.2632 67.224 13.3888 67.6461 13.64C68.0681 13.8912 68.4047 14.2781 68.6559 14.8006C68.9071 15.313 69.0327 15.9762 69.0327 16.7901C69.0327 17.6844 68.9473 18.4833 68.7765 19.1867C68.6157 19.88 68.3896 20.4779 68.0982 20.9803C67.8169 21.4827 67.4903 21.8997 67.1185 22.2313C66.7568 22.5529 66.3699 22.794 65.9579 22.9548C65.556 23.1055 65.1541 23.1809 64.7521 23.1809ZM64.9029 21.342C65.0837 21.342 65.2646 21.2667 65.4455 21.1159C65.6263 20.9652 65.7972 20.7492 65.9579 20.4678C66.1288 20.1865 66.2795 19.8499 66.4101 19.458C66.5407 19.056 66.6412 18.6089 66.7116 18.1165C66.7919 17.6242 66.8321 17.0916 66.8321 16.5188C66.8321 16.1471 66.802 15.8607 66.7417 15.6597C66.6814 15.4487 66.591 15.303 66.4704 15.2226C66.3599 15.1422 66.2292 15.102 66.0785 15.102C65.8976 15.102 65.7168 15.1774 65.5359 15.3281C65.355 15.4788 65.1792 15.6999 65.0084 15.9913C64.8476 16.2727 64.7019 16.6143 64.5713 17.0162C64.4406 17.4081 64.3351 17.8553 64.2547 18.3577C64.1844 18.85 64.1492 19.3826 64.1492 19.9554C64.1492 20.3271 64.1794 20.6135 64.2397 20.8145C64.3 21.0155 64.3854 21.1561 64.4959 21.2365C64.6165 21.3069 64.7521 21.342 64.9029 21.342Z" fill="white"/>
<path d="M4.5 18L18 31.5L31.5 18L18 4.5L4.5 18Z" fill="#A0A0A0"/>
<path fill-rule="evenodd" clip-rule="evenodd" d="M3.96967 17.4697C3.67678 17.7626 3.67678 18.2374 3.96967 18.5303L17.4697 32.0303C17.7626 32.3232 18.2374 32.3232 18.5303 32.0303L32.0303 18.5303C32.171 18.3897 32.25 18.1989 32.25 18C32.25 17.8011 32.171 17.6103 32.0303 17.4697L18.5303 3.96967C18.3897 3.82902 18.1989 3.75 18 3.75C17.8011 3.75 17.6103 3.82902 17.4697 3.96967L3.96967 17.4697ZM4.5 18L18 31.5L31.5 18L18 4.5L4.5 18Z" fill="#808080"/>
<path d="M22.125 21.375C22.125 21.5821 21.9571 21.75 21.75 21.75C21.5429 21.75 21.375 21.5821 21.375 21.375C21.375 21.1679 21.5429 21 21.75 21C21.9571 21 22.125 21.1679 22.125 21.375Z" fill="#E4E4E4"/>
<path d="M22.125 22.875C22.125 23.0821 21.9571 23.25 21.75 23.25C21.5429 23.25 21.375 23.0821 21.375 22.875C21.375 22.6679 21.5429 22.5 21.75 22.5C21.9571 22.5 22.125 22.6679 22.125 22.875Z" fill="#E4E4E4"/>
<path d="M20.625 24.375C20.625 24.5821 20.4571 24.75 20.25 24.75C20.0429 24.75 19.875 24.5821 19.875 24.375C19.875 24.1679 20.0429 24 20.25 24C20.4571 24 20.625 24.1679 20.625 24.375Z" fill="#E4E4E4"/>
<path d="M19.5 25.875C19.5 26.0821 19.3321 26.25 19.125 26.25C18.9179 26.25 18.75 26.0821 18.75 25.875C18.75 25.6679 18.9179 25.5 19.125 25.5C19.3321 25.5 19.5 25.6679 19.5 25.875Z" fill="#E4E4E4"/>
<path d="M20.25 20.25C20.25 20.4571 20.0821 20.625 19.875 20.625C19.6679 20.625 19.5 20.4571 19.5 20.25C19.5 20.0429 19.6679 19.875 19.875 19.875C20.0821 19.875 20.25 20.0429 20.25 20.25Z" fill="#E4E4E4"/>
<path d="M24 19.125C24 19.3321 23.8321 19.5 23.625 19.5C23.4179 19.5 23.25 19.3321 23.25 19.125C23.25 18.9179 23.4179 18.75 23.625 18.75C23.8321 18.75 24 18.9179 24 19.125Z" fill="#E4E4E4"/>
<path d="M22.125 19.3125C22.125 19.6232 21.8732 19.875 21.5625 19.875C21.2518 19.875 21 19.6232 21 19.3125C21 19.0018 21.2518 18.75 21.5625 18.75C21.8732 18.75 22.125 19.0018 22.125 19.3125Z" fill="#E4E4E4"/>
<path d="M20.625 22.6875C20.625 22.9982 20.3732 23.25 20.0625 23.25C19.7518 23.25 19.5 22.9982 19.5 22.6875C19.5 22.3768 19.7518 22.125 20.0625 22.125C20.3732 22.125 20.625 22.3768 20.625 22.6875Z" fill="#E4E4E4"/>
<path d="M4.5 18L18 4.5L31.5 18L4.5 18Z" fill="#B8B8B8"/>
<path fill-rule="evenodd" clip-rule="evenodd" d="M17.9708 6.035C18.1585 6.1224 18.2399 6.34547 18.1525 6.53323L13.09 17.4082C13.0026 17.596 12.7795 17.6773 12.5918 17.5899C12.404 17.5025 12.3227 17.2795 12.4101 17.0917L17.4726 6.21671C17.56 6.02895 17.783 5.94759 17.9708 6.035Z" fill="#DADADA"/>
<path d="M11.25 18L18 31.5L4.5 18L18 4.5L11.25 18Z" fill="#CCCCCC"/>
<path d="M7.5 18L18 31.5L4.5 18L18 4.5L7.5 18Z" fill="#E4E4E4"/>
<path d="M11.25 18L18 4.5L4.5 18L11.25 18Z" fill="#DADADA"/>
<path d="M7.5 18L18 4.5L4.5 18L7.5 18Z" fill="#F3F3F3"/>
<path d="M24.75 18L18 31.5L31.5 18L18 4.5L24.75 18Z" fill="#919191"/>
<path d="M24.75 18L18 4.5L31.5 18L24.75 18Z" fill="#DADADA"/>
<path d="M28.5 18L18 31.5L31.5 18L18 4.5L28.5 18Z" fill="#A0A0A0"/>
<path d="M28.5 18L18 4.5L31.5 18L28.5 18Z" fill="#B8B8B8"/>
<path fill-rule="evenodd" clip-rule="evenodd" d="M11.8809 11.3509C12.0323 11.4922 12.0405 11.7295 11.8991 11.8809L6.64915 17.5059C6.50783 17.6573 6.27054 17.6655 6.11913 17.5241C5.96773 17.3828 5.95954 17.1455 6.10086 16.9941L11.3509 11.3691C11.4922 11.2177 11.7295 11.2095 11.8809 11.3509Z" fill="#FFFEF9"/>
<path d="M22.1272 15.739V20.0896C22.1272 21.0779 22.0735 21.7976 21.9661 22.2488C21.8586 22.7 21.6357 23.1216 21.2974 23.5137C20.959 23.9058 20.5508 24.1877 20.0728 24.3596C19.5947 24.5315 19.0603 24.6174 18.4695 24.6174C17.6907 24.6174 17.0435 24.5288 16.5278 24.3516C16.0122 24.1689 15.6013 23.887 15.2952 23.5056C14.989 23.1243 14.7715 22.7241 14.6426 22.3052C14.5137 21.8809 14.4492 21.2095 14.4492 20.291V15.739C14.4492 14.5413 14.5513 13.6443 14.7554 13.0481C14.9648 12.4519 15.3757 11.9739 15.988 11.614C16.6057 11.2542 17.3523 11.0742 18.2278 11.0742C18.9421 11.0742 19.5813 11.2004 20.1453 11.4529C20.7092 11.7 21.1309 12.0034 21.4102 12.3633C21.6895 12.7231 21.8774 13.1287 21.9741 13.5798C22.0762 14.031 22.1272 14.7507 22.1272 15.739ZM18.8723 14.6433C18.8723 13.9504 18.8374 13.5181 18.7676 13.3462C18.7031 13.1689 18.5474 13.0803 18.3003 13.0803C18.0586 13.0803 17.8975 13.1743 17.8169 13.3623C17.7417 13.5449 17.7041 13.9719 17.7041 14.6433V21.0081C17.7041 21.7654 17.739 22.2219 17.8088 22.3777C17.884 22.5334 18.0425 22.6113 18.2842 22.6113C18.5259 22.6113 18.6843 22.52 18.7595 22.3374C18.8347 22.1548 18.8723 21.7439 18.8723 21.1047V14.6433Z" fill="#353535"/>
</svg>
