<svg width="336" height="190" viewBox="0 0 336 190" fill="none" xmlns="http://www.w3.org/2000/svg">
<ellipse cx="127.46" cy="79.902" rx="18.1749" ry="7.7272" stroke="#E3E3E3"/>
<path fill-rule="evenodd" clip-rule="evenodd" d="M109.285 79.9424H109.285V117.211C109.285 148.642 134.805 174.122 166.285 174.122C197.765 174.122 223.285 148.642 223.285 117.211V102.996H223.269C223.278 103.101 223.283 103.206 223.283 103.312C223.283 107.58 215.146 111.039 205.109 111.039C195.071 111.039 186.934 107.58 186.934 103.312C186.934 103.206 186.939 103.101 186.948 102.996H186.926V117.211C186.926 128.593 177.685 137.82 166.285 137.82C154.885 137.82 145.644 128.593 145.644 117.211V79.9424H145.635C145.584 84.1914 137.466 87.6292 127.46 87.6292C117.454 87.6292 109.337 84.1914 109.285 79.9424Z" fill="#2B2B2E"/>
<path d="M109.285 79.9424L109.785 79.9364L109.779 79.4424H109.285V79.9424ZM109.285 79.9424V79.4424H108.785V79.9424H109.285ZM223.285 102.996H223.785V102.496H223.285V102.996ZM223.269 102.996V102.496H222.719L222.771 103.043L223.269 102.996ZM186.948 102.996L187.446 103.043L187.498 102.496H186.948V102.996ZM186.926 102.996V102.496H186.426V102.996H186.926ZM145.644 79.9424H146.144V79.4424H145.644V79.9424ZM145.635 79.9424V79.4424H145.141L145.135 79.9364L145.635 79.9424ZM109.285 79.4424H109.285V80.4424H109.285V79.4424ZM108.785 79.9424V117.211H109.785V79.9424H108.785ZM108.785 117.211C108.785 148.919 134.53 174.622 166.285 174.622V173.622C135.08 173.622 109.785 148.365 109.785 117.211H108.785ZM166.285 174.622C198.041 174.622 223.785 148.919 223.785 117.211H222.785C222.785 148.365 197.49 173.622 166.285 173.622V174.622ZM223.785 117.211V102.996H222.785V117.211H223.785ZM223.285 102.496H223.269V103.496H223.285V102.496ZM222.771 103.043C222.779 103.132 222.783 103.222 222.783 103.312H223.783C223.783 103.19 223.778 103.07 223.766 102.949L222.771 103.043ZM222.783 103.312C222.783 104.208 222.358 105.105 221.501 105.967C220.641 106.831 219.372 107.632 217.765 108.316C214.551 109.682 210.077 110.539 205.109 110.539V111.539C210.178 111.539 214.791 110.667 218.156 109.236C219.837 108.521 221.23 107.657 222.21 106.672C223.191 105.685 223.783 104.549 223.783 103.312H222.783ZM205.109 110.539C200.14 110.539 195.666 109.682 192.453 108.316C190.845 107.632 189.576 106.831 188.716 105.967C187.859 105.105 187.434 104.208 187.434 103.312H186.434C186.434 104.549 187.026 105.685 188.007 106.672C188.987 107.657 190.38 108.521 192.061 109.236C195.426 110.667 200.039 111.539 205.109 111.539V110.539ZM187.434 103.312C187.434 103.222 187.438 103.132 187.446 103.043L186.451 102.949C186.439 103.07 186.434 103.19 186.434 103.312H187.434ZM186.948 102.496H186.926V103.496H186.948V102.496ZM186.426 102.996V117.211H187.426V102.996H186.426ZM186.426 117.211C186.426 128.316 177.41 137.32 166.285 137.32V138.32C177.96 138.32 187.426 128.87 187.426 117.211H186.426ZM166.285 137.32C155.161 137.32 146.144 128.316 146.144 117.211H145.144C145.144 128.87 154.61 138.32 166.285 138.32V137.32ZM146.144 117.211V79.9424H145.144V117.211H146.144ZM145.644 79.4424H145.635V80.4424H145.644V79.4424ZM145.135 79.9364C145.124 80.8293 144.691 81.7229 143.828 82.5815C142.963 83.4419 141.692 84.2389 140.086 84.9187C136.874 86.2775 132.413 87.1292 127.46 87.1292V88.1292C132.514 88.1292 137.114 87.262 140.475 85.8397C142.155 85.1289 143.549 84.2698 144.533 83.2905C145.519 82.3094 146.12 81.18 146.135 79.9484L145.135 79.9364ZM127.46 87.1292C122.508 87.1292 118.046 86.2775 114.834 84.9187C113.228 84.2389 111.957 83.4419 111.092 82.5815C110.229 81.7229 109.796 80.8293 109.785 79.9364L108.785 79.9484C108.8 81.18 109.401 82.3094 110.387 83.2905C111.371 84.2698 112.765 85.1289 114.445 85.8397C117.806 87.262 122.407 88.1292 127.46 88.1292V87.1292Z" fill="#E3E3E3"/>
<ellipse cx="205.109" cy="103.312" rx="18.1749" ry="7.7272" stroke="#E3E3E3"/>
<ellipse cx="202.302" cy="72.1358" rx="23.1411" ry="24.4647" transform="rotate(-15.5 202.302 72.1358)" stroke="#E3E3E3"/>
<path fill-rule="evenodd" clip-rule="evenodd" d="M213.468 96.3535C226.488 92.7427 234.005 78.8606 230.258 65.347C226.51 51.8335 212.917 43.8056 199.897 47.4164C199.19 47.6126 198.498 47.8392 197.824 48.0943C209.489 46.0277 221.193 53.6557 224.603 65.9519C228.214 78.9719 221.158 92.2955 208.842 95.711C206.256 96.4282 203.643 96.6515 201.096 96.436C205.05 97.4723 209.288 97.5127 213.468 96.3535Z" fill="#F7931A"/>
<path d="M230.258 65.347L229.776 65.4807L230.258 65.347ZM213.468 96.3535L213.335 95.8716H213.335L213.468 96.3535ZM199.897 47.4164L199.763 46.9346L199.897 47.4164ZM197.824 48.0943L197.647 47.6267L197.911 48.5866L197.824 48.0943ZM224.603 65.9519L225.085 65.8183L224.603 65.9519ZM208.842 95.711L208.976 96.1928L208.842 95.711ZM201.096 96.436L201.138 95.9378L200.969 96.9197L201.096 96.436ZM229.776 65.4807C233.454 78.7452 226.072 92.3393 213.335 95.8716L213.602 96.8353C226.905 93.146 234.556 78.9761 230.739 65.2134L229.776 65.4807ZM200.031 47.8982C212.768 44.3659 226.097 52.2161 229.776 65.4807L230.739 65.2134C226.923 51.4508 213.066 43.2454 199.763 46.9346L200.031 47.8982ZM198.001 48.5619C198.661 48.3122 199.338 48.0904 200.031 47.8982L199.763 46.9346C199.041 47.1349 198.335 47.3662 197.647 47.6267L198.001 48.5619ZM197.911 48.5866C209.302 46.5685 220.775 54.018 224.122 66.0855L225.085 65.8183C221.612 53.2935 209.675 45.4869 197.737 47.602L197.911 48.5866ZM224.122 66.0855C227.666 78.8651 220.733 91.8944 208.708 95.2292L208.976 96.1928C221.582 92.6967 228.763 79.0788 225.085 65.8183L224.122 66.0855ZM208.708 95.2292C206.18 95.9302 203.628 96.1483 201.138 95.9378L201.054 96.9343C203.659 97.1546 206.331 96.9262 208.976 96.1928L208.708 95.2292ZM213.335 95.8716C209.243 97.0064 205.094 96.9671 201.223 95.9524L200.969 96.9197C205.005 97.9776 209.334 98.0189 213.602 96.8353L213.335 95.8716Z" fill="#E3E3E3"/>
<path fill-rule="evenodd" clip-rule="evenodd" d="M213.467 67.0901C213.062 63.7979 210.196 62.7694 206.609 62.5521L206.484 57.9726L203.713 58.0501L203.833 62.5089C203.12 62.5273 202.392 62.5621 201.666 62.5969L201.62 62.5991L201.499 58.1111L198.728 58.187L198.852 62.7649L198.731 62.7706L198.731 62.7706C198.173 62.797 197.623 62.8229 197.087 62.8366L197.087 62.8222L193.262 62.9264L193.344 65.9029C193.344 65.9029 195.391 65.8073 195.358 65.8458C196.481 65.8157 196.863 66.4608 196.986 67.0245L197.128 72.2407C197.205 72.2386 197.306 72.2397 197.422 72.251L197.129 72.26L197.328 79.5678C197.287 79.9236 197.095 80.4957 196.309 80.5191C196.347 80.5492 194.295 80.5747 194.295 80.5747L193.835 83.9174L197.444 83.8182C197.831 83.8083 198.216 83.8019 198.596 83.7957L198.597 83.7957C198.875 83.7911 199.15 83.7866 199.423 83.7807L199.55 88.4113L202.32 88.3342L202.195 83.7548C202.956 83.7481 203.693 83.7336 204.411 83.7143L204.534 88.2748L207.305 88.1973L207.18 83.5758C211.835 83.1789 215.065 81.9089 215.35 77.4973C215.581 73.9458 213.88 72.4091 211.217 71.8438C212.803 70.9771 213.767 69.4998 213.467 67.0901ZM209.859 77.0961C209.948 80.2711 204.985 80.3381 202.713 80.3688L202.713 80.3688C202.508 80.3716 202.325 80.3741 202.17 80.3785L202.005 74.2424C202.194 74.2373 202.425 74.2256 202.685 74.2123L202.685 74.2123C205.011 74.0936 209.772 73.8508 209.859 77.0961ZM202.387 71.4256C204.282 71.4051 208.413 71.3603 208.334 68.4742C208.254 65.5223 204.286 65.7378 202.348 65.8431C202.129 65.8549 201.937 65.8654 201.778 65.8698L201.93 71.4328C202.06 71.4292 202.215 71.4275 202.387 71.4256Z" fill="white"/>
<path fill-rule="evenodd" clip-rule="evenodd" d="M137.84 29.281L137.157 34.4296L129.356 33.3838L128.909 36.7499C135.188 37.8847 139.774 39.765 139.577 41.2548C139.379 42.7444 134.463 43.3506 128.108 42.7922L126.675 53.59L121.117 52.8449L122.549 42.0497C116.245 40.9155 111.635 39.0301 111.833 37.5359C112.031 36.0418 116.972 35.4366 123.351 36.0026L123.797 32.6388L115.996 31.5931L116.679 26.4444L137.84 29.281ZM128.279 41.5024C133.296 41.942 137.098 41.6127 137.228 40.63C137.358 39.6474 133.775 38.3277 128.814 37.4304L128.402 40.5414C127.511 40.47 126.563 40.3687 125.588 40.238C124.629 40.1093 123.707 39.9605 122.843 39.7988L123.257 36.676C118.216 36.2322 114.39 36.5586 114.259 37.5462C114.128 38.5336 117.734 39.8589 122.716 40.7561L123.044 40.8145L123.048 40.8151C123.378 40.8723 123.713 40.9279 124.054 40.9813L124.086 40.9856L124.373 41.0302L124.457 41.0415L124.698 41.0771L126.242 41.2841L126.486 41.3135L126.574 41.3252L126.884 41.3602L126.898 41.3622C127.129 41.3879 127.357 41.4118 127.583 41.4342L127.616 41.4386L127.919 41.468L127.955 41.4728L128.279 41.5024Z" fill="white"/>
<path d="M149.484 138.308L149.953 138.133L149.009 138.463L149.484 138.308ZM122.64 148.315L123.103 148.125L122.919 147.677L122.465 147.847L122.64 148.315ZM122.637 148.316L122.462 147.848L121.993 148.023L122.168 148.492L122.637 148.316ZM124.197 152.491L123.729 152.666L123.904 153.134L124.373 152.959L124.197 152.491ZM124.199 152.49L124.668 152.315L124.493 151.847L124.024 152.022L124.199 152.49ZM124.199 152.49L123.731 152.665L123.731 152.665L124.199 152.49ZM150.999 142.358L150.53 142.534L150.534 142.543L150.538 142.552L150.999 142.358ZM149.009 138.463C149.215 139.093 149.133 139.843 148.729 140.697C148.323 141.552 147.608 142.474 146.616 143.406C144.631 145.269 141.604 147.105 137.987 148.457L138.337 149.394C142.049 148.006 145.198 146.108 147.3 144.135C148.35 143.15 149.156 142.129 149.632 141.125C150.108 140.121 150.269 139.099 149.96 138.153L149.009 138.463ZM137.987 148.457C134.359 149.813 130.861 150.414 128.138 150.305C126.776 150.251 125.631 150.021 124.767 149.638C123.904 149.256 123.355 148.74 123.103 148.125L122.178 148.505C122.557 149.429 123.345 150.102 124.362 150.553C125.378 151.002 126.657 151.247 128.099 151.305C130.983 151.419 134.615 150.785 138.337 149.394L137.987 148.457ZM122.465 147.847L122.462 147.848L122.812 148.785L122.815 148.783L122.465 147.847ZM122.168 148.492L123.729 152.666L124.666 152.316L123.105 148.141L122.168 148.492ZM124.373 152.959L124.375 152.959L124.024 152.022L124.022 152.023L124.373 152.959ZM123.731 152.665L123.731 152.665L124.668 152.315L124.668 152.315L123.731 152.665ZM123.731 152.665C124.085 153.613 124.861 154.306 125.876 154.771C126.887 155.235 128.169 155.49 129.616 155.555C132.512 155.683 136.174 155.05 139.927 153.647L139.576 152.71C135.918 154.078 132.393 154.676 129.66 154.555C128.293 154.495 127.15 154.255 126.293 153.862C125.439 153.47 124.903 152.943 124.668 152.315L123.731 152.665ZM139.927 153.647C143.68 152.244 146.858 150.319 148.96 148.322C150.01 147.324 150.81 146.291 151.269 145.277C151.729 144.26 151.86 143.228 151.506 142.281L150.569 142.631C150.804 143.259 150.745 144.009 150.358 144.865C149.969 145.724 149.263 146.655 148.271 147.597C146.288 149.481 143.235 151.342 139.576 152.71L139.927 153.647ZM151.506 142.281C151.491 142.242 151.476 142.203 151.46 142.165L150.538 142.552C150.549 142.578 150.559 142.605 150.569 142.631L151.506 142.281ZM151.467 142.183L149.953 138.133L149.016 138.483L150.53 142.534L151.467 142.183Z" fill="#E3E3E3"/>
<mask id="mask0_1680_3931" style="mask-type:alpha" maskUnits="userSpaceOnUse" x="122" y="138" width="30" height="18">
<path fill-rule="evenodd" clip-rule="evenodd" d="M149.484 138.308C150.514 141.459 145.491 146.185 138.162 148.925C130.812 151.673 123.903 151.393 122.64 148.315L122.637 148.316L124.197 152.491L124.199 152.49L124.199 152.49C125.378 155.641 132.34 155.949 139.752 153.178C147.163 150.407 152.216 145.607 151.037 142.456C151.025 142.423 151.012 142.391 150.999 142.358L149.484 138.308Z" fill="white"/>
</mask>
<g mask="url(#mask0_1680_3931)">
<circle cx="122.642" cy="155.341" r="0.332686" transform="rotate(-16 122.642 155.341)" fill="#E3E3E3"/>
<circle cx="122.275" cy="154.062" r="0.332686" transform="rotate(-16 122.275 154.062)" fill="#E3E3E3"/>
<circle cx="122.454" cy="149.858" r="0.332686" transform="rotate(-16 122.454 149.858)" fill="#E3E3E3"/>
<circle cx="123.189" cy="152.417" r="0.332686" transform="rotate(-16 123.189 152.417)" fill="#E3E3E3"/>
<circle cx="123.919" cy="154.975" r="0.332686" transform="rotate(-16 123.919 154.975)" fill="#E3E3E3"/>
<circle cx="122.822" cy="151.137" r="0.332686" transform="rotate(-16 122.822 151.137)" fill="#E3E3E3"/>
<circle cx="123.556" cy="153.696" r="0.332686" transform="rotate(-16 123.556 153.696)" fill="#E3E3E3"/>
<circle cx="122.267" cy="144.375" r="0.332686" transform="rotate(-16 122.267 144.375)" fill="#E3E3E3"/>
<circle cx="123.001" cy="146.933" r="0.332686" transform="rotate(-16 123.001 146.933)" fill="#E3E3E3"/>
<circle cx="123.736" cy="149.491" r="0.332686" transform="rotate(-16 123.736 149.491)" fill="#E3E3E3"/>
<circle cx="124.47" cy="152.049" r="0.332686" transform="rotate(-16 124.47 152.049)" fill="#E3E3E3"/>
<circle cx="125.201" cy="154.608" r="0.332686" transform="rotate(-16 125.201 154.608)" fill="#E3E3E3"/>
<circle cx="122.634" cy="145.654" r="0.332686" transform="rotate(-16 122.634 145.654)" fill="#E3E3E3"/>
<circle cx="123.369" cy="148.212" r="0.332686" transform="rotate(-16 123.369 148.212)" fill="#E3E3E3"/>
<circle cx="124.099" cy="150.77" r="0.332686" transform="rotate(-16 124.099 150.77)" fill="#E3E3E3"/>
<circle cx="124.833" cy="153.329" r="0.332686" transform="rotate(-16 124.833 153.329)" fill="#E3E3E3"/>
<circle cx="122.81" cy="141.449" r="0.332686" transform="rotate(-16 122.81 141.449)" fill="#E3E3E3"/>
<circle cx="123.548" cy="144.007" r="0.332686" transform="rotate(-16 123.548 144.007)" fill="#E3E3E3"/>
<circle cx="124.283" cy="146.566" r="0.332686" transform="rotate(-16 124.283 146.566)" fill="#E3E3E3"/>
<circle cx="125.013" cy="149.125" r="0.332686" transform="rotate(-16 125.013 149.125)" fill="#E3E3E3"/>
<circle cx="125.747" cy="151.682" r="0.332686" transform="rotate(-16 125.747 151.682)" fill="#E3E3E3"/>
<circle cx="126.482" cy="154.241" r="0.332686" transform="rotate(-16 126.482 154.241)" fill="#E3E3E3"/>
<circle cx="123.177" cy="142.728" r="0.332686" transform="rotate(-16 123.177 142.728)" fill="#E3E3E3"/>
<circle cx="123.911" cy="145.287" r="0.332686" transform="rotate(-16 123.911 145.287)" fill="#E3E3E3"/>
<circle cx="124.646" cy="147.845" r="0.332686" transform="rotate(-16 124.646 147.845)" fill="#E3E3E3"/>
<circle cx="125.38" cy="150.404" r="0.332686" transform="rotate(-16 125.38 150.404)" fill="#E3E3E3"/>
<circle cx="126.115" cy="152.962" r="0.332686" transform="rotate(-16 126.115 152.962)" fill="#E3E3E3"/>
<circle cx="124.091" cy="141.083" r="0.332686" transform="rotate(-16 124.091 141.083)" fill="#E3E3E3"/>
<circle cx="124.826" cy="143.64" r="0.332686" transform="rotate(-16 124.826 143.64)" fill="#E3E3E3"/>
<circle cx="125.56" cy="146.199" r="0.332686" transform="rotate(-16 125.56 146.199)" fill="#E3E3E3"/>
<circle cx="126.294" cy="148.757" r="0.332686" transform="rotate(-16 126.294 148.757)" fill="#E3E3E3"/>
<circle cx="127.029" cy="151.316" r="0.332686" transform="rotate(-16 127.029 151.316)" fill="#E3E3E3"/>
<circle cx="127.759" cy="153.875" r="0.332686" transform="rotate(-16 127.759 153.875)" fill="#E3E3E3"/>
<circle cx="124.458" cy="142.362" r="0.332686" transform="rotate(-16 124.458 142.362)" fill="#E3E3E3"/>
<circle cx="125.193" cy="144.92" r="0.332686" transform="rotate(-16 125.193 144.92)" fill="#E3E3E3"/>
<circle cx="125.927" cy="147.478" r="0.332686" transform="rotate(-16 125.927 147.478)" fill="#E3E3E3"/>
<circle cx="126.658" cy="150.037" r="0.332686" transform="rotate(-16 126.658 150.037)" fill="#E3E3E3"/>
<circle cx="127.396" cy="152.595" r="0.332686" transform="rotate(-16 127.396 152.595)" fill="#E3E3E3"/>
<circle cx="128.126" cy="155.154" r="0.332686" transform="rotate(-16 128.126 155.154)" fill="#E3E3E3"/>
<circle cx="125.369" cy="140.715" r="0.332686" transform="rotate(-16 125.369 140.715)" fill="#E3E3E3"/>
<circle cx="126.107" cy="143.274" r="0.332686" transform="rotate(-16 126.107 143.274)" fill="#E3E3E3"/>
<circle cx="126.837" cy="145.833" r="0.332686" transform="rotate(-16 126.837 145.833)" fill="#E3E3E3"/>
<circle cx="127.572" cy="148.39" r="0.332686" transform="rotate(-16 127.572 148.39)" fill="#E3E3E3"/>
<circle cx="128.306" cy="150.949" r="0.332686" transform="rotate(-16 128.306 150.949)" fill="#E3E3E3"/>
<circle cx="129.04" cy="153.507" r="0.332686" transform="rotate(-16 129.04 153.507)" fill="#E3E3E3"/>
<circle cx="125.736" cy="141.995" r="0.332686" transform="rotate(-16 125.736 141.995)" fill="#E3E3E3"/>
<circle cx="126.47" cy="144.553" r="0.332686" transform="rotate(-16 126.47 144.553)" fill="#E3E3E3"/>
<circle cx="127.204" cy="147.112" r="0.332686" transform="rotate(-16 127.204 147.112)" fill="#E3E3E3"/>
<circle cx="127.939" cy="149.67" r="0.332686" transform="rotate(-16 127.939 149.67)" fill="#E3E3E3"/>
<circle cx="128.673" cy="152.228" r="0.332686" transform="rotate(-16 128.673 152.228)" fill="#E3E3E3"/>
<circle cx="129.408" cy="154.787" r="0.332686" transform="rotate(-16 129.408 154.787)" fill="#E3E3E3"/>
<circle cx="126.65" cy="140.348" r="0.332686" transform="rotate(-16 126.65 140.348)" fill="#E3E3E3"/>
<circle cx="127.384" cy="142.907" r="0.332686" transform="rotate(-16 127.384 142.907)" fill="#E3E3E3"/>
<circle cx="128.119" cy="145.465" r="0.332686" transform="rotate(-16 128.119 145.465)" fill="#E3E3E3"/>
<circle cx="128.849" cy="148.024" r="0.332686" transform="rotate(-16 128.849 148.024)" fill="#E3E3E3"/>
<circle cx="129.587" cy="150.583" r="0.332686" transform="rotate(-16 129.587 150.583)" fill="#E3E3E3"/>
<circle cx="130.318" cy="153.141" r="0.332686" transform="rotate(-16 130.318 153.141)" fill="#E3E3E3"/>
<circle cx="127.017" cy="141.628" r="0.332686" transform="rotate(-16 127.017 141.628)" fill="#E3E3E3"/>
<circle cx="127.751" cy="144.186" r="0.332686" transform="rotate(-16 127.751 144.186)" fill="#E3E3E3"/>
<circle cx="128.482" cy="146.745" r="0.332686" transform="rotate(-16 128.482 146.745)" fill="#E3E3E3"/>
<circle cx="129.216" cy="149.303" r="0.332686" transform="rotate(-16 129.216 149.303)" fill="#E3E3E3"/>
<circle cx="129.951" cy="151.862" r="0.332686" transform="rotate(-16 129.951 151.862)" fill="#E3E3E3"/>
<circle cx="130.685" cy="154.42" r="0.332686" transform="rotate(-16 130.685 154.42)" fill="#E3E3E3"/>
<circle cx="127.931" cy="139.982" r="0.332686" transform="rotate(-16 127.931 139.982)" fill="#E3E3E3"/>
<circle cx="128.661" cy="142.541" r="0.332686" transform="rotate(-16 128.661 142.541)" fill="#E3E3E3"/>
<circle cx="129.396" cy="145.099" r="0.332686" transform="rotate(-16 129.396 145.099)" fill="#E3E3E3"/>
<circle cx="130.13" cy="147.657" r="0.332686" transform="rotate(-16 130.13 147.657)" fill="#E3E3E3"/>
<circle cx="130.861" cy="150.215" r="0.332686" transform="rotate(-16 130.861 150.215)" fill="#E3E3E3"/>
<circle cx="131.595" cy="152.774" r="0.332686" transform="rotate(-16 131.595 152.774)" fill="#E3E3E3"/>
<circle cx="132.329" cy="155.332" r="0.332686" transform="rotate(-16 132.329 155.332)" fill="#E3E3E3"/>
<circle cx="128.298" cy="141.261" r="0.332686" transform="rotate(-16 128.298 141.261)" fill="#E3E3E3"/>
<circle cx="129.029" cy="143.82" r="0.332686" transform="rotate(-16 129.029 143.82)" fill="#E3E3E3"/>
<circle cx="129.763" cy="146.378" r="0.332686" transform="rotate(-16 129.763 146.378)" fill="#E3E3E3"/>
<circle cx="130.497" cy="148.936" r="0.332686" transform="rotate(-16 130.497 148.936)" fill="#E3E3E3"/>
<circle cx="131.228" cy="151.495" r="0.332686" transform="rotate(-16 131.228 151.495)" fill="#E3E3E3"/>
<circle cx="131.966" cy="154.053" r="0.332686" transform="rotate(-16 131.966 154.053)" fill="#E3E3E3"/>
<circle cx="129.208" cy="139.615" r="0.332686" transform="rotate(-16 129.208 139.615)" fill="#E3E3E3"/>
<circle cx="129.943" cy="142.173" r="0.332686" transform="rotate(-16 129.943 142.173)" fill="#E3E3E3"/>
<circle cx="130.677" cy="144.732" r="0.332686" transform="rotate(-16 130.677 144.732)" fill="#E3E3E3"/>
<circle cx="131.408" cy="147.291" r="0.332686" transform="rotate(-16 131.408 147.291)" fill="#E3E3E3"/>
<circle cx="132.142" cy="149.849" r="0.332686" transform="rotate(-16 132.142 149.849)" fill="#E3E3E3"/>
<circle cx="132.876" cy="152.407" r="0.332686" transform="rotate(-16 132.876 152.407)" fill="#E3E3E3"/>
<circle cx="133.611" cy="154.965" r="0.332686" transform="rotate(-16 133.611 154.965)" fill="#E3E3E3"/>
<circle cx="129.576" cy="140.894" r="0.332686" transform="rotate(-16 129.576 140.894)" fill="#E3E3E3"/>
<circle cx="130.31" cy="143.453" r="0.332686" transform="rotate(-16 130.31 143.453)" fill="#E3E3E3"/>
<circle cx="131.04" cy="146.011" r="0.332686" transform="rotate(-16 131.04 146.011)" fill="#E3E3E3"/>
<circle cx="131.775" cy="148.569" r="0.332686" transform="rotate(-16 131.775 148.569)" fill="#E3E3E3"/>
<circle cx="132.509" cy="151.128" r="0.332686" transform="rotate(-16 132.509 151.128)" fill="#E3E3E3"/>
<circle cx="133.244" cy="153.686" r="0.332686" transform="rotate(-16 133.244 153.686)" fill="#E3E3E3"/>
<circle cx="130.49" cy="139.249" r="0.332686" transform="rotate(-16 130.49 139.249)" fill="#E3E3E3"/>
<circle cx="131.22" cy="141.807" r="0.332686" transform="rotate(-16 131.22 141.807)" fill="#E3E3E3"/>
<circle cx="131.954" cy="144.365" r="0.332686" transform="rotate(-16 131.954 144.365)" fill="#E3E3E3"/>
<circle cx="132.689" cy="146.923" r="0.332686" transform="rotate(-16 132.689 146.923)" fill="#E3E3E3"/>
<circle cx="133.423" cy="149.482" r="0.332686" transform="rotate(-16 133.423 149.482)" fill="#E3E3E3"/>
<circle cx="134.154" cy="152.041" r="0.332686" transform="rotate(-16 134.154 152.041)" fill="#E3E3E3"/>
<circle cx="134.888" cy="154.599" r="0.332686" transform="rotate(-16 134.888 154.599)" fill="#E3E3E3"/>
<circle cx="130.857" cy="140.528" r="0.332686" transform="rotate(-16 130.857 140.528)" fill="#E3E3E3"/>
<circle cx="131.587" cy="143.087" r="0.332686" transform="rotate(-16 131.587 143.087)" fill="#E3E3E3"/>
<circle cx="132.322" cy="145.644" r="0.332686" transform="rotate(-16 132.322 145.644)" fill="#E3E3E3"/>
<circle cx="133.056" cy="148.203" r="0.332686" transform="rotate(-16 133.056 148.203)" fill="#E3E3E3"/>
<circle cx="133.786" cy="150.761" r="0.332686" transform="rotate(-16 133.786 150.761)" fill="#E3E3E3"/>
<circle cx="134.521" cy="153.319" r="0.332686" transform="rotate(-16 134.521 153.319)" fill="#E3E3E3"/>
</g>
<ellipse cx="136.029" cy="143.22" rx="14.3262" ry="6.0909" transform="rotate(-20.5 136.029 143.22)" stroke="#E3E3E3"/>
<path d="M166.926 154.302L166.874 153.805L166.392 153.856L166.427 154.339L166.926 154.302ZM138.439 157.339L138.933 157.263L137.942 157.391L138.439 157.339ZM138.893 161.654L139.391 161.616L139.391 161.609L139.39 161.602L138.893 161.654ZM167.395 158.734L167.343 158.237L166.845 158.289L166.898 158.786L167.395 158.734ZM167.396 158.734L167.448 159.231L167.946 159.179L167.893 158.682L167.396 158.734ZM166.93 154.302L167.427 154.25L167.375 153.752L166.878 153.805L166.93 154.302ZM166.427 154.339C166.437 154.479 166.434 154.619 166.417 154.76L167.41 154.88C167.434 154.677 167.44 154.471 167.425 154.266L166.427 154.339ZM166.164 155.593C166.041 155.849 165.875 156.108 165.666 156.369L166.447 156.995C166.696 156.683 166.905 156.36 167.065 156.027L166.164 155.593ZM165.007 157.067C164.778 157.275 164.524 157.482 164.244 157.686L164.833 158.494C165.139 158.271 165.423 158.041 165.681 157.804L165.007 157.067ZM163.414 158.236C163.138 158.403 162.846 158.567 162.537 158.726L162.996 159.614C163.323 159.446 163.636 159.271 163.932 159.091L163.414 158.236ZM161.627 159.162C161.327 159.296 161.015 159.426 160.692 159.551L161.054 160.484C161.391 160.353 161.718 160.217 162.035 160.075L161.627 159.162ZM159.735 159.898C159.42 160.005 159.096 160.107 158.765 160.205L159.047 161.164C159.391 161.063 159.728 160.957 160.056 160.845L159.735 159.898ZM157.782 160.475C157.456 160.558 157.125 160.636 156.787 160.71L157.001 161.687C157.349 161.611 157.692 161.53 158.029 161.444L157.782 160.475ZM155.786 160.912C155.455 160.973 155.118 161.029 154.777 161.081L154.928 162.07C155.279 162.017 155.626 161.958 155.968 161.895L155.786 160.912ZM153.764 161.219C153.595 161.239 153.426 161.258 153.255 161.276L153.36 162.271C153.535 162.252 153.71 162.233 153.884 162.212L153.764 161.219ZM153.255 161.276C153.085 161.294 152.915 161.311 152.746 161.326L152.836 162.322C153.01 162.306 153.184 162.289 153.36 162.271L153.255 161.276ZM151.729 161.402C151.386 161.422 151.046 161.437 150.71 161.446L150.737 162.445C151.084 162.436 151.434 162.421 151.788 162.4L151.729 161.402ZM149.691 161.457C149.347 161.455 149.007 161.447 148.673 161.434L148.633 162.433C148.979 162.447 149.33 162.455 149.686 162.457L149.691 161.457ZM147.657 161.375C147.314 161.349 146.976 161.316 146.647 161.278L146.531 162.271C146.874 162.311 147.224 162.345 147.581 162.372L147.657 161.375ZM145.641 161.138C145.3 161.083 144.969 161.022 144.647 160.954L144.44 161.932C144.778 162.004 145.126 162.068 145.482 162.126L145.641 161.138ZM143.669 160.718C143.335 160.627 143.015 160.529 142.711 160.423L142.384 161.369C142.711 161.482 143.052 161.586 143.406 161.683L143.669 160.718ZM141.786 160.061C141.471 159.921 141.179 159.773 140.912 159.618L140.409 160.482C140.711 160.658 141.035 160.822 141.381 160.975L141.786 160.061ZM140.12 159.078C139.86 158.868 139.643 158.65 139.467 158.428L138.682 159.047C138.91 159.336 139.182 159.605 139.492 159.855L140.12 159.078ZM139.037 157.671C138.989 157.537 138.955 157.401 138.933 157.263L137.945 157.415C137.976 157.618 138.027 157.816 138.096 158.009L139.037 157.671ZM137.942 157.391L137.999 157.931L138.993 157.826L138.936 157.287L137.942 157.391ZM138.112 159.009L138.225 160.088L139.22 159.984L139.106 158.905L138.112 159.009ZM138.339 161.167L138.395 161.706L139.39 161.602L139.333 161.063L138.339 161.167ZM138.394 161.692C138.395 161.7 138.395 161.707 138.396 161.715L139.392 161.631C139.392 161.626 139.392 161.621 139.391 161.616L138.394 161.692ZM138.4 161.759C138.401 161.767 138.401 161.774 138.402 161.782L139.397 161.677C139.396 161.672 139.396 161.667 139.395 161.662L138.4 161.759ZM138.402 161.782C138.424 161.988 138.466 162.19 138.527 162.387L139.482 162.092C139.44 161.956 139.412 161.818 139.397 161.677L138.402 161.782ZM139.08 163.46C139.302 163.759 139.571 164.038 139.879 164.297L140.522 163.532C140.265 163.316 140.052 163.093 139.883 162.864L139.08 163.46ZM140.795 164.944C141.097 165.125 141.423 165.294 141.771 165.452L142.184 164.541C141.867 164.398 141.575 164.246 141.309 164.086L140.795 164.944ZM142.78 165.856C143.109 165.972 143.452 166.079 143.809 166.178L144.075 165.214C143.739 165.121 143.418 165.021 143.113 164.913L142.78 165.856ZM144.849 166.433C145.19 166.506 145.54 166.573 145.899 166.632L146.061 165.645C145.717 165.588 145.383 165.525 145.06 165.456L144.849 166.433ZM146.955 166.78C147.301 166.821 147.654 166.856 148.013 166.884L148.091 165.887C147.745 165.86 147.405 165.827 147.073 165.787L146.955 166.78ZM149.073 166.947C149.422 166.962 149.776 166.97 150.134 166.973L150.141 165.973C149.794 165.97 149.451 165.962 149.114 165.948L149.073 166.947ZM151.194 166.962C151.543 166.952 151.896 166.937 152.253 166.916L152.194 165.918C151.848 165.938 151.506 165.953 151.167 165.962L151.194 166.962ZM153.308 166.838C153.484 166.822 153.66 166.805 153.836 166.787L153.732 165.792C153.56 165.81 153.389 165.827 153.219 165.842L153.308 166.838ZM153.836 166.787C154.013 166.768 154.188 166.748 154.363 166.727L154.243 165.734C154.074 165.755 153.903 165.774 153.732 165.792L153.836 166.787ZM155.412 166.584C155.765 166.531 156.114 166.472 156.457 166.408L156.276 165.425C155.942 165.487 155.604 165.544 155.262 165.596L155.412 166.584ZM157.496 166.199C157.846 166.122 158.19 166.04 158.529 165.954L158.281 164.985C157.954 165.069 157.621 165.148 157.281 165.222L157.496 166.199ZM159.552 165.672C159.898 165.569 160.236 165.462 160.566 165.35L160.244 164.403C159.927 164.511 159.602 164.614 159.268 164.713L159.552 165.672ZM161.568 164.985C161.907 164.852 162.235 164.715 162.553 164.572L162.144 163.66C161.842 163.795 161.528 163.927 161.204 164.053L161.568 164.985ZM163.518 164.106C163.846 163.936 164.16 163.759 164.457 163.578L163.936 162.724C163.659 162.893 163.366 163.058 163.057 163.219L163.518 164.106ZM165.36 162.973C165.667 162.746 165.951 162.513 166.209 162.273L165.528 161.541C165.301 161.752 165.047 161.961 164.767 162.168L165.36 162.973ZM166.971 161.45C167.218 161.133 167.424 160.804 167.578 160.464L166.668 160.049C166.551 160.308 166.389 160.57 166.183 160.835L166.971 161.45ZM167.896 159.301C167.915 159.095 167.914 158.889 167.892 158.682L166.898 158.787C166.912 158.927 166.913 159.068 166.9 159.21L167.896 159.301ZM167.892 158.682L167.892 158.682L166.898 158.787L166.898 158.787L167.892 158.682ZM167.892 158.682L167.892 158.682L166.898 158.786L166.898 158.786L167.892 158.682ZM167.447 159.231L167.447 159.231L167.343 158.237L167.343 158.237L167.447 159.231ZM167.448 159.231L167.448 159.231L167.344 158.237L167.343 158.237L167.448 159.231ZM167.893 158.682L167.835 158.128L166.841 158.232L166.899 158.786L167.893 158.682ZM167.719 157.02L167.602 155.912L166.608 156.016L166.724 157.124L167.719 157.02ZM167.486 154.804L167.427 154.25L166.433 154.354L166.491 154.908L167.486 154.804ZM166.878 153.805L166.877 153.805L166.981 154.799L166.982 154.799L166.878 153.805ZM166.875 153.805L166.874 153.805L166.978 154.799L166.979 154.799L166.875 153.805Z" fill="#E3E3E3"/>
<ellipse cx="152.67" cy="155.716" rx="14.3262" ry="6.09089" transform="rotate(-6 152.67 155.716)" stroke="#E3E3E3" stroke-dasharray="1 1"/>
<path fill-rule="evenodd" clip-rule="evenodd" d="M144.009 135.416C142.355 138.303 135.469 137.679 128.541 133.995C121.613 130.311 117.245 124.951 118.713 121.966L118.712 121.965L116.656 125.833C116.643 125.855 116.63 125.878 116.618 125.901C115.039 128.871 119.422 134.29 126.408 138.005C133.394 141.719 140.337 142.323 141.917 139.352L141.917 139.351L141.918 139.352L144.011 135.417L144.009 135.416Z" fill="#1F1F24"/>
<path d="M144.009 135.416L144.244 134.975L143.816 134.747L143.575 135.167L144.009 135.416ZM118.713 121.966L119.161 122.186L119.375 121.752L118.947 121.524L118.713 121.966ZM118.712 121.965L118.947 121.524L118.505 121.289L118.27 121.731L118.712 121.965ZM116.656 125.833L117.09 126.08L117.094 126.074L117.097 126.067L116.656 125.833ZM141.917 139.351L142.152 138.91L141.711 138.675L141.476 139.117L141.917 139.351ZM141.918 139.352L141.684 139.793L142.125 140.028L142.36 139.587L141.918 139.352ZM144.011 135.417L144.452 135.652L144.687 135.21L144.245 134.975L144.011 135.417ZM143.575 135.167C143.245 135.744 142.633 136.184 141.727 136.45C140.821 136.717 139.656 136.796 138.298 136.671C135.584 136.423 132.195 135.372 128.775 133.553L128.306 134.436C131.814 136.302 135.332 137.404 138.207 137.667C139.643 137.799 140.943 137.723 142.009 137.409C143.077 137.096 143.946 136.532 144.443 135.665L143.575 135.167ZM128.775 133.553C125.356 131.735 122.589 129.513 120.866 127.402C120.003 126.346 119.418 125.336 119.131 124.435C118.846 123.536 118.868 122.783 119.161 122.186L118.264 121.745C117.823 122.642 117.841 123.678 118.178 124.738C118.515 125.797 119.179 126.917 120.091 128.035C121.917 130.271 124.798 132.571 128.306 134.436L128.775 133.553ZM118.947 121.524L118.947 121.524L118.477 122.407L118.478 122.407L118.947 121.524ZM118.27 121.731L116.214 125.598L117.097 126.067L119.153 122.2L118.27 121.731ZM116.221 125.585C116.206 125.612 116.191 125.639 116.177 125.666L117.06 126.136C117.069 126.117 117.08 126.099 117.09 126.08L116.221 125.585ZM116.177 125.666C115.702 126.559 115.697 127.6 116.021 128.668C116.343 129.733 117.001 130.862 117.912 131.988C119.735 134.242 122.635 136.565 126.173 138.446L126.643 137.563C123.194 135.73 120.41 133.486 118.69 131.359C117.829 130.295 117.251 129.28 116.978 128.378C116.705 127.478 116.745 126.728 117.06 126.136L116.177 125.666ZM126.173 138.446C129.711 140.327 133.258 141.432 136.147 141.683C137.59 141.809 138.893 141.723 139.957 141.395C141.023 141.066 141.883 140.48 142.358 139.587L141.475 139.118C141.16 139.71 140.56 140.162 139.662 140.439C138.761 140.717 137.597 140.806 136.233 140.687C133.508 140.45 130.091 139.397 126.643 137.563L126.173 138.446ZM142.358 139.587L142.359 139.586L141.476 139.117L141.475 139.118L142.358 139.587ZM141.683 139.793L141.684 139.793L142.153 138.91L142.152 138.91L141.683 139.793ZM142.36 139.587L144.452 135.652L143.569 135.182L141.477 139.117L142.36 139.587ZM144.245 134.975L144.244 134.975L143.774 135.858L143.776 135.858L144.245 134.975Z" fill="#E3E3E3"/>
<ellipse cx="131.399" cy="128.616" rx="14.3262" ry="6.0909" transform="rotate(28 131.399 128.616)" fill="#1F1F24" stroke="#E3E3E3"/>
<path d="M197.386 158.658L197.601 158.207L197.164 157.998L196.942 158.429L197.386 158.658ZM171.521 146.339L171.98 146.537L171.07 146.124L171.521 146.339ZM169.623 150.318L170.073 150.536L170.074 150.533L169.623 150.318ZM169.609 150.347L169.159 150.129L169.157 150.132L169.609 150.347ZM195.47 162.682L195.685 162.231L195.234 162.016L195.019 162.467L195.47 162.682ZM195.47 162.682L195.255 163.133L195.706 163.349L195.922 162.897L195.47 162.682ZM197.389 158.66L197.84 158.875L198.056 158.424L197.604 158.208L197.389 158.66ZM196.942 158.429C196.878 158.554 196.801 158.672 196.713 158.783L197.497 159.404C197.624 159.243 197.736 159.071 197.83 158.888L196.942 158.429ZM196.062 159.361C195.824 159.515 195.547 159.65 195.232 159.763L195.571 160.704C195.947 160.569 196.294 160.402 196.604 160.202L196.062 159.361ZM194.306 160.013C194.002 160.072 193.677 160.115 193.332 160.143L193.412 161.14C193.789 161.11 194.152 161.061 194.496 160.995L194.306 160.013ZM192.337 160.178C192.014 160.177 191.679 160.163 191.333 160.138L191.26 161.135C191.627 161.162 191.985 161.177 192.331 161.178L192.337 160.178ZM190.329 160.034C190.003 159.992 189.669 159.939 189.328 159.878L189.149 160.861C189.506 160.926 189.856 160.981 190.199 161.026L190.329 160.034ZM188.331 159.674C188.007 159.6 187.677 159.518 187.343 159.428L187.083 160.394C187.429 160.487 187.772 160.572 188.11 160.649L188.331 159.674ZM186.364 159.144C186.043 159.045 185.719 158.939 185.393 158.825L185.065 159.77C185.402 159.887 185.737 159.997 186.068 160.1L186.364 159.144ZM184.434 158.474C184.12 158.353 183.803 158.226 183.486 158.092L183.097 159.013C183.424 159.151 183.751 159.283 184.075 159.408L184.434 158.474ZM182.55 157.68C182.395 157.609 182.24 157.536 182.085 157.463L181.655 158.365C181.814 158.441 181.974 158.516 182.133 158.589L182.55 157.68ZM182.085 157.463C181.931 157.389 181.777 157.314 181.625 157.239L181.181 158.135C181.338 158.212 181.496 158.289 181.655 158.365L182.085 157.463ZM180.717 156.771C180.413 156.609 180.115 156.443 179.823 156.275L179.324 157.142C179.625 157.315 179.932 157.486 180.245 157.653L180.717 156.771ZM178.948 155.751C178.654 155.57 178.368 155.385 178.09 155.198L177.533 156.029C177.822 156.222 178.117 156.413 178.42 156.601L178.948 155.751ZM177.253 154.616C176.974 154.414 176.703 154.21 176.442 154.004L175.823 154.79C176.096 155.004 176.377 155.216 176.667 155.426L177.253 154.616ZM175.656 153.359C175.394 153.133 175.143 152.907 174.905 152.68L174.216 153.405C174.467 153.644 174.73 153.881 175.004 154.117L175.656 153.359ZM174.193 151.966C173.956 151.714 173.734 151.462 173.53 151.213L172.757 151.847C172.976 152.115 173.212 152.383 173.464 152.651L174.193 151.966ZM172.931 150.418C172.735 150.133 172.564 149.854 172.418 149.581L171.537 150.053C171.702 150.361 171.892 150.672 172.107 150.984L172.931 150.418ZM172.028 148.705C171.917 148.389 171.847 148.09 171.815 147.808L170.822 147.919C170.863 148.286 170.952 148.66 171.084 149.036L172.028 148.705ZM171.851 146.938C171.882 146.799 171.924 146.666 171.98 146.537L171.062 146.141C170.98 146.33 170.918 146.525 170.874 146.725L171.851 146.938ZM171.07 146.124L170.832 146.621L171.735 147.051L171.972 146.554L171.07 146.124ZM170.358 147.616L169.883 148.61L170.786 149.041L171.26 148.046L170.358 147.616ZM169.409 149.605L169.172 150.102L170.074 150.533L170.312 150.036L169.409 149.605ZM169.173 150.1L169.169 150.107L170.069 150.543L170.073 150.536L169.173 150.1ZM169.162 150.122L169.159 150.129L170.059 150.565L170.062 150.558L169.162 150.122ZM169.157 150.132C169.068 150.32 168.998 150.514 168.947 150.714L169.916 150.961C169.951 150.823 169.999 150.69 170.06 150.563L169.157 150.132ZM168.858 151.917C168.891 152.288 168.974 152.667 169.102 153.049L170.05 152.732C169.944 152.414 169.879 152.112 169.855 151.829L168.858 151.917ZM169.545 154.079C169.708 154.391 169.898 154.706 170.112 155.022L170.94 154.461C170.745 154.173 170.575 153.891 170.431 153.616L169.545 154.079ZM170.761 155.893C170.981 156.164 171.217 156.435 171.47 156.705L172.201 156.023C171.963 155.768 171.742 155.515 171.538 155.263L170.761 155.893ZM172.224 157.467C172.476 157.707 172.74 157.947 173.015 158.185L173.669 157.428C173.405 157.2 173.154 156.972 172.915 156.744L172.224 157.467ZM173.838 158.863C174.111 159.079 174.394 159.293 174.686 159.505L175.273 158.695C174.992 158.491 174.72 158.285 174.457 158.078L173.838 158.863ZM175.557 160.112C175.846 160.307 176.144 160.499 176.449 160.688L176.976 159.839C176.682 159.656 176.394 159.47 176.114 159.282L175.557 160.112ZM177.357 161.232C177.66 161.407 177.969 161.579 178.284 161.747L178.756 160.865C178.45 160.702 178.15 160.535 177.857 160.366L177.357 161.232ZM179.225 162.232C179.383 162.31 179.542 162.387 179.702 162.464L180.132 161.561C179.977 161.487 179.822 161.412 179.669 161.336L179.225 162.232ZM179.702 162.464C179.862 162.54 180.022 162.615 180.182 162.688L180.599 161.779C180.444 161.708 180.288 161.635 180.132 161.561L179.702 162.464ZM181.151 163.115C181.48 163.253 181.808 163.385 182.134 163.511L182.493 162.577C182.177 162.456 181.859 162.328 181.54 162.193L181.151 163.115ZM183.129 163.875C183.468 163.992 183.804 164.102 184.138 164.205L184.433 163.25C184.11 163.15 183.785 163.044 183.457 162.93L183.129 163.875ZM185.158 164.5C185.506 164.593 185.851 164.678 186.19 164.755L186.411 163.779C186.084 163.706 185.753 163.624 185.417 163.534L185.158 164.5ZM187.235 164.967C187.594 165.032 187.946 165.086 188.291 165.13L188.419 164.139C188.091 164.096 187.755 164.045 187.412 163.983L187.235 164.967ZM189.357 165.237C189.727 165.263 190.086 165.277 190.435 165.277L190.436 164.277C190.112 164.277 189.775 164.264 189.428 164.24L189.357 165.237ZM191.521 165.233C191.901 165.201 192.265 165.15 192.61 165.08L192.412 164.1C192.108 164.161 191.782 164.207 191.436 164.237L191.521 165.233ZM193.69 164.776C194.066 164.635 194.413 164.462 194.722 164.253L194.163 163.424C193.928 163.583 193.653 163.722 193.339 163.84L193.69 164.776ZM195.601 163.427C195.725 163.262 195.832 163.085 195.921 162.898L195.019 162.467C194.958 162.595 194.885 162.716 194.8 162.83L195.601 163.427ZM195.921 162.898L195.921 162.898L195.019 162.467L195.019 162.467L195.921 162.898ZM195.921 162.897L195.921 162.897L195.019 162.467L195.019 162.467L195.921 162.897ZM195.255 163.133L195.255 163.133L195.685 162.231L195.685 162.231L195.255 163.133ZM195.255 163.133L195.255 163.133L195.686 162.231L195.686 162.231L195.255 163.133ZM195.922 162.897L196.161 162.395L195.259 161.964L195.019 162.467L195.922 162.897ZM196.641 161.389L197.121 160.383L196.218 159.953L195.739 160.958L196.641 161.389ZM197.6 159.378L197.84 158.875L196.938 158.444L196.698 158.947L197.6 159.378ZM197.604 158.208L197.604 158.208L197.173 159.111L197.174 159.111L197.604 158.208ZM197.602 158.207L197.601 158.207L197.171 159.11L197.172 159.11L197.602 158.207Z" fill="#E3E3E3"/>
<ellipse cx="184.492" cy="152.416" rx="14.3262" ry="6.0909" transform="rotate(25.5 184.492 152.416)" stroke="#E3E3E3" stroke-dasharray="1 1"/>
<path d="M207.78 151.145L208.14 151.492L207.435 150.783L207.78 151.145ZM187.186 131.229L187.557 131.564L187.882 131.205L187.534 130.869L187.186 131.229ZM187.184 131.227L187.531 130.867L187.171 130.52L186.824 130.879L187.184 131.227ZM184.088 134.432L183.728 134.085L183.381 134.445L183.74 134.792L184.088 134.432ZM184.088 134.433L184.448 134.78L184.795 134.421L184.436 134.073L184.088 134.433ZM204.749 154.284L204.389 153.937L204.38 153.947L204.749 154.284ZM207.435 150.783C206.955 151.241 206.243 151.491 205.299 151.494C204.353 151.496 203.212 151.249 201.943 150.754C199.407 149.765 196.446 147.823 193.667 145.139L192.972 145.859C195.824 148.612 198.894 150.638 201.58 151.686C202.922 152.209 204.191 152.497 205.302 152.494C206.414 152.491 207.405 152.194 208.125 151.507L207.435 150.783ZM193.667 145.139C190.882 142.45 188.835 139.552 187.76 137.048C187.222 135.796 186.937 134.664 186.91 133.719C186.883 132.776 187.112 132.057 187.557 131.564L186.815 130.894C186.146 131.635 185.878 132.635 185.91 133.748C185.942 134.858 186.272 136.118 186.841 137.443C187.98 140.095 190.115 143.099 192.972 145.859L193.667 145.139ZM187.534 130.869L187.531 130.867L186.836 131.586L186.839 131.589L187.534 130.869ZM186.824 130.879L183.728 134.085L184.447 134.78L187.543 131.574L186.824 130.879ZM183.74 134.792L183.741 134.793L184.436 134.073L184.435 134.073L183.74 134.792ZM183.729 134.086C183.026 134.814 182.735 135.813 182.752 136.928C182.769 138.041 183.091 139.308 183.656 140.641C184.787 143.31 186.934 146.342 189.816 149.125L190.511 148.406C187.702 145.693 185.644 142.769 184.577 140.251C184.042 138.991 183.766 137.856 183.752 136.913C183.738 135.974 183.983 135.263 184.448 134.78L183.729 134.086ZM189.816 149.125C192.698 151.908 195.804 153.949 198.511 154.986C199.864 155.504 201.14 155.781 202.253 155.759C203.369 155.737 204.357 155.411 205.06 154.683L204.34 153.989C203.875 154.471 203.173 154.741 202.233 154.759C201.291 154.778 200.147 154.542 198.869 154.052C196.315 153.074 193.32 151.119 190.511 148.406L189.816 149.125ZM205.06 154.683C205.079 154.663 205.098 154.643 205.117 154.622L204.38 153.947C204.367 153.961 204.354 153.975 204.34 153.989L205.06 154.683ZM205.108 154.632L208.14 151.492L207.42 150.798L204.389 153.937L205.108 154.632Z" fill="#E3E3E3"/>
<mask id="mask1_1680_3931" style="mask-type:alpha" maskUnits="userSpaceOnUse" x="183" y="131" width="25" height="25">
<path fill-rule="evenodd" clip-rule="evenodd" d="M207.78 151.145C205.381 153.435 198.951 150.936 193.32 145.499C187.677 140.05 184.956 133.696 187.186 131.229L187.184 131.227L184.088 134.432L184.088 134.433C181.753 136.854 184.473 143.27 190.164 148.765C195.855 154.262 202.363 156.756 204.7 154.336C204.716 154.319 204.733 154.302 204.749 154.284L207.78 151.145Z" fill="white"/>
</mask>
<g mask="url(#mask1_1680_3931)">
<circle cx="183.103" cy="132.41" r="0.332686" transform="rotate(42.5 183.103 132.41)" fill="#E3E3E3"/>
<circle cx="184.001" cy="131.428" r="0.332686" transform="rotate(42.5 184.001 131.428)" fill="#E3E3E3"/>
<circle cx="185.88" cy="131.346" r="0.332686" transform="rotate(42.5 185.88 131.346)" fill="#E3E3E3"/>
<circle cx="184.083" cy="133.309" r="0.332686" transform="rotate(42.5 184.083 133.309)" fill="#E3E3E3"/>
<circle cx="184.981" cy="132.327" r="0.332686" transform="rotate(42.5 184.981 132.327)" fill="#E3E3E3"/>
<circle cx="183.185" cy="134.289" r="0.332686" transform="rotate(42.5 183.185 134.289)" fill="#E3E3E3"/>
<circle cx="186.864" cy="132.245" r="0.332686" transform="rotate(42.5 186.864 132.245)" fill="#E3E3E3"/>
<circle cx="185.063" cy="134.207" r="0.332686" transform="rotate(42.5 185.063 134.207)" fill="#E3E3E3"/>
<circle cx="183.267" cy="136.169" r="0.332686" transform="rotate(42.5 183.267 136.169)" fill="#E3E3E3"/>
<circle cx="187.763" cy="131.264" r="0.332686" transform="rotate(42.5 187.763 131.264)" fill="#E3E3E3"/>
<circle cx="185.962" cy="133.226" r="0.332686" transform="rotate(42.5 185.962 133.226)" fill="#E3E3E3"/>
<circle cx="184.165" cy="135.189" r="0.332686" transform="rotate(42.5 184.165 135.189)" fill="#E3E3E3"/>
<circle cx="189.642" cy="131.182" r="0.332686" transform="rotate(42.5 189.642 131.182)" fill="#E3E3E3"/>
<circle cx="187.845" cy="133.144" r="0.332686" transform="rotate(42.5 187.845 133.144)" fill="#E3E3E3"/>
<circle cx="186.044" cy="135.106" r="0.332686" transform="rotate(42.5 186.044 135.106)" fill="#E3E3E3"/>
<circle cx="184.247" cy="137.069" r="0.332686" transform="rotate(42.5 184.247 137.069)" fill="#E3E3E3"/>
<circle cx="188.743" cy="132.162" r="0.332686" transform="rotate(42.5 188.743 132.162)" fill="#E3E3E3"/>
<circle cx="186.946" cy="134.125" r="0.332686" transform="rotate(42.5 186.946 134.125)" fill="#E3E3E3"/>
<circle cx="185.146" cy="136.087" r="0.332686" transform="rotate(42.5 185.146 136.087)" fill="#E3E3E3"/>
<circle cx="183.349" cy="138.049" r="0.332686" transform="rotate(42.5 183.349 138.049)" fill="#E3E3E3"/>
<circle cx="190.622" cy="132.081" r="0.332686" transform="rotate(42.5 190.622 132.081)" fill="#E3E3E3"/>
<circle cx="188.825" cy="134.043" r="0.332686" transform="rotate(42.5 188.825 134.043)" fill="#E3E3E3"/>
<circle cx="187.028" cy="136.005" r="0.332686" transform="rotate(42.5 187.028 136.005)" fill="#E3E3E3"/>
<circle cx="185.228" cy="137.967" r="0.332686" transform="rotate(42.5 185.228 137.967)" fill="#E3E3E3"/>
<circle cx="183.431" cy="139.929" r="0.332686" transform="rotate(42.5 183.431 139.929)" fill="#E3E3E3"/>
<circle cx="191.521" cy="131.1" r="0.332686" transform="rotate(42.5 191.521 131.1)" fill="#E3E3E3"/>
<circle cx="189.724" cy="133.062" r="0.332686" transform="rotate(42.5 189.724 133.062)" fill="#E3E3E3"/>
<circle cx="187.927" cy="135.024" r="0.332686" transform="rotate(42.5 187.927 135.024)" fill="#E3E3E3"/>
<circle cx="186.126" cy="136.986" r="0.332686" transform="rotate(42.5 186.126 136.986)" fill="#E3E3E3"/>
<circle cx="184.329" cy="138.949" r="0.332686" transform="rotate(42.5 184.329 138.949)" fill="#E3E3E3"/>
<circle cx="193.403" cy="131.018" r="0.332686" transform="rotate(42.5 193.403 131.018)" fill="#E3E3E3"/>
<circle cx="191.603" cy="132.98" r="0.332686" transform="rotate(42.5 191.603 132.98)" fill="#E3E3E3"/>
<circle cx="189.806" cy="134.942" r="0.332686" transform="rotate(42.5 189.806 134.942)" fill="#E3E3E3"/>
<circle cx="188.009" cy="136.905" r="0.332686" transform="rotate(42.5 188.009 136.905)" fill="#E3E3E3"/>
<circle cx="186.208" cy="138.867" r="0.332686" transform="rotate(42.5 186.208 138.867)" fill="#E3E3E3"/>
<circle cx="184.411" cy="140.829" r="0.332686" transform="rotate(42.5 184.411 140.829)" fill="#E3E3E3"/>
<circle cx="192.505" cy="131.999" r="0.332686" transform="rotate(42.5 192.505 131.999)" fill="#E3E3E3"/>
<circle cx="190.704" cy="133.961" r="0.332686" transform="rotate(42.5 190.704 133.961)" fill="#E3E3E3"/>
<circle cx="188.907" cy="135.923" r="0.332686" transform="rotate(42.5 188.907 135.923)" fill="#E3E3E3"/>
<circle cx="187.106" cy="137.885" r="0.332686" transform="rotate(42.5 187.106 137.885)" fill="#E3E3E3"/>
<circle cx="185.31" cy="139.847" r="0.332686" transform="rotate(42.5 185.31 139.847)" fill="#E3E3E3"/>
<circle cx="183.513" cy="141.81" r="0.332686" transform="rotate(42.5 183.513 141.81)" fill="#E3E3E3"/>
<circle cx="194.384" cy="131.916" r="0.332686" transform="rotate(42.5 194.384 131.916)" fill="#E3E3E3"/>
<circle cx="192.587" cy="133.879" r="0.332686" transform="rotate(42.5 192.587 133.879)" fill="#E3E3E3"/>
<circle cx="190.786" cy="135.841" r="0.332686" transform="rotate(42.5 190.786 135.841)" fill="#E3E3E3"/>
<circle cx="188.989" cy="137.803" r="0.332686" transform="rotate(42.5 188.989 137.803)" fill="#E3E3E3"/>
<circle cx="187.192" cy="139.766" r="0.332686" transform="rotate(42.5 187.192 139.766)" fill="#E3E3E3"/>
<circle cx="185.392" cy="141.728" r="0.332686" transform="rotate(42.5 185.392 141.728)" fill="#E3E3E3"/>
<circle cx="183.595" cy="143.691" r="0.332686" transform="rotate(42.5 183.595 143.691)" fill="#E3E3E3"/>
<circle cx="195.282" cy="130.935" r="0.332686" transform="rotate(42.5 195.282 130.935)" fill="#E3E3E3"/>
<circle cx="193.485" cy="132.898" r="0.332686" transform="rotate(42.5 193.485 132.898)" fill="#E3E3E3"/>
<circle cx="191.685" cy="134.86" r="0.332686" transform="rotate(42.5 191.685 134.86)" fill="#E3E3E3"/>
<circle cx="189.888" cy="136.823" r="0.332686" transform="rotate(42.5 189.888 136.823)" fill="#E3E3E3"/>
<circle cx="188.091" cy="138.785" r="0.332686" transform="rotate(42.5 188.091 138.785)" fill="#E3E3E3"/>
<circle cx="186.29" cy="140.746" r="0.332686" transform="rotate(42.5 186.29 140.746)" fill="#E3E3E3"/>
<circle cx="184.493" cy="142.709" r="0.332686" transform="rotate(42.5 184.493 142.709)" fill="#E3E3E3"/>
<circle cx="197.161" cy="130.854" r="0.332686" transform="rotate(42.5 197.161 130.854)" fill="#E3E3E3"/>
<circle cx="195.364" cy="132.816" r="0.332686" transform="rotate(42.5 195.364 132.816)" fill="#E3E3E3"/>
<circle cx="193.567" cy="134.778" r="0.332686" transform="rotate(42.5 193.567 134.778)" fill="#E3E3E3"/>
<circle cx="191.767" cy="136.74" r="0.332686" transform="rotate(42.5 191.767 136.74)" fill="#E3E3E3"/>
<circle cx="189.97" cy="138.702" r="0.332686" transform="rotate(42.5 189.97 138.702)" fill="#E3E3E3"/>
<circle cx="188.173" cy="140.664" r="0.332686" transform="rotate(42.5 188.173 140.664)" fill="#E3E3E3"/>
<circle cx="186.376" cy="142.627" r="0.332686" transform="rotate(42.5 186.376 142.627)" fill="#E3E3E3"/>
<circle cx="184.575" cy="144.589" r="0.332686" transform="rotate(42.5 184.575 144.589)" fill="#E3E3E3"/>
<circle cx="196.263" cy="131.834" r="0.332686" transform="rotate(42.5 196.263 131.834)" fill="#E3E3E3"/>
<circle cx="194.466" cy="133.796" r="0.332686" transform="rotate(42.5 194.466 133.796)" fill="#E3E3E3"/>
<circle cx="192.665" cy="135.759" r="0.332686" transform="rotate(42.5 192.665 135.759)" fill="#E3E3E3"/>
<circle cx="190.868" cy="137.721" r="0.332686" transform="rotate(42.5 190.868 137.721)" fill="#E3E3E3"/>
<circle cx="189.071" cy="139.684" r="0.332686" transform="rotate(42.5 189.071 139.684)" fill="#E3E3E3"/>
<circle cx="187.274" cy="141.646" r="0.332686" transform="rotate(42.5 187.274 141.646)" fill="#E3E3E3"/>
<circle cx="185.474" cy="143.608" r="0.332686" transform="rotate(42.5 185.474 143.608)" fill="#E3E3E3"/>
<circle cx="183.677" cy="145.571" r="0.332686" transform="rotate(42.5 183.677 145.571)" fill="#E3E3E3"/>
<circle cx="198.142" cy="131.752" r="0.332686" transform="rotate(42.5 198.142 131.752)" fill="#E3E3E3"/>
<circle cx="196.345" cy="133.715" r="0.332686" transform="rotate(42.5 196.345 133.715)" fill="#E3E3E3"/>
<circle cx="194.548" cy="135.677" r="0.332686" transform="rotate(42.5 194.548 135.677)" fill="#E3E3E3"/>
<circle cx="192.747" cy="137.639" r="0.332686" transform="rotate(42.5 192.747 137.639)" fill="#E3E3E3"/>
<circle cx="190.95" cy="139.602" r="0.332686" transform="rotate(42.5 190.95 139.602)" fill="#E3E3E3"/>
<circle cx="189.153" cy="141.564" r="0.332686" transform="rotate(42.5 189.153 141.564)" fill="#E3E3E3"/>
<circle cx="187.356" cy="143.526" r="0.332686" transform="rotate(42.5 187.356 143.526)" fill="#E3E3E3"/>
<circle cx="185.556" cy="145.488" r="0.332686" transform="rotate(42.5 185.556 145.488)" fill="#E3E3E3"/>
<circle cx="183.759" cy="147.451" r="0.332686" transform="rotate(42.5 183.759 147.451)" fill="#E3E3E3"/>
<circle cx="197.243" cy="132.734" r="0.332686" transform="rotate(42.5 197.243 132.734)" fill="#E3E3E3"/>
<circle cx="195.446" cy="134.696" r="0.332686" transform="rotate(42.5 195.446 134.696)" fill="#E3E3E3"/>
<circle cx="193.649" cy="136.658" r="0.332686" transform="rotate(42.5 193.649 136.658)" fill="#E3E3E3"/>
<circle cx="191.849" cy="138.62" r="0.332686" transform="rotate(42.5 191.849 138.62)" fill="#E3E3E3"/>
<circle cx="190.052" cy="140.583" r="0.332686" transform="rotate(42.5 190.052 140.583)" fill="#E3E3E3"/>
<circle cx="188.255" cy="142.545" r="0.332686" transform="rotate(42.5 188.255 142.545)" fill="#E3E3E3"/>
<circle cx="186.454" cy="144.507" r="0.332686" transform="rotate(42.5 186.454 144.507)" fill="#E3E3E3"/>
<circle cx="184.657" cy="146.469" r="0.332686" transform="rotate(42.5 184.657 146.469)" fill="#E3E3E3"/>
<circle cx="182.86" cy="148.431" r="0.332686" transform="rotate(42.5 182.86 148.431)" fill="#E3E3E3"/>
<circle cx="199.126" cy="132.652" r="0.332686" transform="rotate(42.5 199.126 132.652)" fill="#E3E3E3"/>
<circle cx="197.325" cy="134.614" r="0.332686" transform="rotate(42.5 197.325 134.614)" fill="#E3E3E3"/>
<circle cx="195.528" cy="136.576" r="0.332686" transform="rotate(42.5 195.528 136.576)" fill="#E3E3E3"/>
<circle cx="193.731" cy="138.538" r="0.332686" transform="rotate(42.5 193.731 138.538)" fill="#E3E3E3"/>
<circle cx="191.931" cy="140.5" r="0.332686" transform="rotate(42.5 191.931 140.5)" fill="#E3E3E3"/>
<circle cx="190.134" cy="142.463" r="0.332686" transform="rotate(42.5 190.134 142.463)" fill="#E3E3E3"/>
<circle cx="188.337" cy="144.425" r="0.332686" transform="rotate(42.5 188.337 144.425)" fill="#E3E3E3"/>
<circle cx="186.536" cy="146.387" r="0.332686" transform="rotate(42.5 186.536 146.387)" fill="#E3E3E3"/>
<circle cx="184.739" cy="148.349" r="0.332686" transform="rotate(42.5 184.739 148.349)" fill="#E3E3E3"/>
<circle cx="182.942" cy="150.312" r="0.332686" transform="rotate(42.5 182.942 150.312)" fill="#E3E3E3"/>
<circle cx="198.224" cy="133.633" r="0.332686" transform="rotate(42.5 198.224 133.633)" fill="#E3E3E3"/>
<circle cx="196.427" cy="135.595" r="0.332686" transform="rotate(42.5 196.427 135.595)" fill="#E3E3E3"/>
<circle cx="194.63" cy="137.557" r="0.332686" transform="rotate(42.5 194.63 137.557)" fill="#E3E3E3"/>
<circle cx="192.833" cy="139.52" r="0.332686" transform="rotate(42.5 192.833 139.52)" fill="#E3E3E3"/>
<circle cx="191.032" cy="141.482" r="0.332686" transform="rotate(42.5 191.032 141.482)" fill="#E3E3E3"/>
<circle cx="189.235" cy="143.444" r="0.332686" transform="rotate(42.5 189.235 143.444)" fill="#E3E3E3"/>
<circle cx="187.438" cy="145.406" r="0.332686" transform="rotate(42.5 187.438 145.406)" fill="#E3E3E3"/>
<circle cx="185.638" cy="147.368" r="0.332686" transform="rotate(42.5 185.638 147.368)" fill="#E3E3E3"/>
<circle cx="183.841" cy="149.33" r="0.332686" transform="rotate(42.5 183.841 149.33)" fill="#E3E3E3"/>
<circle cx="200.106" cy="133.55" r="0.332686" transform="rotate(42.5 200.106 133.55)" fill="#E3E3E3"/>
<circle cx="200.536" cy="131.55" r="0.332686" transform="rotate(42.5 200.536 131.55)" fill="#E3E3E3"/>
<circle cx="202.801" cy="131.226" r="0.332686" transform="rotate(44.5 202.801 131.226)" fill="#E3E3E3"/>
<circle cx="198.306" cy="135.513" r="0.332686" transform="rotate(42.5 198.306 135.513)" fill="#E3E3E3"/>
<circle cx="196.509" cy="137.475" r="0.332686" transform="rotate(42.5 196.509 137.475)" fill="#E3E3E3"/>
<circle cx="194.712" cy="139.437" r="0.332686" transform="rotate(42.5 194.712 139.437)" fill="#E3E3E3"/>
<circle cx="192.915" cy="141.4" r="0.332686" transform="rotate(42.5 192.915 141.4)" fill="#E3E3E3"/>
<circle cx="191.114" cy="143.362" r="0.332686" transform="rotate(42.5 191.114 143.362)" fill="#E3E3E3"/>
<circle cx="189.317" cy="145.325" r="0.332686" transform="rotate(42.5 189.317 145.325)" fill="#E3E3E3"/>
<circle cx="187.521" cy="147.286" r="0.332686" transform="rotate(42.5 187.521 147.286)" fill="#E3E3E3"/>
<circle cx="185.72" cy="149.248" r="0.332686" transform="rotate(42.5 185.72 149.248)" fill="#E3E3E3"/>
<circle cx="183.923" cy="151.211" r="0.332686" transform="rotate(42.5 183.923 151.211)" fill="#E3E3E3"/>
<circle cx="199.208" cy="134.532" r="0.332686" transform="rotate(42.5 199.208 134.532)" fill="#E3E3E3"/>
<circle cx="197.407" cy="136.493" r="0.332686" transform="rotate(42.5 197.407 136.493)" fill="#E3E3E3"/>
<circle cx="195.61" cy="138.456" r="0.332686" transform="rotate(42.5 195.61 138.456)" fill="#E3E3E3"/>
<circle cx="193.813" cy="140.418" r="0.332686" transform="rotate(42.5 193.813 140.418)" fill="#E3E3E3"/>
<circle cx="192.013" cy="142.38" r="0.332686" transform="rotate(42.5 192.013 142.38)" fill="#E3E3E3"/>
<circle cx="190.216" cy="144.343" r="0.332686" transform="rotate(42.5 190.216 144.343)" fill="#E3E3E3"/>
<circle cx="188.419" cy="146.305" r="0.332686" transform="rotate(42.5 188.419 146.305)" fill="#E3E3E3"/>
<circle cx="186.618" cy="148.267" r="0.332686" transform="rotate(42.5 186.618 148.267)" fill="#E3E3E3"/>
<circle cx="184.821" cy="150.23" r="0.332686" transform="rotate(42.5 184.821 150.23)" fill="#E3E3E3"/>
<circle cx="183.024" cy="152.192" r="0.332686" transform="rotate(42.5 183.024 152.192)" fill="#E3E3E3"/>
<circle cx="201.087" cy="134.45" r="0.332686" transform="rotate(42.5 201.087 134.45)" fill="#E3E3E3"/>
<circle cx="199.29" cy="136.411" r="0.332686" transform="rotate(42.5 199.29 136.411)" fill="#E3E3E3"/>
<circle cx="197.489" cy="138.373" r="0.332686" transform="rotate(42.5 197.489 138.373)" fill="#E3E3E3"/>
<circle cx="195.692" cy="140.336" r="0.332686" transform="rotate(42.5 195.692 140.336)" fill="#E3E3E3"/>
<circle cx="193.896" cy="142.298" r="0.332686" transform="rotate(42.5 193.896 142.298)" fill="#E3E3E3"/>
<circle cx="192.095" cy="144.261" r="0.332686" transform="rotate(42.5 192.095 144.261)" fill="#E3E3E3"/>
<circle cx="190.298" cy="146.223" r="0.332686" transform="rotate(42.5 190.298 146.223)" fill="#E3E3E3"/>
<circle cx="188.501" cy="148.185" r="0.332686" transform="rotate(42.5 188.501 148.185)" fill="#E3E3E3"/>
<circle cx="186.704" cy="150.148" r="0.332686" transform="rotate(42.5 186.704 150.148)" fill="#E3E3E3"/>
<circle cx="184.903" cy="152.11" r="0.332686" transform="rotate(42.5 184.903 152.11)" fill="#E3E3E3"/>
<circle cx="183.106" cy="154.073" r="0.332686" transform="rotate(42.5 183.106 154.073)" fill="#E3E3E3"/>
<circle cx="200.188" cy="135.43" r="0.332686" transform="rotate(42.5 200.188 135.43)" fill="#E3E3E3"/>
<circle cx="198.388" cy="137.393" r="0.332686" transform="rotate(42.5 198.388 137.393)" fill="#E3E3E3"/>
<circle cx="196.591" cy="139.356" r="0.332686" transform="rotate(42.5 196.591 139.356)" fill="#E3E3E3"/>
<circle cx="194.794" cy="141.318" r="0.332686" transform="rotate(42.5 194.794 141.318)" fill="#E3E3E3"/>
<circle cx="192.997" cy="143.28" r="0.332686" transform="rotate(42.5 192.997 143.28)" fill="#E3E3E3"/>
<circle cx="191.196" cy="145.242" r="0.332686" transform="rotate(42.5 191.196 145.242)" fill="#E3E3E3"/>
<circle cx="189.399" cy="147.204" r="0.332686" transform="rotate(42.5 189.399 147.204)" fill="#E3E3E3"/>
<circle cx="187.599" cy="149.166" r="0.332686" transform="rotate(42.5 187.599 149.166)" fill="#E3E3E3"/>
<circle cx="185.802" cy="151.128" r="0.332686" transform="rotate(42.5 185.802 151.128)" fill="#E3E3E3"/>
<circle cx="184.005" cy="153.091" r="0.332686" transform="rotate(42.5 184.005 153.091)" fill="#E3E3E3"/>
<circle cx="202.067" cy="135.348" r="0.332686" transform="rotate(42.5 202.067 135.348)" fill="#E3E3E3"/>
<circle cx="200.271" cy="137.311" r="0.332686" transform="rotate(42.5 200.271 137.311)" fill="#E3E3E3"/>
<circle cx="198.474" cy="139.274" r="0.332686" transform="rotate(42.5 198.474 139.274)" fill="#E3E3E3"/>
<circle cx="196.673" cy="141.236" r="0.332686" transform="rotate(42.5 196.673 141.236)" fill="#E3E3E3"/>
<circle cx="194.876" cy="143.198" r="0.332686" transform="rotate(42.5 194.876 143.198)" fill="#E3E3E3"/>
<circle cx="193.079" cy="145.16" r="0.332686" transform="rotate(42.5 193.079 145.16)" fill="#E3E3E3"/>
<circle cx="191.278" cy="147.121" r="0.332686" transform="rotate(42.5 191.278 147.121)" fill="#E3E3E3"/>
<circle cx="189.481" cy="149.085" r="0.332686" transform="rotate(42.5 189.481 149.085)" fill="#E3E3E3"/>
<circle cx="187.685" cy="151.047" r="0.332686" transform="rotate(42.5 187.685 151.047)" fill="#E3E3E3"/>
<circle cx="185.884" cy="153.009" r="0.332686" transform="rotate(42.5 185.884 153.009)" fill="#E3E3E3"/>
<circle cx="184.087" cy="154.971" r="0.332686" transform="rotate(42.5 184.087 154.971)" fill="#E3E3E3"/>
<circle cx="201.169" cy="136.329" r="0.332686" transform="rotate(42.5 201.169 136.329)" fill="#E3E3E3"/>
<circle cx="199.372" cy="138.292" r="0.332686" transform="rotate(42.5 199.372 138.292)" fill="#E3E3E3"/>
<circle cx="197.571" cy="140.254" r="0.332686" transform="rotate(42.5 197.571 140.254)" fill="#E3E3E3"/>
<circle cx="195.774" cy="142.217" r="0.332686" transform="rotate(42.5 195.774 142.217)" fill="#E3E3E3"/>
<circle cx="193.978" cy="144.179" r="0.332686" transform="rotate(42.5 193.978 144.179)" fill="#E3E3E3"/>
<circle cx="192.177" cy="146.141" r="0.332686" transform="rotate(42.5 192.177 146.141)" fill="#E3E3E3"/>
<circle cx="190.38" cy="148.103" r="0.332686" transform="rotate(42.5 190.38 148.103)" fill="#E3E3E3"/>
<circle cx="188.583" cy="150.066" r="0.332686" transform="rotate(42.5 188.583 150.066)" fill="#E3E3E3"/>
<circle cx="186.786" cy="152.028" r="0.332686" transform="rotate(42.5 186.786 152.028)" fill="#E3E3E3"/>
<circle cx="184.985" cy="153.99" r="0.332686" transform="rotate(42.5 184.985 153.99)" fill="#E3E3E3"/>
<circle cx="203.048" cy="136.247" r="0.332686" transform="rotate(42.5 203.048 136.247)" fill="#E3E3E3"/>
<circle cx="201.251" cy="138.21" r="0.332686" transform="rotate(42.5 201.251 138.21)" fill="#E3E3E3"/>
<circle cx="199.454" cy="140.172" r="0.332686" transform="rotate(42.5 199.454 140.172)" fill="#E3E3E3"/>
<circle cx="197.653" cy="142.134" r="0.332686" transform="rotate(42.5 197.653 142.134)" fill="#E3E3E3"/>
<circle cx="195.856" cy="144.097" r="0.332686" transform="rotate(42.5 195.856 144.097)" fill="#E3E3E3"/>
<circle cx="194.06" cy="146.059" r="0.332686" transform="rotate(42.5 194.06 146.059)" fill="#E3E3E3"/>
<circle cx="192.259" cy="148.021" r="0.332686" transform="rotate(42.5 192.259 148.021)" fill="#E3E3E3"/>
<circle cx="190.462" cy="149.984" r="0.332686" transform="rotate(42.5 190.462 149.984)" fill="#E3E3E3"/>
<circle cx="188.665" cy="151.946" r="0.332686" transform="rotate(42.5 188.665 151.946)" fill="#E3E3E3"/>
<circle cx="186.864" cy="153.909" r="0.332686" transform="rotate(42.5 186.864 153.909)" fill="#E3E3E3"/>
<circle cx="202.149" cy="137.229" r="0.332686" transform="rotate(42.5 202.149 137.229)" fill="#E3E3E3"/>
<circle cx="200.353" cy="139.191" r="0.332686" transform="rotate(42.5 200.353 139.191)" fill="#E3E3E3"/>
<circle cx="198.556" cy="141.154" r="0.332686" transform="rotate(42.5 198.556 141.154)" fill="#E3E3E3"/>
<circle cx="196.755" cy="143.116" r="0.332686" transform="rotate(42.5 196.755 143.116)" fill="#E3E3E3"/>
<circle cx="194.958" cy="145.077" r="0.332686" transform="rotate(42.5 194.958 145.077)" fill="#E3E3E3"/>
<circle cx="193.157" cy="147.04" r="0.332686" transform="rotate(42.5 193.157 147.04)" fill="#E3E3E3"/>
<circle cx="191.36" cy="149.002" r="0.332686" transform="rotate(42.5 191.36 149.002)" fill="#E3E3E3"/>
<circle cx="189.563" cy="150.965" r="0.332686" transform="rotate(42.5 189.563 150.965)" fill="#E3E3E3"/>
<circle cx="187.767" cy="152.927" r="0.332686" transform="rotate(42.5 187.767 152.927)" fill="#E3E3E3"/>
<circle cx="185.966" cy="154.889" r="0.332686" transform="rotate(42.5 185.966 154.889)" fill="#E3E3E3"/>
<circle cx="204.028" cy="137.147" r="0.332686" transform="rotate(42.5 204.028 137.147)" fill="#E3E3E3"/>
<circle cx="202.231" cy="139.109" r="0.332686" transform="rotate(42.5 202.231 139.109)" fill="#E3E3E3"/>
<circle cx="200.435" cy="141.072" r="0.332686" transform="rotate(42.5 200.435 141.072)" fill="#E3E3E3"/>
<circle cx="198.638" cy="143.034" r="0.332686" transform="rotate(42.5 198.638 143.034)" fill="#E3E3E3"/>
<circle cx="196.837" cy="144.995" r="0.332686" transform="rotate(42.5 196.837 144.995)" fill="#E3E3E3"/>
<circle cx="195.04" cy="146.958" r="0.332686" transform="rotate(42.5 195.04 146.958)" fill="#E3E3E3"/>
<circle cx="193.243" cy="148.92" r="0.332686" transform="rotate(42.5 193.243 148.92)" fill="#E3E3E3"/>
<circle cx="191.442" cy="150.882" r="0.332686" transform="rotate(42.5 191.442 150.882)" fill="#E3E3E3"/>
<circle cx="189.646" cy="152.845" r="0.332686" transform="rotate(42.5 189.646 152.845)" fill="#E3E3E3"/>
<circle cx="187.849" cy="154.807" r="0.332686" transform="rotate(42.5 187.849 154.807)" fill="#E3E3E3"/>
<circle cx="203.13" cy="138.128" r="0.332686" transform="rotate(42.5 203.13 138.128)" fill="#E3E3E3"/>
<circle cx="201.333" cy="140.09" r="0.332686" transform="rotate(42.5 201.333 140.09)" fill="#E3E3E3"/>
<circle cx="199.536" cy="142.052" r="0.332686" transform="rotate(42.5 199.536 142.052)" fill="#E3E3E3"/>
<circle cx="197.735" cy="144.015" r="0.332686" transform="rotate(42.5 197.735 144.015)" fill="#E3E3E3"/>
<circle cx="195.938" cy="145.977" r="0.332686" transform="rotate(42.5 195.938 145.977)" fill="#E3E3E3"/>
<circle cx="194.142" cy="147.939" r="0.332686" transform="rotate(42.5 194.142 147.939)" fill="#E3E3E3"/>
<circle cx="192.345" cy="149.902" r="0.332686" transform="rotate(42.5 192.345 149.902)" fill="#E3E3E3"/>
<circle cx="190.544" cy="151.864" r="0.332686" transform="rotate(42.5 190.544 151.864)" fill="#E3E3E3"/>
<circle cx="188.747" cy="153.826" r="0.332686" transform="rotate(42.5 188.747 153.826)" fill="#E3E3E3"/>
<circle cx="205.013" cy="138.046" r="0.332686" transform="rotate(42.5 205.013 138.046)" fill="#E3E3E3"/>
<circle cx="203.212" cy="140.008" r="0.332686" transform="rotate(42.5 203.212 140.008)" fill="#E3E3E3"/>
<circle cx="201.415" cy="141.97" r="0.332686" transform="rotate(42.5 201.415 141.97)" fill="#E3E3E3"/>
<circle cx="199.618" cy="143.932" r="0.332686" transform="rotate(42.5 199.618 143.932)" fill="#E3E3E3"/>
<circle cx="197.817" cy="145.895" r="0.332686" transform="rotate(42.5 197.817 145.895)" fill="#E3E3E3"/>
<circle cx="196.021" cy="147.857" r="0.332686" transform="rotate(42.5 196.021 147.857)" fill="#E3E3E3"/>
<circle cx="194.224" cy="149.82" r="0.332686" transform="rotate(42.5 194.224 149.82)" fill="#E3E3E3"/>
<circle cx="192.423" cy="151.782" r="0.332686" transform="rotate(42.5 192.423 151.782)" fill="#E3E3E3"/>
<circle cx="190.626" cy="153.743" r="0.332686" transform="rotate(42.5 190.626 153.743)" fill="#E3E3E3"/>
<circle cx="188.829" cy="155.706" r="0.332686" transform="rotate(42.5 188.829 155.706)" fill="#E3E3E3"/>
<circle cx="204.114" cy="139.027" r="0.332686" transform="rotate(42.5 204.114 139.027)" fill="#E3E3E3"/>
<circle cx="202.313" cy="140.989" r="0.332686" transform="rotate(42.5 202.313 140.989)" fill="#E3E3E3"/>
<circle cx="200.517" cy="142.951" r="0.332686" transform="rotate(42.5 200.517 142.951)" fill="#E3E3E3"/>
<circle cx="198.72" cy="144.913" r="0.332686" transform="rotate(42.5 198.72 144.913)" fill="#E3E3E3"/>
<circle cx="196.919" cy="146.875" r="0.332686" transform="rotate(42.5 196.919 146.875)" fill="#E3E3E3"/>
<circle cx="195.122" cy="148.838" r="0.332686" transform="rotate(42.5 195.122 148.838)" fill="#E3E3E3"/>
<circle cx="193.325" cy="150.8" r="0.332686" transform="rotate(42.5 193.325 150.8)" fill="#E3E3E3"/>
<circle cx="191.524" cy="152.762" r="0.332686" transform="rotate(42.5 191.524 152.762)" fill="#E3E3E3"/>
<circle cx="189.728" cy="154.725" r="0.332686" transform="rotate(42.5 189.728 154.725)" fill="#E3E3E3"/>
<circle cx="205.993" cy="138.945" r="0.332686" transform="rotate(42.5 205.993 138.945)" fill="#E3E3E3"/>
<circle cx="204.192" cy="140.908" r="0.332686" transform="rotate(42.5 204.192 140.908)" fill="#E3E3E3"/>
<circle cx="202.396" cy="142.869" r="0.332686" transform="rotate(42.5 202.396 142.869)" fill="#E3E3E3"/>
<circle cx="200.599" cy="144.831" r="0.332686" transform="rotate(42.5 200.599 144.831)" fill="#E3E3E3"/>
<circle cx="198.798" cy="146.793" r="0.332686" transform="rotate(42.5 198.798 146.793)" fill="#E3E3E3"/>
<circle cx="197.001" cy="148.755" r="0.332686" transform="rotate(42.5 197.001 148.755)" fill="#E3E3E3"/>
<circle cx="195.204" cy="150.718" r="0.332686" transform="rotate(42.5 195.204 150.718)" fill="#E3E3E3"/>
<circle cx="193.407" cy="152.681" r="0.332686" transform="rotate(42.5 193.407 152.681)" fill="#E3E3E3"/>
<circle cx="191.606" cy="154.643" r="0.332686" transform="rotate(42.5 191.606 154.643)" fill="#E3E3E3"/>
<circle cx="205.095" cy="139.926" r="0.332686" transform="rotate(42.5 205.095 139.926)" fill="#E3E3E3"/>
<circle cx="203.294" cy="141.888" r="0.332686" transform="rotate(42.5 203.294 141.888)" fill="#E3E3E3"/>
<circle cx="201.497" cy="143.85" r="0.332686" transform="rotate(42.5 201.497 143.85)" fill="#E3E3E3"/>
<circle cx="199.7" cy="145.813" r="0.332686" transform="rotate(42.5 199.7 145.813)" fill="#E3E3E3"/>
<circle cx="197.899" cy="147.775" r="0.332686" transform="rotate(42.5 197.899 147.775)" fill="#E3E3E3"/>
<circle cx="196.103" cy="149.738" r="0.332686" transform="rotate(42.5 196.103 149.738)" fill="#E3E3E3"/>
<circle cx="194.306" cy="151.7" r="0.332686" transform="rotate(42.5 194.306 151.7)" fill="#E3E3E3"/>
<circle cx="192.505" cy="153.661" r="0.332686" transform="rotate(42.5 192.505 153.661)" fill="#E3E3E3"/>
<circle cx="190.708" cy="155.623" r="0.332686" transform="rotate(42.5 190.708 155.623)" fill="#E3E3E3"/>
<circle cx="206.974" cy="139.844" r="0.332686" transform="rotate(42.5 206.974 139.844)" fill="#E3E3E3"/>
<circle cx="205.177" cy="141.806" r="0.332686" transform="rotate(42.5 205.177 141.806)" fill="#E3E3E3"/>
<circle cx="203.376" cy="143.769" r="0.332686" transform="rotate(42.5 203.376 143.769)" fill="#E3E3E3"/>
<circle cx="201.579" cy="145.73" r="0.332686" transform="rotate(42.5 201.579 145.73)" fill="#E3E3E3"/>
<circle cx="199.782" cy="147.693" r="0.332686" transform="rotate(42.5 199.782 147.693)" fill="#E3E3E3"/>
<circle cx="197.981" cy="149.656" r="0.332686" transform="rotate(42.5 197.981 149.656)" fill="#E3E3E3"/>
<circle cx="196.185" cy="151.618" r="0.332686" transform="rotate(42.5 196.185 151.618)" fill="#E3E3E3"/>
<circle cx="194.388" cy="153.579" r="0.332686" transform="rotate(42.5 194.388 153.579)" fill="#E3E3E3"/>
<circle cx="192.587" cy="155.541" r="0.332686" transform="rotate(42.5 192.587 155.541)" fill="#E3E3E3"/>
<circle cx="206.075" cy="140.825" r="0.332686" transform="rotate(42.5 206.075 140.825)" fill="#E3E3E3"/>
<circle cx="204.274" cy="142.787" r="0.332686" transform="rotate(42.5 204.274 142.787)" fill="#E3E3E3"/>
<circle cx="202.478" cy="144.749" r="0.332686" transform="rotate(42.5 202.478 144.749)" fill="#E3E3E3"/>
<circle cx="200.681" cy="146.711" r="0.332686" transform="rotate(42.5 200.681 146.711)" fill="#E3E3E3"/>
<circle cx="198.88" cy="148.673" r="0.332686" transform="rotate(42.5 198.88 148.673)" fill="#E3E3E3"/>
<circle cx="197.083" cy="150.636" r="0.332686" transform="rotate(42.5 197.083 150.636)" fill="#E3E3E3"/>
<circle cx="195.286" cy="152.599" r="0.332686" transform="rotate(42.5 195.286 152.599)" fill="#E3E3E3"/>
<circle cx="193.489" cy="154.561" r="0.332686" transform="rotate(42.5 193.489 154.561)" fill="#E3E3E3"/>
<circle cx="207.954" cy="140.743" r="0.332686" transform="rotate(42.5 207.954 140.743)" fill="#E3E3E3"/>
<circle cx="206.157" cy="142.704" r="0.332686" transform="rotate(42.5 206.157 142.704)" fill="#E3E3E3"/>
<circle cx="204.356" cy="144.667" r="0.332686" transform="rotate(42.5 204.356 144.667)" fill="#E3E3E3"/>
<circle cx="202.56" cy="146.629" r="0.332686" transform="rotate(42.5 202.56 146.629)" fill="#E3E3E3"/>
<circle cx="200.763" cy="148.592" r="0.332686" transform="rotate(42.5 200.763 148.592)" fill="#E3E3E3"/>
<circle cx="198.966" cy="150.554" r="0.332686" transform="rotate(42.5 198.966 150.554)" fill="#E3E3E3"/>
<circle cx="197.165" cy="152.516" r="0.332686" transform="rotate(42.5 197.165 152.516)" fill="#E3E3E3"/>
<circle cx="195.368" cy="154.479" r="0.332686" transform="rotate(42.5 195.368 154.479)" fill="#E3E3E3"/>
<circle cx="207.056" cy="141.724" r="0.332686" transform="rotate(42.5 207.056 141.724)" fill="#E3E3E3"/>
<circle cx="205.259" cy="143.686" r="0.332686" transform="rotate(42.5 205.259 143.686)" fill="#E3E3E3"/>
<circle cx="203.458" cy="145.649" r="0.332686" transform="rotate(42.5 203.458 145.649)" fill="#E3E3E3"/>
<circle cx="201.661" cy="147.611" r="0.332686" transform="rotate(42.5 201.661 147.611)" fill="#E3E3E3"/>
<circle cx="199.864" cy="149.573" r="0.332686" transform="rotate(42.5 199.864 149.573)" fill="#E3E3E3"/>
<circle cx="198.063" cy="151.535" r="0.332686" transform="rotate(42.5 198.063 151.535)" fill="#E3E3E3"/>
<circle cx="196.267" cy="153.497" r="0.332686" transform="rotate(42.5 196.267 153.497)" fill="#E3E3E3"/>
<circle cx="194.47" cy="155.459" r="0.332686" transform="rotate(42.5 194.47 155.459)" fill="#E3E3E3"/>
</g>
<ellipse cx="197.547" cy="141.117" rx="14.3262" ry="6.0909" transform="rotate(44 197.547 141.117)" fill="#1F1F24" stroke="#E3E3E3"/>
<path fill-rule="evenodd" clip-rule="evenodd" d="M214.088 123.032L218.621 122.515L219.125 126.943L219.123 126.944C219.503 130.286 213.439 133.721 205.578 134.616C197.717 135.512 191.035 133.529 190.654 130.187C190.65 130.149 190.647 130.111 190.644 130.073L190.152 125.759L194.68 125.243C197.108 123.946 200.449 122.94 204.199 122.513C207.949 122.086 211.431 122.314 214.088 123.032Z" fill="#E3E3E3"/>
<path d="M214.088 123.032L213.958 123.514L214.05 123.539L214.145 123.528L214.088 123.032ZM218.621 122.515L219.117 122.459L219.061 121.962L218.564 122.018L218.621 122.515ZM219.125 126.943L219.182 127.44L219.679 127.383L219.622 126.887L219.125 126.943ZM219.123 126.944L219.066 126.447L218.569 126.503L218.626 127L219.123 126.944ZM190.644 130.073L191.143 130.038L191.142 130.027L191.141 130.017L190.644 130.073ZM190.152 125.759L190.096 125.262L189.599 125.319L189.656 125.815L190.152 125.759ZM194.68 125.243L194.737 125.74L194.832 125.729L194.916 125.684L194.68 125.243ZM214.145 123.528L218.677 123.012L218.564 122.018L214.031 122.535L214.145 123.528ZM218.124 122.572L218.628 127L219.622 126.887L219.117 122.459L218.124 122.572ZM219.069 126.447L219.066 126.447L219.179 127.44L219.182 127.44L219.069 126.447ZM218.626 127C218.702 127.666 218.463 128.379 217.88 129.116C217.295 129.855 216.385 130.588 215.194 131.262C212.815 132.61 209.401 133.678 205.521 134.12L205.635 135.113C209.615 134.66 213.165 133.561 215.687 132.132C216.947 131.419 217.973 130.61 218.664 129.737C219.357 128.862 219.734 127.892 219.62 126.887L218.626 127ZM205.521 134.12C201.641 134.562 198.075 134.29 195.453 133.511C194.141 133.122 193.09 132.613 192.354 132.024C191.62 131.437 191.227 130.796 191.151 130.13L190.158 130.243C190.272 131.248 190.857 132.108 191.729 132.805C192.598 133.5 193.78 134.058 195.169 134.47C197.948 135.295 201.654 135.567 205.635 135.113L205.521 134.12ZM191.151 130.13C191.148 130.099 191.145 130.069 191.143 130.038L190.145 130.108C190.148 130.153 190.152 130.198 190.158 130.243L191.151 130.13ZM191.141 130.017L190.649 125.702L189.656 125.815L190.147 130.13L191.141 130.017ZM190.209 126.256L194.737 125.74L194.623 124.746L190.096 125.262L190.209 126.256ZM194.916 125.684C197.277 124.422 200.554 123.431 204.256 123.01L204.142 122.016C200.343 122.449 196.939 123.469 194.444 124.802L194.916 125.684ZM204.256 123.01C207.957 122.588 211.373 122.816 213.958 123.514L214.219 122.549C211.488 121.811 207.941 121.583 204.142 122.016L204.256 123.01Z" fill="#E3E3E3"/>
<ellipse cx="204.373" cy="124.053" rx="14.3262" ry="6.09089" transform="rotate(-6.5 204.373 124.053)" fill="#2B2B2E" stroke="#E3E3E3"/>
<ellipse cx="125.365" cy="39.2433" rx="23.5635" ry="25.325" transform="rotate(28 125.365 39.2433)" stroke="#E3E3E3"/>
<path fill-rule="evenodd" clip-rule="evenodd" d="M116.148 62.8058C127.147 66.9018 140.105 61.7158 146.172 50.3056C152.243 38.887 149.288 25.2332 139.725 18.4102C140.624 18.7443 141.511 19.1412 142.379 19.6027C153.79 25.6704 157.718 40.6004 151.152 52.9498C144.586 65.2992 130.012 70.3916 118.6 64.3239C117.74 63.8666 116.922 63.3589 116.148 62.8058Z" fill="#F7931A"/>
<path d="M146.172 50.3056L145.73 50.0709L146.172 50.3056ZM116.148 62.8058L116.323 62.3372L115.858 63.2126L116.148 62.8058ZM139.725 18.4102L139.899 17.9414L139.434 18.8172L139.725 18.4102ZM142.379 19.6027L142.613 19.1612L142.379 19.6027ZM151.152 52.9498L150.71 52.7151L151.152 52.9498ZM118.6 64.3239L118.365 64.7654H118.365L118.6 64.3239ZM145.73 50.0709C139.769 61.2816 127.064 66.3374 116.323 62.3372L115.974 63.2744C127.23 67.4663 140.44 62.15 146.613 50.5404L145.73 50.0709ZM139.434 18.8172C148.774 25.4805 151.695 38.8518 145.73 50.0709L146.613 50.5404C152.791 38.9222 149.802 24.9859 140.015 18.0031L139.434 18.8172ZM139.551 18.8789C140.43 19.2053 141.296 19.5931 142.144 20.0442L142.613 19.1612C141.726 18.6893 140.819 18.2832 139.899 17.9414L139.551 18.8789ZM142.144 20.0442C153.28 25.9651 157.165 40.576 150.71 52.7151L151.593 53.1845C158.272 40.6248 154.301 25.3757 142.613 19.1612L142.144 20.0442ZM150.71 52.7151C144.256 64.8541 129.97 69.8034 118.835 63.8824L118.365 64.7654C130.053 70.9798 144.915 65.7443 151.593 53.1845L150.71 52.7151ZM118.835 63.8824C117.994 63.4355 117.195 62.9394 116.439 62.399L115.858 63.2126C116.649 63.7784 117.486 64.2977 118.365 64.7654L118.835 63.8824Z" fill="#E3E3E3"/>
</svg>
