<svg width="1920" height="726" viewBox="0 0 1920 726" fill="none" xmlns="http://www.w3.org/2000/svg">
<mask id="mask0_3769_18861" style="mask-type:alpha" maskUnits="userSpaceOnUse" x="-320" y="0" width="2560" height="726">
<rect width="2560" height="726" transform="matrix(1 0 0 -1 -320 726)" fill="url(#paint0_linear_3769_18861)"/>
</mask>
<g mask="url(#mask0_3769_18861)">
<path d="M1293.07 389.161V962.086" stroke="white" stroke-linecap="round" stroke-linejoin="round"/>
<path d="M1238.84 389.161L952.246 962.086" stroke="white" stroke-linecap="round" stroke-linejoin="round"/>
<path d="M1346.55 389.161L1632.16 962.086" stroke="white" stroke-linecap="round" stroke-linejoin="round"/>
<path d="M1077.13 389.447L-75.0469 962.461" stroke="white" stroke-linecap="round" stroke-linejoin="round"/>
<path d="M1131.11 389.161L612.228 735.33L287.195 962.461" stroke="white" stroke-linecap="round" stroke-linejoin="round"/>
<path d="M1184.97 389.161L612.262 962.118" stroke="white" stroke-linecap="round" stroke-linejoin="round"/>
<path d="M-572.055 692.935L1077.11 335.403" stroke="white" stroke-linecap="round" stroke-linejoin="round"/>
<path d="M1508.73 389.161L2193.83 731.746" stroke="white" stroke-linecap="round" stroke-linejoin="round"/>
<path d="M1454.26 389.161L1973.92 736.241L2193.29 890.767" stroke="white" stroke-linecap="round" stroke-linejoin="round"/>
<path d="M2193.83 511.812L1508.73 335.371" stroke="white" stroke-linecap="round" stroke-linejoin="round"/>
<path d="M1400.41 389.161L1972.11 962.086" stroke="white" stroke-linecap="round" stroke-linejoin="round"/>
<path d="M-566.664 268.699L1077.65 281.636" stroke="white" stroke-linecap="round" stroke-linejoin="round"/>
<path d="M-578.523 -198.66L1077.11 227.466" stroke="white" stroke-linecap="round" stroke-linejoin="round"/>
<path d="M1077.12 173.205L-82.0547 -403.5" stroke="white" stroke-linecap="round" stroke-linejoin="round"/>
<path d="M1130.64 173.205L282.344 -401.344" stroke="white" stroke-linecap="round" stroke-linejoin="round"/>
<path d="M1347.09 173.205L1633.4 -399.727" stroke="white" stroke-linecap="round" stroke-linejoin="round"/>
<path d="M1184.76 173.205L612.238 -398.082" stroke="white" stroke-linecap="round" stroke-linejoin="round"/>
<path d="M1238.87 173.205L951.527 -399.727" stroke="white" stroke-linecap="round" stroke-linejoin="round"/>
<path d="M1293.07 -399.725V173.207" stroke="white" stroke-linecap="round" stroke-linejoin="round"/>
<path d="M1455.32 173.206L2193.29 -320.485" stroke="white" stroke-linecap="round" stroke-linejoin="round"/>
<path d="M1401.21 173.204L1973.92 -399.304" stroke="white" stroke-linecap="round" stroke-linejoin="round"/>
<path d="M1508.73 173.357L2196.52 -167.395" stroke="white" stroke-linecap="round" stroke-linejoin="round"/>
<path d="M2193.83 55.7734L1508.73 227.492" stroke="white" stroke-linecap="round" stroke-linejoin="round"/>
<path d="M2193.83 281.785L1509.23 281.488" stroke="white" stroke-linecap="round" stroke-linejoin="round"/>
<path fill-rule="evenodd" clip-rule="evenodd" d="M682.777 586.314H1903.37V-23.9473H682.777V586.314Z" stroke="white" stroke-linecap="round" stroke-linejoin="round"/>
<path fill-rule="evenodd" clip-rule="evenodd" d="M607.934 623.396H1978.21V-61.2012H607.934V623.396Z" stroke="white" stroke-linecap="round" stroke-linejoin="round"/>
<path d="M2081.7 -110.255V675.146H504.434V-111.872" stroke="white" stroke-linecap="round" stroke-linejoin="round"/>
<path d="M386.922 -170.09L386.922 734.442" stroke="white" stroke-linecap="round" stroke-linejoin="round"/>
<path d="M214.426 -255.8L214.428 818.533" stroke="white" stroke-linecap="round" stroke-linejoin="round"/>
<path d="M-0.644531 -363.61L-0.644531 925.266" stroke="white" stroke-linecap="round" stroke-linejoin="round"/>
<path fill-rule="evenodd" clip-rule="evenodd" d="M741.07 557.168H1845.03V5.19336H741.07V557.168Z" stroke="white" stroke-linecap="round" stroke-linejoin="round"/>
<path fill-rule="evenodd" clip-rule="evenodd" d="M790 532.71H1796.07V29.6592H790V532.71Z" stroke="white" stroke-linecap="round" stroke-linejoin="round"/>
<path fill-rule="evenodd" clip-rule="evenodd" d="M830.949 512.232H1755.07V50.1348H830.949V512.232Z" stroke="white" stroke-linecap="round" stroke-linejoin="round"/>
<path fill-rule="evenodd" clip-rule="evenodd" d="M865.75 494.836H1720.26V67.5332H865.75V494.836Z" stroke="white" stroke-linecap="round" stroke-linejoin="round"/>
<path fill-rule="evenodd" clip-rule="evenodd" d="M895.66 479.874H1690.32V82.4844H895.66V479.874Z" stroke="white" stroke-linecap="round" stroke-linejoin="round"/>
<path fill-rule="evenodd" clip-rule="evenodd" d="M921.672 466.876H1664.3V95.4902H921.672V466.876Z" stroke="white" stroke-linecap="round" stroke-linejoin="round"/>
<path fill-rule="evenodd" clip-rule="evenodd" d="M944.488 455.47H1641.48V106.893H944.488V455.47Z" stroke="white" stroke-linecap="round" stroke-linejoin="round"/>
<path fill-rule="evenodd" clip-rule="evenodd" d="M964.652 445.392H1621.29V116.979H964.652V445.392Z" stroke="white" stroke-linecap="round" stroke-linejoin="round"/>
<path fill-rule="evenodd" clip-rule="evenodd" d="M982.609 436.408H1603.31V125.96H982.609V436.408Z" stroke="white" stroke-linecap="round" stroke-linejoin="round"/>
<path fill-rule="evenodd" clip-rule="evenodd" d="M998.711 428.355H1587.19V134.01H998.711V428.355Z" stroke="white" stroke-linecap="round" stroke-linejoin="round"/>
<path fill-rule="evenodd" clip-rule="evenodd" d="M1013.23 421.096H1572.67V141.262H1013.23V421.096Z" stroke="white" stroke-linecap="round" stroke-linejoin="round"/>
<path fill-rule="evenodd" clip-rule="evenodd" d="M1026.37 414.524H1559.51V147.842H1026.37V414.524Z" stroke="white" stroke-linecap="round" stroke-linejoin="round"/>
<path fill-rule="evenodd" clip-rule="evenodd" d="M1077.11 389.162H1508.74V173.205H1077.11V389.162Z" stroke="white" stroke-linecap="round" stroke-linejoin="round"/>
<path fill-rule="evenodd" clip-rule="evenodd" d="M1068.56 393.43H1517.28V168.938H1068.56V393.43Z" stroke="white" stroke-linecap="round" stroke-linejoin="round"/>
<path fill-rule="evenodd" clip-rule="evenodd" d="M1059.32 398.049H1526.54V164.312H1059.32V398.049Z" stroke="white" stroke-linecap="round" stroke-linejoin="round"/>
<path fill-rule="evenodd" clip-rule="evenodd" d="M1049.28 403.073H1536.58V159.295H1049.28V403.073Z" stroke="white" stroke-linecap="round" stroke-linejoin="round"/>
<path fill-rule="evenodd" clip-rule="evenodd" d="M1038.34 408.541H1547.53V153.826H1038.34V408.541Z" stroke="white" stroke-linecap="round" stroke-linejoin="round"/>
</g>
<defs>
<linearGradient id="paint0_linear_3769_18861" x1="1280" y1="0" x2="1280" y2="726" gradientUnits="userSpaceOnUse">
<stop stop-color="#D9D9D9" stop-opacity="0"/>
<stop offset="0.526042" stop-color="#D9D9D9" stop-opacity="0.2"/>
<stop offset="1" stop-color="#D9D9D9" stop-opacity="0"/>
</linearGradient>
</defs>
</svg>
